<?xml version="1.0" standalone="no"?>
<!DOCTYPE svg PUBLIC "-//W3C//DTD SVG 1.1//EN" "http://www.w3.org/Graphics/SVG/1.1/DTD/svg11.dtd" >
<svg>
<metadata>
Created by FontForge 20090622 at Thu Jun  4 15:42:02 2020
 By deploy user
Generated by Fontographer 4.1
</metadata>
<defs>
<font id="Spacesuit" horiz-adv-x="1000" >
  <font-face 
    font-family="Spacesuit"
    font-weight="400"
    font-stretch="normal"
    units-per-em="1000"
    panose-1="0 0 4 9 0 0 0 0 0 0"
    ascent="800"
    descent="-200"
    x-height="478"
    cap-height="637"
    bbox="-17 -214 4329 820"
    underline-thickness="20"
    underline-position="-123"
    unicode-range="U+0020-U+007E"
  />
<missing-glyph 
d="M125 0v820h750v-820h-750zM250 125h500v570h-500v-570z" />
    <glyph glyph-name=".notdef" 
d="M125 0v820h750v-820h-750zM250 125h500v570h-500v-570z" />
    <glyph glyph-name=".null" horiz-adv-x="0" 
 />
    <glyph glyph-name="nonmarkingreturn" horiz-adv-x="500" 
 />
    <glyph glyph-name="space" unicode=" " horiz-adv-x="500" 
 />
    <glyph glyph-name="exclam" unicode="!" 
d="M1176 314q-20 11 -25 11t-12.5 -5.5t-12.5 -5.5q-2 0 -8 2t-10 2q-8 0 -15 -7q-1 4 1.5 13t2.5 12q0 8 -12 15q4 8 23.5 14t23.5 20q5 -2 11.5 -11.5t12.5 -9.5q3 0 20 14v-64zM996 354h-24q0 9 8 17q6 -4 16 -17zM954 355l-6 -3l-3 6l6 3zM830 803q-33 -48 -59 -80
q-146 -178 -202 -265q-7 -7 -38 -32t-31 -35v-21q6 -6 12 -6q4 0 8 5t8 5l27 -14q16 4 13 25q24 -4 84 -15q-3 -5 -28 -12q4 -10 15 -10q24 0 20 1v-4q-1 -4 -1 -8q-3 -8 -1 -13q42 -17 57 -17t26 11q4 -12 47 -17q-6 -12 -19 -12q-16 0 -63 3l-63 4q-81 0 -102 -10
q-7 9 -12 21t-13 22l-5 -4t-11 -6q-2 -2 -32 -6q-2 -1 -12 -9t-15 -8q-24 0 -42 5q-2 7 -7 29q-4 16 -4 25q0 6 5.5 23t5.5 23q9 5 19 19q7 11 16 11q2 0 19 -14q13 6 13 19q0 5 -8 9t-17 9q67 93 98 115q1 3 3 13q32 0 44 18q10 14 11 47h22q-1 14 7 49q16 25 60 74
q7 3 15 5q17 0 27 -8q-9 -20 -18 -20q-4 0 -5 1.5t-5 1.5q-15 0 -32 -39q19 -21 28 -21q6 0 20 14q2 10 10 25q18 19 78 74h27zM901 356q-7 -11 -19 -24l-33 11q-4 -1 -24 -5l-3.5 -2.5t-6.5 -5.5v-14q21 -12 36 -12q11 0 38 13l2.5 -4t2.5 -9q0 -8 -12 -14q-7 -4 -13 -4
q-21 0 -63 7v29q-1 21 -24 21q-4 0 -7 -4t-9 -4t-17.5 2t-17.5 2v17h170zM723 339q-7 -1 -8 -1q-5 -2 -9 -2q-1 16 -14 19h4q8 0 17 1h10v-17zM989 11q-22 -74 -94 -129q-1 1 -7.5 7l-11.5 11l5 38q3 -3 6.5 -5t7.5 -5q6 5 7.5 11.5t2.5 15.5q6 6 19 25q4 6 13 36l7 -5
q4 -2 8 -5q11 6 33 21zM957 50q0 -4 -9 -15t-10 -15q-18 21 -28 21q-3 0 -15 -5q-8 -5 -50 -7q-12 0 -23.5 -1l-11.5 -1q-4 0 -17 7q-2 -2 -4 -5q1 -2 5 -9t4 -12v-20q-6 0 -11 2h-8q-5 1 -6 1q-12 0 -19 -7l-5 10t-10 8q1 0 -5 -1q-1 -2 -5 -2q-5 0 -17 7t-17 7
q-14 0 -51 -3l-52 -4q-7 0 -18 3q-15 4 -19 4t-9.5 -3.5t-8.5 -3.5l-9 9l59 12q4 0 13 -2t13 -2t14.5 5.5t14.5 5.5q8 0 26 -7q13 19 13 28q0 14 -18 14q-14 -2 -23 -2q-29 0 -73 4q5 0 15.5 4.5t14.5 4.5q5 0 13.5 -3.5t13.5 -3.5q19 0 57.5 2t57.5 2q43 0 96 -3
q24 -1 75 -6q9 -6 12 -6q4 0 9.5 3.5t9.5 3.5q8 0 16 -8v-11zM816 -83q0 -4 -6 -17q-19 -26 -41 -52q-26 -11 -27 -12q-13 -7 -20 -22q-3 3 -3 7q0 5 6 13q4 0 8 4q13 34 23 54q20 41 50 39q4 4 4 27q0 -7 3 -20.5t3 -20.5zM326 325l-4 -14h-16q-7 6 -1 12q-4 10 -17 10
q-7 -1 -21 -1q-8 8 -8 13q38 8 56 15q7 -21 11 -35zM13 500q0 -24 -5.5 -71t-5.5 -71l1 199q1 -7 5.5 -26.5t4.5 -30.5zM686 -121h-7v23h7v-23zM464 72l-8 -10q-8 8 -15 10h23zM525 71q-15 -1 -15 -19v-25q-25 -7 -49 -7q-16 0 -33 1q-12 0 -23 1l-11 1q-14 0 -23 -10
q-1 0 -6 2t-7 2v20q8 6 27 6l11.5 2.5t14.5 2.5q10 0 35 -7t34 -7q12 0 12 15q0 13 -6 23q-1 -1 39 -1zM53 322q-2 -1 -9 -8q-12 12 -12 14q0 9 12 22l9 -9v-19zM13 330q0 -13 -5 -37l-2 -11q-4 -18 -4 -26v95q0 -2 5.5 -9.5t5.5 -11.5zM16 25q0 -1 -4 -7t-4 -11
q0 -86 6 -195q-8 -8 -13 -8v429q-5 -19 13 -34q-10 -10 -10 -18q0 -77 8 -131q4 -26 4 -25zM759 29q-19 19 -32 19q-4 0 -7 -2l-3 -2q-4 -7 -4 -11q0 -5 4 -9q33 -10 42 5zM706 43q-10 8 -18 8q0 -9 8 -17q2 1 10 9z" />
    <glyph glyph-name="quotedbl" unicode="&#x22;" 
d="M1176 314q-20 11 -25 11t-12.5 -5.5t-12.5 -5.5q-2 0 -8 2t-10 2q-8 0 -15 -7q-1 4 1.5 13t2.5 12q0 8 -12 15q4 8 23.5 14t23.5 20q5 -2 11.5 -11.5t12.5 -9.5q3 0 20 14v-64zM996 354h-24q0 9 8 17q6 -4 16 -17zM954 355l-6 -3l-3 6l6 3zM830 803q-33 -48 -59 -80
q-146 -178 -202 -265q-7 -7 -38 -32t-31 -35v-21q6 -6 12 -6q4 0 8 5t8 5l27 -14q16 4 13 25q24 -4 84 -15q-3 -5 -28 -12q4 -10 15 -10q24 0 20 1v-4q-1 -4 -1 -8q-3 -8 -1 -13q42 -17 57 -17t26 11q4 -12 47 -17q-6 -12 -19 -12q-16 0 -63 3l-63 4q-81 0 -102 -10
q-7 9 -12 21t-13 22l-5 -4t-11 -6q-2 -2 -32 -6q-2 -1 -12 -9t-15 -8q-24 0 -42 5q-2 7 -7 29q-4 16 -4 25q0 6 5.5 23t5.5 23q9 5 19 19q7 11 16 11q2 0 19 -14q13 6 13 19q0 5 -8 9t-17 9q67 93 98 115q1 3 3 13q32 0 44 18q10 14 11 47h22q-1 14 7 49q16 25 60 74
q7 3 15 5q17 0 27 -8q-9 -20 -18 -20q-4 0 -5 1.5t-5 1.5q-15 0 -32 -39q19 -21 28 -21q6 0 20 14q2 10 10 25q18 19 78 74h27zM901 356q-7 -11 -19 -24l-33 11q-4 -1 -24 -5l-3.5 -2.5t-6.5 -5.5v-14q21 -12 36 -12q11 0 38 13l2.5 -4t2.5 -9q0 -8 -12 -14q-7 -4 -13 -4
q-21 0 -63 7v29q-1 21 -24 21q-4 0 -7 -4t-9 -4t-17.5 2t-17.5 2v17h170zM723 339q-7 -1 -8 -1q-5 -2 -9 -2q-1 16 -14 19h4q8 0 17 1h10v-17zM989 11q-22 -74 -94 -129q-1 1 -7.5 7l-11.5 11l5 38q3 -3 6.5 -5t7.5 -5q6 5 7.5 11.5t2.5 15.5q6 6 19 25q4 6 13 36l7 -5
q4 -2 8 -5q11 6 33 21zM957 50q0 -4 -9 -15t-10 -15q-18 21 -28 21q-3 0 -15 -5q-8 -5 -50 -7q-12 0 -23.5 -1l-11.5 -1q-4 0 -17 7q-2 -2 -4 -5q1 -2 5 -9t4 -12v-20q-6 0 -11 2h-8q-5 1 -6 1q-12 0 -19 -7l-5 10t-10 8q1 0 -5 -1q-1 -2 -5 -2q-5 0 -17 7t-17 7
q-14 0 -51 -3l-52 -4q-7 0 -18 3q-15 4 -19 4t-9.5 -3.5t-8.5 -3.5l-9 9l59 12q4 0 13 -2t13 -2t14.5 5.5t14.5 5.5q8 0 26 -7q13 19 13 28q0 14 -18 14q-14 -2 -23 -2q-29 0 -73 4q5 0 15.5 4.5t14.5 4.5q5 0 13.5 -3.5t13.5 -3.5q19 0 57.5 2t57.5 2q43 0 96 -3
q24 -1 75 -6q9 -6 12 -6q4 0 9.5 3.5t9.5 3.5q8 0 16 -8v-11zM816 -83q0 -4 -6 -17q-19 -26 -41 -52q-26 -11 -27 -12q-13 -7 -20 -22q-3 3 -3 7q0 5 6 13q4 0 8 4q13 34 23 54q20 41 50 39q4 4 4 27q0 -7 3 -20.5t3 -20.5zM326 325l-4 -14h-16q-7 6 -1 12q-4 10 -17 10
q-7 -1 -21 -1q-8 8 -8 13q38 8 56 15q7 -21 11 -35zM13 500q0 -24 -5.5 -71t-5.5 -71l1 199q1 -7 5.5 -26.5t4.5 -30.5zM686 -121h-7v23h7v-23zM464 72l-8 -10q-8 8 -15 10h23zM525 71q-15 -1 -15 -19v-25q-25 -7 -49 -7q-16 0 -33 1q-12 0 -23 1l-11 1q-14 0 -23 -10
q-1 0 -6 2t-7 2v20q8 6 27 6l11.5 2.5t14.5 2.5q10 0 35 -7t34 -7q12 0 12 15q0 13 -6 23q-1 -1 39 -1zM53 322q-2 -1 -9 -8q-12 12 -12 14q0 9 12 22l9 -9v-19zM13 330q0 -13 -5 -37l-2 -11q-4 -18 -4 -26v95q0 -2 5.5 -9.5t5.5 -11.5zM16 25q0 -1 -4 -7t-4 -11
q0 -86 6 -195q-8 -8 -13 -8v429q-5 -19 13 -34q-10 -10 -10 -18q0 -77 8 -131q4 -26 4 -25zM759 29q-19 19 -32 19q-4 0 -7 -2l-3 -2q-4 -7 -4 -11q0 -5 4 -9q33 -10 42 5zM706 43q-10 8 -18 8q0 -9 8 -17q2 1 10 9z" />
    <glyph glyph-name="numbersign" unicode="#" 
d="M743 619l-2 -2l-4 3l3 3zM723 628q-3 -3 -12 -3q0 -10 -1 -17q-11 -8 -21 -8q-20 0 -25 12q-4 -1 -24 -9q2 12 -15 12q-19 0 -17 -17q-4 0 -12 5l-6 -5h-13q-1 5 -9 19q-10 -12 -18 -12q-1 0 -11 10q-1 -4 -9 -12h-27q-16 0 -21 -5q1 -1 1 12q2 2 -4 2q-1 0 -3 -2v0
q-1 -2 -3 -2h-13q-2 5 -7 16q-2 0 -9.5 2.5t-10.5 2.5q-2 0 -9.5 -3.5t-10.5 -3.5t-8 5l-6 -6q5 -8 16.5 -10t12.5 -3h-9q-8 -1 -14 -1q-10 -2 -19 -2q-2 0 -9 3t-10 3q15 0 25 6q-1 0 -9 8q-1 5 -5 16q-6 3 -10 3q-6 0 -8 -4l-5 -8q-3 1 -7 3q10 16 23 16q3 0 7 -3.5
t8 -3.5t4 4h9q-3 -2 -10 -8q6 -6 11 -6q2 4 12 19q3 -1 6.5 -5t5.5 -4q5 0 20 4q2 -2 -2 -5q9 1 28 -4q4 0 4 7h11l4 -12l6 6q5 6 8 6q5 -2 20 -9q6 -3 25 -3q2 1 8 7q9 -4 12 -12q5 6 22 12q-1 0 13 -4q6 -2 12 -5q17 0 27 2q-1 4 4 19v-13q2 -1 16 -4q-1 2 -1 15
q9 -2 23 -6q8 -8 15 -13q11 -1 24 -4zM778 -197h-23l-10 162v72l-10 137v223q0 10 7 24q4 45 13 138v243h23v-999zM447 612q-1 -1 -5.5 -5t-7.5 -7l-6 4q5 2 8 6t11 2zM344 623l-6 -6q-6 6 -6 11q0 3 1 5t1 3q7 0 10 -3v-10zM324 638q-7 -5 -28 -26q2 9 -12 18v11
q27 -7 21 -7q2 1 13 7q2 0 6 -3zM274 610h-23l-4 2q0 3 -4 3q-10 0 -13 -5l-6 -9l-28 -10q-13 0 -22 14q-12 -5 -13 -5q-2 0 -7 2.5t-9 2.5q-1 0 -9.5 -5t-11.5 -5t-3 3v0q-1 2 -3 2t-6 -2.5t-7 -2.5q-2 0 -12.5 6.5t-14.5 6.5q-2 0 -7 -4t-10 -4q-1 0 -4 1t-5 2h-3
q-5 0 -10 -5q0 6 2 10l1 7q0 5 -8 10q3 7 14.5 9.5t14.5 10.5q1 3 9 3q3 -14 10 -14q8 0 25 17q3 -3 6 -3q0 -5 -7 -9q17 -3 19 -3q4 0 6 4t5 4q6 0 18 -2l11.5 -2t6.5 -1q5 0 9 4q6 0 10 -9q4 2 6 4l6 6q4 -4 8 -22q8 5 7 12q0 3 -1.5 7.5t-2.5 6.5q7 0 8 3q5 -10 18 -27
h11q5 6 3 9q-1 2 -4 5h14q6 -10 10 -28zM591 605q0 7 -3 10q-3 0 -9 -7zM522 615v9h-4v-9h4zM507 631h-12v-11q6 0 12 11zM474 621l-3 1l-3 -6l3 -2zM219 609q-1 1 -3 4t-3 4q-6 0 -6 -9q6 -5 12 1zM151 618q-1 2 -5 6h-13l-2 -5q7 -7 13 -7q3 1 7 6z" />
    <glyph glyph-name="dollar" unicode="$" 
d="M1176 314q-20 11 -25 11t-12.5 -5.5t-12.5 -5.5q-2 0 -8 2t-10 2q-8 0 -15 -7q-1 4 1.5 13t2.5 12q0 8 -12 15q4 8 23.5 14t23.5 20q5 -2 11.5 -11.5t12.5 -9.5q3 0 20 14v-64zM996 354h-24q0 9 8 17q6 -4 16 -17zM954 355l-6 -3l-3 6l6 3zM830 803q-33 -48 -59 -80
q-146 -178 -202 -265q-7 -7 -38 -32t-31 -35v-21q6 -6 12 -6q4 0 8 5t8 5l27 -14q16 4 13 25q24 -4 84 -15q-3 -5 -28 -12q4 -10 15 -10q24 0 20 1v-4q-1 -4 -1 -8q-3 -8 -1 -13q42 -17 57 -17t26 11q4 -12 47 -17q-6 -12 -19 -12q-16 0 -63 3l-63 4q-81 0 -102 -10
q-7 9 -12 21t-13 22l-5 -4t-11 -6q-2 -2 -32 -6q-2 -1 -12 -9t-15 -8q-24 0 -42 5q-2 7 -7 29q-4 16 -4 25q0 6 5.5 23t5.5 23q9 5 19 19q7 11 16 11q2 0 19 -14q13 6 13 19q0 5 -8 9t-17 9q67 93 98 115q1 3 3 13q32 0 44 18q10 14 11 47h22q-1 14 7 49q16 25 60 74
q7 3 15 5q17 0 27 -8q-9 -20 -18 -20q-4 0 -5 1.5t-5 1.5q-15 0 -32 -39q19 -21 28 -21q6 0 20 14q2 10 10 25q18 19 78 74h27zM901 356q-7 -11 -19 -24l-33 11q-4 -1 -24 -5l-3.5 -2.5t-6.5 -5.5v-14q21 -12 36 -12q11 0 38 13l2.5 -4t2.5 -9q0 -8 -12 -14q-7 -4 -13 -4
q-21 0 -63 7v29q-1 21 -24 21q-4 0 -7 -4t-9 -4t-17.5 2t-17.5 2v17h170zM723 339q-7 -1 -8 -1q-5 -2 -9 -2q-1 16 -14 19h4q8 0 17 1h10v-17zM989 11q-22 -74 -94 -129q-1 1 -7.5 7l-11.5 11l5 38q3 -3 6.5 -5t7.5 -5q6 5 7.5 11.5t2.5 15.5q6 6 19 25q4 6 13 36l7 -5
q4 -2 8 -5q11 6 33 21zM957 50q0 -4 -9 -15t-10 -15q-18 21 -28 21q-3 0 -15 -5q-8 -5 -50 -7q-12 0 -23.5 -1l-11.5 -1q-4 0 -17 7q-2 -2 -4 -5q1 -2 5 -9t4 -12v-20q-6 0 -11 2h-8q-5 1 -6 1q-12 0 -19 -7l-5 10t-10 8q1 0 -5 -1q-1 -2 -5 -2q-5 0 -17 7t-17 7
q-14 0 -51 -3l-52 -4q-7 0 -18 3q-15 4 -19 4t-9.5 -3.5t-8.5 -3.5l-9 9l59 12q4 0 13 -2t13 -2t14.5 5.5t14.5 5.5q8 0 26 -7q13 19 13 28q0 14 -18 14q-14 -2 -23 -2q-29 0 -73 4q5 0 15.5 4.5t14.5 4.5q5 0 13.5 -3.5t13.5 -3.5q19 0 57.5 2t57.5 2q43 0 96 -3
q24 -1 75 -6q9 -6 12 -6q4 0 9.5 3.5t9.5 3.5q8 0 16 -8v-11zM816 -83q0 -4 -6 -17q-19 -26 -41 -52q-26 -11 -27 -12q-13 -7 -20 -22q-3 3 -3 7q0 5 6 13q4 0 8 4q13 34 23 54q20 41 50 39q4 4 4 27q0 -7 3 -20.5t3 -20.5zM326 325l-4 -14h-16q-7 6 -1 12q-4 10 -17 10
q-7 -1 -21 -1q-8 8 -8 13q38 8 56 15q7 -21 11 -35zM13 500q0 -24 -5.5 -71t-5.5 -71l1 199q1 -7 5.5 -26.5t4.5 -30.5zM686 -121h-7v23h7v-23zM464 72l-8 -10q-8 8 -15 10h23zM525 71q-15 -1 -15 -19v-25q-25 -7 -49 -7q-16 0 -33 1q-12 0 -23 1l-11 1q-14 0 -23 -10
q-1 0 -6 2t-7 2v20q8 6 27 6l11.5 2.5t14.5 2.5q10 0 35 -7t34 -7q12 0 12 15q0 13 -6 23q-1 -1 39 -1zM53 322q-2 -1 -9 -8q-12 12 -12 14q0 9 12 22l9 -9v-19zM13 330q0 -13 -5 -37l-2 -11q-4 -18 -4 -26v95q0 -2 5.5 -9.5t5.5 -11.5zM16 25q0 -1 -4 -7t-4 -11
q0 -86 6 -195q-8 -8 -13 -8v429q-5 -19 13 -34q-10 -10 -10 -18q0 -77 8 -131q4 -26 4 -25zM759 29q-19 19 -32 19q-4 0 -7 -2l-3 -2q-4 -7 -4 -11q0 -5 4 -9q33 -10 42 5zM706 43q-10 8 -18 8q0 -9 8 -17q2 1 10 9z" />
    <glyph glyph-name="percent" unicode="%" 
d="M1157 306q-2 1 -6 2q-24 -11 -25 -11q-3 0 -9 2t-9 2l-26 -26q-7 39 -5 52q2 5 2 8t-2.5 4t-13.5 5q12 22 18 27.5t24 10.5q9 2 16 27q17 -8 21.5 -11t14.5 -14q-1 -1 -1 -3q1 2 37 35v-129q-5 2 -36 19zM955 337q0 33 25 58l25 -25q6 -7 18 -33h-68zM940 329l-18 38
l37 16l17 -36zM686 715q8 -8 9 -8q2 2 8 9v4q3 14 10 21q31 31 83 79h70l-82 -108q-134 -161 -200 -263q-4 -6 -35.5 -29.5t-31.5 -28.5v-2q6 2 11 2q12 0 23 -7q-1 1 -3 22q37 -8 137 -25q-7 -9 -18 -19.5t-23 -15.5q1 1 7 3l54 18l-44 -1q5 0 15 -2v-7q0 -16 -1 -22
q33 -11 39 -11q6 2 32 25q8 -24 25 -30q21 -3 42 -7q-22 -40 -45 -40q-16 0 -63 3l-63 4q-75 0 -105 -14q-19 19 -24 35l-2 6q-5 -4 -41 -10q-23 -17 -30 -17q-26 0 -58 8q-12 60 -12 68q0 9 5.5 29t6.5 27q8 5 21 19q9 18 30 18q10 0 31 -18l-15 2v-2q-15 8 -33 21l49 56
q31 37 42 59q5 7 13 12l3 1v3q0 1 2 6.5l4 10.5q35 0 43 15q4 8 9 50h21v7q0 20 9 34q20 31 62 76l6 5q9 6 21 6q25 0 47 -22q-19 -40 -38 -40q-7 0 -13 3q-2 -2 -10 -18zM785 325q-7 -7 -19 -7q-9 0 -26 2t-26 2v51h226q-15 -15 -35 -39q-8 -10 -19 -22q-34 12 -37 14
q-2 0 -8 -2h-2q8 -3 12 -3q6 0 31 12l24 -16q-1 2 -1 6q6 -10 6 -19q0 -11 -15.5 -23t-26.5 -12q-20 0 -77 9q-5 14 -3 23v19q-1 4 -4 5zM719 321q-12 -2 -27 -2q-2 12 -4 19h-17l3 34h24q8 0 22 1h20v-51q-18 0 -21 -1zM953 26q12 9 41 28l13 -43q-27 -86 -115 -153
q-12 14 -34 36l10 81q8 -9 29 -28q8 -5 10 -7h-23q1 0 2 7q1 15 9 23q12 13 14.5 17t20.5 61q20 -20 23 -22zM923 80q11 6 18 6q15 0 25 -10l8 -8v-18q0 -9 -18 -33l-11 -30q-29 33 -35 37q-1 0 -11.5 -5.5t-19.5 -5.5q-16 0 -34 -1q-12 0 -23.5 -1l-11.5 -1q-10 0 -19 6
q2 -2 7 -3q4 6 10 12q0 3 1 3q6 -10 6 -21v-36q-4 0 -24 2q-16 2 -23 1l-14 -14q-12 12 -19 22h-6q-6 0 -34 14q-14 0 -51 -3l-52 -4q-7 0 -19.5 3.5t-17.5 3.5q-10 -7 -26 -7l-32 37l90 18q4 0 13 -2t13 -2l11.5 6t17.5 5t18 -3q3 3 4 6l-2 -2q-6 0 -11 -1q-1 0 -5 -1
q-25 -3 -81 5l2 33q26 9 30 9q6 0 14.5 -3.5t12.5 -3.5q19 0 57.5 2t57.5 2q51 0 135 -5q29 -2 43 -5q3 -1 6 -4zM720 -150q17 43 26 58q20 33 48 39v5q-1 3 -1 6h34q0 -7 3 -20.5t3 -20.5q0 -5 -8 -26q-22 -32 -27 -38q-18 -22 -37 -27l-7 -2q-10 -3 -27 -38q-21 19 -21 39
q0 11 8 22zM286 316q-19 -1 -27 0q-17 17 -17 43q51 11 83 24q18 -55 18 -58q0 -7 -5 -19q0 4 1 5l-17 -17h-23q-12 12 -13 22zM19 359l-34 -1v419h34l1 -219l10 -58q0 -24 -5.5 -71t-5.5 -70zM662 -138v57h41v-57h-41zM456 38q-11 11 -16 17l1 34h63zM527 51q1 -10 -3 -37
q-39 -11 -63 -11q-16 0 -33 1q-12 0 -23 1l-11 1q-6 0 -15 -10q-13 0 -21 3q-16 17 -17 44q17 17 44 17q1 0 13 2q9 3 13 3q12 0 35 -7t34 -7q4 0 -2 7q-12 14 -17 23q24 8 34 8q-20 -1 30 -1l2 -33v-4zM54 306q4 2 8 2l-18 -18l-1 1q-7 7 -16 15q-12 8 -12 22q0 16 29 45
l26 -24v-27zM19 256h-34v95h34q-1 1 -1 4l2 -3q10 -11 10 -22q0 -13 -5.5 -38t-5.5 -36zM26 8q0 -95 5 -203q-14 -14 -19.5 -16t-27.5 -2v446l34 -4q-2 -11 23 -28q-10 -9 -20 -20q0 -104 8 -132l2 -7q5 -18 -5 -34z" />
    <glyph glyph-name="ampersand" unicode="&#x26;" 
d="M958 -82q-2 0 -9 -2t-10 -2t-33 14q-20 9 -38 5q2 11 -15 24t-29 13q-25 0 -45 -16q-3 -9 -12 -20q-44 -32 -87 -46q-21 0 -68 -6q-20 -10 -25 -10t-14 4t-14 4t-14.5 -4t-14.5 -4q-3 0 -11 2t-12 2q-17 0 -53 -7.5t-53 -7.5q-3 0 -16 11t-16 11q-12 0 -18.5 -13
t-22.5 -13q6 0 -37 2t-37 2q-57 0 -105 12q-6 2 -27 16q-2 13 -15 25t-16 16.5t-5 18.5q-7 16 -12 46q0 3 -4.5 13.5t-4.5 13.5v155q0 2 3.5 8t2.5 10q-14 17 -14 33q0 32 14 78l25 84q8 8 13 15q0 3 4 13t4 16q0 11 -21 30q-1 20 -3 78q-1 20 -1 38l-1 15q0 40 9 56
q3 6 20 27q1 4 2 15q19 19 88 37q16 1 56 2q6 4 15 9q2 1 92 12q8 1 104 1q38 0 112 -13q85 -14 104 -30.5t44 -48.5q8 -16 18 -51.5t10 -51.5q0 -17 -11 -30l-28 -25q-8 4 -35 13q-14 8 -14 25q0 6 2 14q-1 2 -14 30q2 4 2 7t-2 7q-24 29 -23 45q-1 5 -7.5 9t-28 12.5
t-25.5 8.5q47 0 -67.5 -3.5t-140.5 -3.5q-21 -9 -64 -17q-13 -9 -42 -21q-74 -14 -74 -56q0 -17 7 -45t16 -40q47 -55 128 -100q23 -13 63.5 -44.5t61.5 -43.5l132 -79l65 -50q17 -13 37 -19q5 0 35 -2q1 -3 29 -22l1 1q20 20 20 32q0 13 -10 14h-12q-31 49 -31 63
q0 6 17 23q0 -1 3 -7t9 -12q5 2 13 10q0 7 -16 14q6 29 46 29q24 0 28 -13q13 -39 13 -140q0 -25 9 -75q5 -11 35 -27q1 -6 10 -22q6 -6 26 -19q14 -9 26 -21q-4 0 -15 -11q3 -5 19 -29v-21zM780 85v17q-2 0 -6.5 2.5t-7.5 2.5l-7 -11q-1 -4 -7 -4t-7.5 1t-3.5 2h-4
q-9 0 -16 -7q-3 5 -19 19q-3 -3 -9 -5q14 -43 -2 -60q-2 4 -6.5 10t-10.5 6q-3 0 -9 -2t-10 -2q-17 0 -27 10q-18 27 -61 71q-64 48 -114 80l-80 53q-2 2 -33 14q-23 9 -26 25q-2 0 -6 -3.5t-11 -3.5q1 0 -24 17t-42 17q-7 0 -31.5 -10.5t-32.5 -16.5q-13 -9 -30 -37
q-19 -31 -19 -48v-168q13 -1 27 -44q8 -25 78 -44q58 -15 97 -15q14 0 54 -1q55 -1 78 0q11 -6 18 -6q5 0 17 5.5t15 5.5q12 0 25 -5q3 -1 12 -9t12 -8q17 0 34 26q5 -11 13 -11q6 0 17 11q13 -11 21 -11q18 0 52 18l49 26q15 3 30 13q3 5 8 37.5t5 42.5zM114 101
q-10 8 -37 44l-5 -30q8 -4 28 -35q8 15 14 21zM736 24h-7v37h7v-37zM480 113h-25v7h25v-7z" />
    <glyph glyph-name="quotesingle" unicode="'" 
d="M1176 314q-20 11 -25 11t-12.5 -5.5t-12.5 -5.5q-2 0 -8 2t-10 2q-8 0 -15 -7q-1 4 1.5 13t2.5 12q0 8 -12 15q4 8 23.5 14t23.5 20q5 -2 11.5 -11.5t12.5 -9.5q3 0 20 14v-64zM996 354h-24q0 9 8 17q6 -4 16 -17zM954 355l-6 -3l-3 6l6 3zM830 803q-33 -48 -59 -80
q-146 -178 -202 -265q-7 -7 -38 -32t-31 -35v-21q6 -6 12 -6q4 0 8 5t8 5l27 -14q16 4 13 25q24 -4 84 -15q-3 -5 -28 -12q4 -10 15 -10q24 0 20 1v-4q-1 -4 -1 -8q-3 -8 -1 -13q42 -17 57 -17t26 11q4 -12 47 -17q-6 -12 -19 -12q-16 0 -63 3l-63 4q-81 0 -102 -10
q-7 9 -12 21t-13 22l-5 -4t-11 -6q-2 -2 -32 -6q-2 -1 -12 -9t-15 -8q-24 0 -42 5q-2 7 -7 29q-4 16 -4 25q0 6 5.5 23t5.5 23q9 5 19 19q7 11 16 11q2 0 19 -14q13 6 13 19q0 5 -8 9t-17 9q67 93 98 115q1 3 3 13q32 0 44 18q10 14 11 47h22q-1 14 7 49q16 25 60 74
q7 3 15 5q17 0 27 -8q-9 -20 -18 -20q-4 0 -5 1.5t-5 1.5q-15 0 -32 -39q19 -21 28 -21q6 0 20 14q2 10 10 25q18 19 78 74h27zM901 356q-7 -11 -19 -24l-33 11q-4 -1 -24 -5l-3.5 -2.5t-6.5 -5.5v-14q21 -12 36 -12q11 0 38 13l2.5 -4t2.5 -9q0 -8 -12 -14q-7 -4 -13 -4
q-21 0 -63 7v29q-1 21 -24 21q-4 0 -7 -4t-9 -4t-17.5 2t-17.5 2v17h170zM723 339q-7 -1 -8 -1q-5 -2 -9 -2q-1 16 -14 19h4q8 0 17 1h10v-17zM989 11q-22 -74 -94 -129q-1 1 -7.5 7l-11.5 11l5 38q3 -3 6.5 -5t7.5 -5q6 5 7.5 11.5t2.5 15.5q6 6 19 25q4 6 13 36l7 -5
q4 -2 8 -5q11 6 33 21zM957 50q0 -4 -9 -15t-10 -15q-18 21 -28 21q-3 0 -15 -5q-8 -5 -50 -7q-12 0 -23.5 -1l-11.5 -1q-4 0 -17 7q-2 -2 -4 -5q1 -2 5 -9t4 -12v-20q-6 0 -11 2h-8q-5 1 -6 1q-12 0 -19 -7l-5 10t-10 8q1 0 -5 -1q-1 -2 -5 -2q-5 0 -17 7t-17 7
q-14 0 -51 -3l-52 -4q-7 0 -18 3q-15 4 -19 4t-9.5 -3.5t-8.5 -3.5l-9 9l59 12q4 0 13 -2t13 -2t14.5 5.5t14.5 5.5q8 0 26 -7q13 19 13 28q0 14 -18 14q-14 -2 -23 -2q-29 0 -73 4q5 0 15.5 4.5t14.5 4.5q5 0 13.5 -3.5t13.5 -3.5q19 0 57.5 2t57.5 2q43 0 96 -3
q24 -1 75 -6q9 -6 12 -6q4 0 9.5 3.5t9.5 3.5q8 0 16 -8v-11zM816 -83q0 -4 -6 -17q-19 -26 -41 -52q-26 -11 -27 -12q-13 -7 -20 -22q-3 3 -3 7q0 5 6 13q4 0 8 4q13 34 23 54q20 41 50 39q4 4 4 27q0 -7 3 -20.5t3 -20.5zM326 325l-4 -14h-16q-7 6 -1 12q-4 10 -17 10
q-7 -1 -21 -1q-8 8 -8 13q38 8 56 15q7 -21 11 -35zM13 500q0 -24 -5.5 -71t-5.5 -71l1 199q1 -7 5.5 -26.5t4.5 -30.5zM686 -121h-7v23h7v-23zM464 72l-8 -10q-8 8 -15 10h23zM525 71q-15 -1 -15 -19v-25q-25 -7 -49 -7q-16 0 -33 1q-12 0 -23 1l-11 1q-14 0 -23 -10
q-1 0 -6 2t-7 2v20q8 6 27 6l11.5 2.5t14.5 2.5q10 0 35 -7t34 -7q12 0 12 15q0 13 -6 23q-1 -1 39 -1zM53 322q-2 -1 -9 -8q-12 12 -12 14q0 9 12 22l9 -9v-19zM13 330q0 -13 -5 -37l-2 -11q-4 -18 -4 -26v95q0 -2 5.5 -9.5t5.5 -11.5zM16 25q0 -1 -4 -7t-4 -11
q0 -86 6 -195q-8 -8 -13 -8v429q-5 -19 13 -34q-10 -10 -10 -18q0 -77 8 -131q4 -26 4 -25zM759 29q-19 19 -32 19q-4 0 -7 -2l-3 -2q-4 -7 -4 -11q0 -5 4 -9q33 -10 42 5zM706 43q-10 8 -18 8q0 -9 8 -17q2 1 10 9z" />
    <glyph glyph-name="parenleft" unicode="(" 
d="M249 -195h-248v998h45v-901q0 -14 7 -31q9 -21 20 -21h70q27 0 62 -1h44v-44z" />
    <glyph glyph-name="parenright" unicode=")" 
d="M751 -197h-751v24q17 2 67 6q35 3 44 3h97l239 12h121q106 0 130 10q8 3 8 47v205l-3 49q-3 43 -3 73l-6 470q0 -15 2.5 18.5t1.5 38.5q-2 9 0 16t3 14q0 9 -7 13h57v-999z" />
    <glyph glyph-name="asterisk" unicode="*" 
d="M1176 314q-20 11 -25 11t-12.5 -5.5t-12.5 -5.5q-2 0 -8 2t-10 2q-8 0 -15 -7q-1 4 1.5 13t2.5 12q0 8 -12 15q4 8 23.5 14t23.5 20q5 -2 11.5 -11.5t12.5 -9.5q3 0 20 14v-64zM996 354h-24q0 9 8 17q6 -4 16 -17zM954 355l-6 -3l-3 6l6 3zM830 803q-33 -48 -59 -80
q-146 -178 -202 -265q-7 -7 -38 -32t-31 -35v-21q6 -6 12 -6q4 0 8 5t8 5l27 -14q16 4 13 25q24 -4 84 -15q-3 -5 -28 -12q4 -10 15 -10q24 0 20 1v-4q-1 -4 -1 -8q-3 -8 -1 -13q42 -17 57 -17t26 11q4 -12 47 -17q-6 -12 -19 -12q-16 0 -63 3l-63 4q-81 0 -102 -10
q-7 9 -12 21t-13 22l-5 -4t-11 -6q-2 -2 -32 -6q-2 -1 -12 -9t-15 -8q-24 0 -42 5q-2 7 -7 29q-4 16 -4 25q0 6 5.5 23t5.5 23q9 5 19 19q7 11 16 11q2 0 19 -14q13 6 13 19q0 5 -8 9t-17 9q67 93 98 115q1 3 3 13q32 0 44 18q10 14 11 47h22q-1 14 7 49q16 25 60 74
q7 3 15 5q17 0 27 -8q-9 -20 -18 -20q-4 0 -5 1.5t-5 1.5q-15 0 -32 -39q19 -21 28 -21q6 0 20 14q2 10 10 25q18 19 78 74h27zM901 356q-7 -11 -19 -24l-33 11q-4 -1 -24 -5l-3.5 -2.5t-6.5 -5.5v-14q21 -12 36 -12q11 0 38 13l2.5 -4t2.5 -9q0 -8 -12 -14q-7 -4 -13 -4
q-21 0 -63 7v29q-1 21 -24 21q-4 0 -7 -4t-9 -4t-17.5 2t-17.5 2v17h170zM723 339q-7 -1 -8 -1q-5 -2 -9 -2q-1 16 -14 19h4q8 0 17 1h10v-17zM989 11q-22 -74 -94 -129q-1 1 -7.5 7l-11.5 11l5 38q3 -3 6.5 -5t7.5 -5q6 5 7.5 11.5t2.5 15.5q6 6 19 25q4 6 13 36l7 -5
q4 -2 8 -5q11 6 33 21zM957 50q0 -4 -9 -15t-10 -15q-18 21 -28 21q-3 0 -15 -5q-8 -5 -50 -7q-12 0 -23.5 -1l-11.5 -1q-4 0 -17 7q-2 -2 -4 -5q1 -2 5 -9t4 -12v-20q-6 0 -11 2h-8q-5 1 -6 1q-12 0 -19 -7l-5 10t-10 8q1 0 -5 -1q-1 -2 -5 -2q-5 0 -17 7t-17 7
q-14 0 -51 -3l-52 -4q-7 0 -18 3q-15 4 -19 4t-9.5 -3.5t-8.5 -3.5l-9 9l59 12q4 0 13 -2t13 -2t14.5 5.5t14.5 5.5q8 0 26 -7q13 19 13 28q0 14 -18 14q-14 -2 -23 -2q-29 0 -73 4q5 0 15.5 4.5t14.5 4.5q5 0 13.5 -3.5t13.5 -3.5q19 0 57.5 2t57.5 2q43 0 96 -3
q24 -1 75 -6q9 -6 12 -6q4 0 9.5 3.5t9.5 3.5q8 0 16 -8v-11zM816 -83q0 -4 -6 -17q-19 -26 -41 -52q-26 -11 -27 -12q-13 -7 -20 -22q-3 3 -3 7q0 5 6 13q4 0 8 4q13 34 23 54q20 41 50 39q4 4 4 27q0 -7 3 -20.5t3 -20.5zM326 325l-4 -14h-16q-7 6 -1 12q-4 10 -17 10
q-7 -1 -21 -1q-8 8 -8 13q38 8 56 15q7 -21 11 -35zM13 500q0 -24 -5.5 -71t-5.5 -71l1 199q1 -7 5.5 -26.5t4.5 -30.5zM686 -121h-7v23h7v-23zM464 72l-8 -10q-8 8 -15 10h23zM525 71q-15 -1 -15 -19v-25q-25 -7 -49 -7q-16 0 -33 1q-12 0 -23 1l-11 1q-14 0 -23 -10
q-1 0 -6 2t-7 2v20q8 6 27 6l11.5 2.5t14.5 2.5q10 0 35 -7t34 -7q12 0 12 15q0 13 -6 23q-1 -1 39 -1zM53 322q-2 -1 -9 -8q-12 12 -12 14q0 9 12 22l9 -9v-19zM13 330q0 -13 -5 -37l-2 -11q-4 -18 -4 -26v95q0 -2 5.5 -9.5t5.5 -11.5zM16 25q0 -1 -4 -7t-4 -11
q0 -86 6 -195q-8 -8 -13 -8v429q-5 -19 13 -34q-10 -10 -10 -18q0 -77 8 -131q4 -26 4 -25zM759 29q-19 19 -32 19q-4 0 -7 -2l-3 -2q-4 -7 -4 -11q0 -5 4 -9q33 -10 42 5zM706 43q-10 8 -18 8q0 -9 8 -17q2 1 10 9z" />
    <glyph glyph-name="plus" unicode="+" 
d="M1176 314q-20 11 -25 11t-12.5 -5.5t-12.5 -5.5q-2 0 -8 2t-10 2q-8 0 -15 -7q-1 4 1.5 13t2.5 12q0 8 -12 15q4 8 23.5 14t23.5 20q5 -2 11.5 -11.5t12.5 -9.5q3 0 20 14v-64zM996 354h-24q0 9 8 17q6 -4 16 -17zM954 355l-6 -3l-3 6l6 3zM830 803q-33 -48 -59 -80
q-146 -178 -202 -265q-7 -7 -38 -32t-31 -35v-21q6 -6 12 -6q4 0 8 5t8 5l27 -14q16 4 13 25q24 -4 84 -15q-3 -5 -28 -12q4 -10 15 -10q24 0 20 1v-4q-1 -4 -1 -8q-3 -8 -1 -13q42 -17 57 -17t26 11q4 -12 47 -17q-6 -12 -19 -12q-16 0 -63 3l-63 4q-81 0 -102 -10
q-7 9 -12 21t-13 22l-5 -4t-11 -6q-2 -2 -32 -6q-2 -1 -12 -9t-15 -8q-24 0 -42 5q-2 7 -7 29q-4 16 -4 25q0 6 5.5 23t5.5 23q9 5 19 19q7 11 16 11q2 0 19 -14q13 6 13 19q0 5 -8 9t-17 9q67 93 98 115q1 3 3 13q32 0 44 18q10 14 11 47h22q-1 14 7 49q16 25 60 74
q7 3 15 5q17 0 27 -8q-9 -20 -18 -20q-4 0 -5 1.5t-5 1.5q-15 0 -32 -39q19 -21 28 -21q6 0 20 14q2 10 10 25q18 19 78 74h27zM901 356q-7 -11 -19 -24l-33 11q-4 -1 -24 -5l-3.5 -2.5t-6.5 -5.5v-14q21 -12 36 -12q11 0 38 13l2.5 -4t2.5 -9q0 -8 -12 -14q-7 -4 -13 -4
q-21 0 -63 7v29q-1 21 -24 21q-4 0 -7 -4t-9 -4t-17.5 2t-17.5 2v17h170zM723 339q-7 -1 -8 -1q-5 -2 -9 -2q-1 16 -14 19h4q8 0 17 1h10v-17zM989 11q-22 -74 -94 -129q-1 1 -7.5 7l-11.5 11l5 38q3 -3 6.5 -5t7.5 -5q6 5 7.5 11.5t2.5 15.5q6 6 19 25q4 6 13 36l7 -5
q4 -2 8 -5q11 6 33 21zM957 50q0 -4 -9 -15t-10 -15q-18 21 -28 21q-3 0 -15 -5q-8 -5 -50 -7q-12 0 -23.5 -1l-11.5 -1q-4 0 -17 7q-2 -2 -4 -5q1 -2 5 -9t4 -12v-20q-6 0 -11 2h-8q-5 1 -6 1q-12 0 -19 -7l-5 10t-10 8q1 0 -5 -1q-1 -2 -5 -2q-5 0 -17 7t-17 7
q-14 0 -51 -3l-52 -4q-7 0 -18 3q-15 4 -19 4t-9.5 -3.5t-8.5 -3.5l-9 9l59 12q4 0 13 -2t13 -2t14.5 5.5t14.5 5.5q8 0 26 -7q13 19 13 28q0 14 -18 14q-14 -2 -23 -2q-29 0 -73 4q5 0 15.5 4.5t14.5 4.5q5 0 13.5 -3.5t13.5 -3.5q19 0 57.5 2t57.5 2q43 0 96 -3
q24 -1 75 -6q9 -6 12 -6q4 0 9.5 3.5t9.5 3.5q8 0 16 -8v-11zM816 -83q0 -4 -6 -17q-19 -26 -41 -52q-26 -11 -27 -12q-13 -7 -20 -22q-3 3 -3 7q0 5 6 13q4 0 8 4q13 34 23 54q20 41 50 39q4 4 4 27q0 -7 3 -20.5t3 -20.5zM326 325l-4 -14h-16q-7 6 -1 12q-4 10 -17 10
q-7 -1 -21 -1q-8 8 -8 13q38 8 56 15q7 -21 11 -35zM13 500q0 -24 -5.5 -71t-5.5 -71l1 199q1 -7 5.5 -26.5t4.5 -30.5zM686 -121h-7v23h7v-23zM464 72l-8 -10q-8 8 -15 10h23zM525 71q-15 -1 -15 -19v-25q-25 -7 -49 -7q-16 0 -33 1q-12 0 -23 1l-11 1q-14 0 -23 -10
q-1 0 -6 2t-7 2v20q8 6 27 6l11.5 2.5t14.5 2.5q10 0 35 -7t34 -7q12 0 12 15q0 13 -6 23q-1 -1 39 -1zM53 322q-2 -1 -9 -8q-12 12 -12 14q0 9 12 22l9 -9v-19zM13 330q0 -13 -5 -37l-2 -11q-4 -18 -4 -26v95q0 -2 5.5 -9.5t5.5 -11.5zM16 25q0 -1 -4 -7t-4 -11
q0 -86 6 -195q-8 -8 -13 -8v429q-5 -19 13 -34q-10 -10 -10 -18q0 -77 8 -131q4 -26 4 -25zM759 29q-19 19 -32 19q-4 0 -7 -2l-3 -2q-4 -7 -4 -11q0 -5 4 -9q33 -10 42 5zM706 43q-10 8 -18 8q0 -9 8 -17q2 1 10 9z" />
    <glyph glyph-name="comma" unicode="," 
d="M1176 314q-20 11 -25 11t-12.5 -5.5t-12.5 -5.5q-2 0 -8 2t-10 2q-8 0 -15 -7q-1 4 1.5 13t2.5 12q0 8 -12 15q4 8 23.5 14t23.5 20q5 -2 11.5 -11.5t12.5 -9.5q3 0 20 14v-64zM996 354h-24q0 9 8 17q6 -4 16 -17zM954 355l-6 -3l-3 6l6 3zM830 803q-33 -48 -59 -80
q-146 -178 -202 -265q-7 -7 -38 -32t-31 -35v-21q6 -6 12 -6q4 0 8 5t8 5l27 -14q16 4 13 25q24 -4 84 -15q-3 -5 -28 -12q4 -10 15 -10q24 0 20 1v-4q-1 -4 -1 -8q-3 -8 -1 -13q42 -17 57 -17t26 11q4 -12 47 -17q-6 -12 -19 -12q-16 0 -63 3l-63 4q-81 0 -102 -10
q-7 9 -12 21t-13 22l-5 -4t-11 -6q-2 -2 -32 -6q-2 -1 -12 -9t-15 -8q-24 0 -42 5q-2 7 -7 29q-4 16 -4 25q0 6 5.5 23t5.5 23q9 5 19 19q7 11 16 11q2 0 19 -14q13 6 13 19q0 5 -8 9t-17 9q67 93 98 115q1 3 3 13q32 0 44 18q10 14 11 47h22q-1 14 7 49q16 25 60 74
q7 3 15 5q17 0 27 -8q-9 -20 -18 -20q-4 0 -5 1.5t-5 1.5q-15 0 -32 -39q19 -21 28 -21q6 0 20 14q2 10 10 25q18 19 78 74h27zM901 356q-7 -11 -19 -24l-33 11q-4 -1 -24 -5l-3.5 -2.5t-6.5 -5.5v-14q21 -12 36 -12q11 0 38 13l2.5 -4t2.5 -9q0 -8 -12 -14q-7 -4 -13 -4
q-21 0 -63 7v29q-1 21 -24 21q-4 0 -7 -4t-9 -4t-17.5 2t-17.5 2v17h170zM723 339q-7 -1 -8 -1q-5 -2 -9 -2q-1 16 -14 19h4q8 0 17 1h10v-17zM989 11q-22 -74 -94 -129q-1 1 -7.5 7l-11.5 11l5 38q3 -3 6.5 -5t7.5 -5q6 5 7.5 11.5t2.5 15.5q6 6 19 25q4 6 13 36l7 -5
q4 -2 8 -5q11 6 33 21zM957 50q0 -4 -9 -15t-10 -15q-18 21 -28 21q-3 0 -15 -5q-8 -5 -50 -7q-12 0 -23.5 -1l-11.5 -1q-4 0 -17 7q-2 -2 -4 -5q1 -2 5 -9t4 -12v-20q-6 0 -11 2h-8q-5 1 -6 1q-12 0 -19 -7l-5 10t-10 8q1 0 -5 -1q-1 -2 -5 -2q-5 0 -17 7t-17 7
q-14 0 -51 -3l-52 -4q-7 0 -18 3q-15 4 -19 4t-9.5 -3.5t-8.5 -3.5l-9 9l59 12q4 0 13 -2t13 -2t14.5 5.5t14.5 5.5q8 0 26 -7q13 19 13 28q0 14 -18 14q-14 -2 -23 -2q-29 0 -73 4q5 0 15.5 4.5t14.5 4.5q5 0 13.5 -3.5t13.5 -3.5q19 0 57.5 2t57.5 2q43 0 96 -3
q24 -1 75 -6q9 -6 12 -6q4 0 9.5 3.5t9.5 3.5q8 0 16 -8v-11zM816 -83q0 -4 -6 -17q-19 -26 -41 -52q-26 -11 -27 -12q-13 -7 -20 -22q-3 3 -3 7q0 5 6 13q4 0 8 4q13 34 23 54q20 41 50 39q4 4 4 27q0 -7 3 -20.5t3 -20.5zM326 325l-4 -14h-16q-7 6 -1 12q-4 10 -17 10
q-7 -1 -21 -1q-8 8 -8 13q38 8 56 15q7 -21 11 -35zM13 500q0 -24 -5.5 -71t-5.5 -71l1 199q1 -7 5.5 -26.5t4.5 -30.5zM686 -121h-7v23h7v-23zM464 72l-8 -10q-8 8 -15 10h23zM525 71q-15 -1 -15 -19v-25q-25 -7 -49 -7q-16 0 -33 1q-12 0 -23 1l-11 1q-14 0 -23 -10
q-1 0 -6 2t-7 2v20q8 6 27 6l11.5 2.5t14.5 2.5q10 0 35 -7t34 -7q12 0 12 15q0 13 -6 23q-1 -1 39 -1zM53 322q-2 -1 -9 -8q-12 12 -12 14q0 9 12 22l9 -9v-19zM13 330q0 -13 -5 -37l-2 -11q-4 -18 -4 -26v95q0 -2 5.5 -9.5t5.5 -11.5zM16 25q0 -1 -4 -7t-4 -11
q0 -86 6 -195q-8 -8 -13 -8v429q-5 -19 13 -34q-10 -10 -10 -18q0 -77 8 -131q4 -26 4 -25zM759 29q-19 19 -32 19q-4 0 -7 -2l-3 -2q-4 -7 -4 -11q0 -5 4 -9q33 -10 42 5zM706 43q-10 8 -18 8q0 -9 8 -17q2 1 10 9z" />
    <glyph glyph-name="hyphen" unicode="-" 
d="M638 286q-9 -1 -24 -9v-20q2 -1 9 -5q6 2 14 17q0 -19 -4 -23q-16 -15 -24 -15l-347 -14q-2 1 -17 5q-1 2 -7.5 10.5t-6.5 11.5v21q4 4 12 4q-10 0 11.5 -8.5t28.5 -8.5q14 0 36 14q26 -21 52 -21q3 0 11 2h16q2 0 9.5 -3t11.5 -3q3 0 17.5 9.5t19.5 10.5q-1 0 36 3
q22 2 36 11q1 2 -13 13q-10 -1 -28 2q-21 3 -28 3q-4 0 -10.5 -3.5t-10.5 -3.5q-6 0 -25 7t-27 7q-13 0 -42 -8.5t-41 -8.5l-5 1h-10q-8 2 -17 2q-14 0 -21 -7l-9 9q8 5 18 15q6 7 17 7q-1 0 6 -1q1 -2 6 -2q2 0 11 9q1 1 13 1q-4 0 75 -5l77 -5q5 0 11.5 4.5t8.5 4.5
q-4 0 5 1h22h84q10 -5 43 -31z" />
    <glyph glyph-name="hyphen" unicode="&#x2010;" 
d="M638 286q-9 -1 -24 -9v-20q2 -1 9 -5q6 2 14 17q0 -19 -4 -23q-16 -15 -24 -15l-347 -14q-2 1 -17 5q-1 2 -7.5 10.5t-6.5 11.5v21q4 4 12 4q-10 0 11.5 -8.5t28.5 -8.5q14 0 36 14q26 -21 52 -21q3 0 11 2h16q2 0 9.5 -3t11.5 -3q3 0 17.5 9.5t19.5 10.5q-1 0 36 3
q22 2 36 11q1 2 -13 13q-10 -1 -28 2q-21 3 -28 3q-4 0 -10.5 -3.5t-10.5 -3.5q-6 0 -25 7t-27 7q-13 0 -42 -8.5t-41 -8.5l-5 1h-10q-8 2 -17 2q-14 0 -21 -7l-9 9q8 5 18 15q6 7 17 7q-1 0 6 -1q1 -2 6 -2q2 0 11 9q1 1 13 1q-4 0 75 -5l77 -5q5 0 11.5 4.5t8.5 4.5
q-4 0 5 1h22h84q10 -5 43 -31z" />
    <glyph glyph-name="period" unicode="." 
d="M366 -50q0 -26 -9.5 -38.5t-33.5 -27.5t-29 -15q-4 0 -5 1.5t-5 1.5q-3 0 -28 -16q-6 12 -27 17l-7 17.5t-8 7.5q-6 0 -4 -1.5t-3 -1.5q-13 0 -14 41q-2 67 37 101q25 5 51 5q32 0 55 -11q9 -4 23 -32l-13 -26q8 -18 20 -23z" />
    <glyph glyph-name="slash" unicode="/" 
d="M598 608l-5 -15l-35 -27q0 -8 -6 -20q-4 -1 -12 -6q-8 -10 -40 -56q-6 -19 -15 -40q-6 -2 -19 -14q-7 -15 -19 -37l-25 -34q-1 -7 -9 -28q-10 -10 -25 -27q0 -3 -2 -23q-8 -25 -27 -48q-21 -26 -25 -34l-40 -85q-12 -5 -28 -21q-3 -13 -23 -68q-11 -14 -28 -41
q-11 -17 -12 -30q-3 -2 -15 -14q-4 -12 -16 -41q-16 -24 -31 -24q-46 0 -46 39q0 5 9 32q-1 -5 -1 -10q0 -18 24 -27q8 6 23 29q-5 16 -21 15l-23 -2q10 12 24 20q19 11 51 80q10 8 22 24l227 406q3 3 21 25l51 85q11 27 30 64q2 2 17 2q20 0 25 -5q24 -31 24 -44z" />
    <glyph glyph-name="zero" unicode="0" 
d="M695 109q0 12 -16 -91q-2 -12 -16 -24t-19 -17q-1 -6 -10 -22q-49 -43 -80 -55q-18 2 -37 2q-11 -3 -41 -8q-8 -5 -22 -9h-144q-22 11 -29 11q-3 0 -26 -11t-27 -11q1 0 -72 16q-3 9 -6 28q-1 3 -9 8.5t-12 5.5q-7 0 -10 -3q-1 12 -30 45l-20 171q-11 90 -11 132
q0 20 1 29q1 12 -3 48l-5 40q0 18 4 47q5 41 6 48q1 4 -2.5 16.5t-3.5 16.5q0 19 6 57.5t6 57.5q5 7 8 14q24 1 29 38q21 15 41 21q71 20 65 20q5 0 14 -3.5t13 -3.5q8 0 22.5 4.5t21.5 4.5q54 2 112 2q-9 0 91 -9q51 -5 92 -30q21 -13 76 -72q5 -6 11 -24t6 -27
q0 -4 -11 -30t-11 -31q0 -3 3.5 -14.5t3.5 -20.5q3 0 10 -7q7 6 7 25.5t4 24.5q6 -13 6 -28q0 -10 -6 -29.5t-6 -27.5q0 -4 7.5 -18t7.5 -19q0 -2 -2.5 -9t-2.5 -10q-9 0 -15 6q-6 -7 -6 -33q0 -14 10 -41q-2 -14 -2 -26q4 -7 13 -26q1 -5 -4 -32t-5 -35q0 -28 6 -75
q4 2 13 11q6 -4 6 -18zM284 683v17h-6v-17h6zM658 423q0 18 -11 42q-3 -8 -12 -29q-1 9 -9 49q-6 31 -6 49q0 15 3 25l-3.5 7t-4.5 8q0 15 -6 26q-3 6 -19 25l-82 31q-1 8 -5 26h-17q0 -13 -13 -22l-9 17q-5 9 -21 9q-46 0 -60 -9q-26 -17 -128 -33l-74 -22q-5 -9 -26 -31
q-36 -26 -36 -43q0 -3 1 -33q1 -25 0 -44q-1 -39 -7 -116q-3 -27 -9 -44q-2 0 -15 11q0 -5 -2 -14t-2 -14q0 -28 12 -51q6 -7 12 -19q0 -10 2 -66l7 -29q-6 -21 -5 -22q3 -25 17 -74q6 -13 20.5 -26t27.5 -15q38 -7 48 -40q29 -9 40 -9q4 0 11.5 3t11.5 3q29 2 54 1l48 -2
q4 0 11.5 3t11.5 3q15 0 32 -5q18 -9 19 -9q5 0 12 5.5t10 5.5q5 0 15 -4t14 -4q16 0 23 9q2 6 7 24q6 -9 16 -18q-2 8 2.5 20.5t11.5 15.5q1 0 11 2q19 16 22 33l24 140q1 7 10 32q8 22 8 29q0 3 -6 35q-2 13 -2 18v115q0 4 7.5 12.5t7.5 12.5zM357 -83l-2 6l-9 -5v-5z
M334 -84l-25 4l17 -17q0 5 8 13z" />
    <glyph glyph-name="one" unicode="1" 
d="M201 458h-7v29h7v-29zM383 -3q2 -62 2 -54q0 -83 -66 -83q-25 0 -29 10q-8 19 -23 29q5 22 21 47q-1 3 -1 14q14 23 14 38v251q0 1 -6 33q-2 12 -2 17v164q0 14 -16 52q-8 10 -21 32q14 5 31 24.5t17 32.5q0 11 -10.5 30t-20.5 19q-6 0 -25 -17q0 6 11 -19
q-31 -4 -75 -41l-47 -24q-21 16 -32 16q-4 0 -6 -1l-10 20q-6 13 -6 19q0 29 18 47q10 11 43 31q7 7 26 24q31 24 103 24q59 0 83 -20.5t24 -77.5q0 -9 -3 -54q0 -7 -6 -58q-4 -35 -3 -57z" />
    <glyph glyph-name="two" unicode="2" 
d="M597 371h-5v16h5v-16zM726 372q0 -19 -4 -37q-1 -6 -21 -51q-4 -10 -16 -34q-4 -8 -22 -16q-14 -10 -37 -24l-209 -29q-1 0 -4 1t-5 2h-4q-11 -2 -69 -15q-2 -4 -11 -15q-9 -4 -30 -23q-4 -7 -4 -33q-4 1 -4 13q-1 0 -5 2q1 0 -5 1q-5 -8 -5 -30q0 -21 1 -22
q3 -10 24 -34.5t29 -24.5q-2 0 4 1q1 2 4 2q15 0 22 -7q6 -10 12 -10q29 0 19 2q22 -5 14 -5q5 0 5.5 2.5t4 4.5t25.5 2q3 0 6.5 -4.5t6.5 -4.5q1 0 6 3t9 3q14 0 41 1.5t41 1.5q2 0 16 -11q4 4 4 8q27 -6 28 -6q5 0 7 3t6 3q5 0 17.5 -3t17.5 -3q7 0 20.5 3t20.5 3l24 -15
q-2 -17 -20 -23q6 -2 11 -3q6 -9 12 -17q-16 -15 -24 -15q-5 0 -18 7t-17 7t-9 -3t-8 -3q-12 0 -23.5 7t-15.5 7q-2 -1 -8 -6t-10 -5t-8.5 4t-8.5 4t-10 -4t-10 -4t-8.5 4t-9.5 4q-13 0 -40 -5.5t-40 -5.5q-4 0 -9 3t-8 3q-6 0 -19 -3t-19 -3q-23 0 -32 4q-5 4 -20 15
q-25 12 -33 12t-16 -4q12 -12 12 -23q0 -12 -16 -12q-58 0 -58 46q0 14 9 26q6 0 16 6q-8 105 10 187q13 7 32 31q1 5 10 21q7 7 23 7q1 0 6.5 -2.5t9.5 -2.5q3 0 9 4t9 4q1 0 10 -2.5t11 -2.5q3 0 10 4q11 0 34 3t34 3q36 0 94 9q0 -11 8 -19q6 4 30 4q20 1 33 15q0 7 1 13
q4 16 19 16q6 0 4 -1.5t2 -1.5q3 0 7 7q0 6 2 28q2 4 7 15q-1 7 -1 27q10 1 10 27q0 11 -4 50q-4 4 -9 16q-2 9 1 17q-19 40 -88 57q-2 8 -11 13q-5 -2 -5 -13q-3 -4 -8 -4q-6 0 -22 14q-1 -1 -11 -7.5t-13 -6.5h-19q-1 0 -12 5.5t-15 5.5q-5 0 -19 -5.5t-18 -5.5t-5 1t-3 2
h-4q-8 0 -37.5 -13t-39.5 -19q-47 -31 -44 -103q-8 -17 -16 -45q-7 -12 -26 -12q-9 0 -11 1q-3 5 -10.5 13.5t-12 13t-4.5 20.5q0 32 26 120q4 3 16 15l19 33l34 12q2 0 4 -1t4 -1q3 0 12.5 7.5t12.5 7.5q60 0 111 2q31 1 39 2q26 0 77 -7q56 -8 93 -25q15 -7 25 -19
q8 -18 16 -34q4 -2 25 -17v-19q-1 2 -5.5 9t-7.5 13q-7 -6 -7 -16q0 -11 7 -39t8 -39q11 -11 11 -17zM432 213l-7 8l-7 -7q1 -1 14 -1zM576 -49v5h-8v-5h8z" />
    <glyph glyph-name="three" unicode="3" 
d="M584 597h-15v6h15v-6zM623 526q0 -13 -18 -21q-4 23 -4 87q16 -8 18 -17q4 -17 4 -49zM551 597h-34v6h34v-6zM480 597h-12v6h12v-6zM789 198q0 -79 -15 -118q-9 -9 -27 -36q-18 -37 -76 -50q-6 -1 -28.5 -10t-25.5 -9q-87 0 -93 -1q-2 0 -11 -4t-15 -4q-3 0 -12.5 3
t-13.5 3t-17 -5t-18 -5h-83q-3 0 -12 5t-13 5q-2 0 -9 -3t-12 -3q-3 0 -57 36q3 18 -19 27q-8 43 -8 72q14 14 31 14l39 -15q16 -26 34 -37q13 -9 47 -20q28 -9 36 -9q3 0 6 3q0 3 5 3q13 0 49 -7q-2 -9 -10 -17q5 -1 12 -3q3 -5 16 -18q8 5 8 12q0 4 -7 18q0 6 8 11l94 14
q4 0 27 -23q16 0 40 24l37 37t2 17q0 14 -1 17.5t-11.5 17t-10.5 17.5q0 2 6 10t6 11q1 14 2 49q3 3 8 10q4 11 -5 25l8 2l-6 3q-1 3 3 19q2 2 0 5q-1 14 -18 27q-7 3 -25 9l-9 6q-9 6 -14 6t-90 -8q-7 0 -21 -6t-18 -6q-39 0 -44 48q13 7 23 8q1 1 9 18q7 14 12 14
q4 0 6 -3t7 -3h37q4 0 13.5 4.5t12.5 4.5q8 0 24 -3t24 -3q53 0 53 39q0 16 -9 40q-2 5 0 13q-3 11 -3 16q0 7 5.5 9t5.5 3l-4 3q-4 15 -1 41l4 24q3 16 0 24q-3 9 -34 47q-7 0 -10.5 1t-19.5 15q-8 7 -17 7q-6 0 -23 -4q-22 -4 -26 -5q-64 0 -109.5 -5t-91.5 -23
q-30 -12 -58 -35q-2 -2 -16.5 -25t-31.5 -23q-4 0 -12.5 2t-12.5 2q-1 5 -9 22t-8 21q0 7 13.5 31t20.5 32q26 30 61 41q60 18 105 18h204q44 0 95 -35q23 -15 38 -34q6 -13 15 -36q16 -28 16 -100q0 -54 -15 -144q-3 -17 2 -33q-19 -6 -19 -22q0 -11 30 -16q5 -5 11 -17
q4 -28 10 -50q4 -14 4 -50z" />
    <glyph glyph-name="four" unicode="4" 
d="M584 174q0 -18 -10 -25l-28 -10q-8 -2 -14.5 -16t-8 -15.5t-6.5 -1.5q-7 0 -18 11q-4 -4 -4 -7q0 -9 13 -24t21 -17q-10 -25 -19 -44h-9q-4 3 -4 14q-1 1 -3 2t-3 2q-2 -1 -14 -13q-1 5 -2 6.5t-1 6.5q0 4 6.5 10.5t6.5 9.5q0 6 -21 40q1 0 4 1t7 2h5q0 18 -3 28l21 11
l6 -2l2 2v7q-43 13 -46 14q-3 0 -8.5 -3.5t-8.5 -3.5q-2 0 -15 3.5t-18 3.5l-259 -26q-12 0 -19 11q-16 25 -16 31q0 3 4.5 11t4.5 9t-3.5 6.5t-3.5 8.5q0 8 11 19q-11 8 -11 15q0 3 9 21l10 5q0 1 11 20q9 5 27 23q26 40 38 38q3 8 8 25q6 3 18 14q2 3 16 27q12 10 25 22
q4 9 10 18q46 50 70 74q1 4 5 13q12 17 62 65q6 6 6 18l5 2t8 2q21 0 46 -8q33 -11 32 -28q-6 -6 -10 -6t-4.5 1t-3.5 1q-26 0 -40 -13q-17 -15 -56 -62q-29 -35 -45 -47q-2 -6 -15 -29q-9 -6 -27 -24q-7 -14 -14 -25q-2 0 -8 -2q-27 -34 -41 -54q0 -5 -4 -13
q-21 -19 -48 -55q-3 -4 -3 -17q0 -17 6 -29q5 -3 17 -13q3 -5 15 -17q14 -6 21 -8q10 0 14 4l-13 13q6 3 10 3.5t10 2.5q4 -13 19 -13q3 0 10 4t10 4q6 0 13 -7q1 -1 27 -1q11 0 32.5 4t32.5 4q2 0 8 -4t9 -4q2 0 2.5 1.5t3.5 1.5q2 0 6 -4t9 -8t24 -4q26 0 27 12
q-1 11 -6 27q9 9 13 11q57 -34 57 -63z" />
    <glyph glyph-name="five" unicode="5" 
d="M526 575q-4 -2 -7 -2q-4 0 -8 2q0 9 10 18q5 -5 5 -18zM470 592q-3 -6 -14 -18q0 17 -3 18h17zM704 323h-6v14h6v-14zM440 592l-10 -10q-4 6 -11 10h21zM719 278h-6v25h6v-25zM404 593q4 0 2 -6q-1 -5 -8 -5q2 0 -63 13q20 -2 69 -2zM744 674q0 -28 -43 -28q-4 0 -21 8.5
t-24 8.5q-34 2 -196 2q-35 0 -75 -2q-7 0 -24 -5t-23 -5q-5 0 -13 8q-13 -10 -40 -37q-5 -1 -22 -1q-5 0 -15 2t-15 2q-30 0 -30 -79q0 -35 1 -39q6 -25 31 -51q4 6 11 13q34 -2 76 -2q43 0 93 2q9 6 40 6q44 0 152 -17q12 -2 50 -26q42 -26 42 -38v-28q-1 0 -4 -2t-7 -2
q-3 0 -44 17t-44 17q-5 0 -14 -2t-14 -2q-2 10 -10 22l-4 -3q2 6 2 -18q-5 -5 -17 -5q-8 0 -23 15q-4 -1 -15 -10t-16 -9q-13 0 -38 4t-38 4q-2 0 -16 -5.5t-21 -5.5q-1 0 -5 1h-6q-5 2 -12 2q-18 0 -87 -23q-23 -8 -40 -32q-1 -3 -30 -48q-18 -28 -23 -28q-18 0 -26 23
q-6 0 -13 -16q-28 31 -28 89q0 4 4 14.5t4 15.5q-5 99 -9 163q-4 54 -4 43q0 4 5 12t5 11q1 20 0 53l-2 53q14 8 39 15q68 5 109 5q106 0 121 -1q14 -7 28 -7q9 0 25.5 3.5t25.5 3.5q64 0 118 -1l79 -2q33 0 75 -20q-4 -4 -3 -15q2 -1 6 -4.5t6 -5.5q6 -6 6 -13zM345 545
q-9 0 -14 5q3 1 9 5q5 -8 5 -10zM614 135h-7v10h7v-10zM771 56q0 3 -6 -44q0 -3 -11 -11.5t-13 -11.5q-1 -6 -10 -34q-14 -23 -40 -45q-1 0 -19 -2q-9 -4 -15 -17q-6 0 -17.5 -4t-17.5 -4h-4l-6 2t-11 1q-2 0 -18 -5.5t-21 -5.5q-10 0 -31 4t-31 4q3 0 -27 -2l-28 -2
q-19 0 -30 11q-11 -11 -17 -11t-20 3q-18 4 -21 4t-7.5 -5.5t-9.5 -5.5q-10 0 -15 11q-4 -8 -14 -17q-32 -13 -46 -13q5 0 -68 16q-25 6 -42 30q-1 9 -11 27q5 19 1 37q-3 2 -13 9.5l-18 13.5q-5 25 -5 44t8 34q9 19 26 19q8 0 14 -2q18 -14 33 -29q1 -4 17 -49
q14 -27 47.5 -47t64.5 -20q-4 0 9 0.5t35 1.5q42 1 63 0q5 0 15 -3t16 -3q-2 0 24 7q6 1 10 1q-3 0 60 -9q4 -1 15 -14q18 1 59 16q53 39 80 85q14 24 18 55q6 48 8 55q0 -43 11 -57q16 23 17 42zM58 293h-7v21h7v-21z" />
    <glyph glyph-name="six" unicode="6" 
d="M601 519q-8 -2 -37 6q-6 0 -19 -5q11 -11 11 -17h-63q0 2 1 4t2 5v4q0 5 -17 19q-10 -1 -59 2q-1 1 -7 -5q16 -6 49 -15q0 -5 8 -13q-31 -9 -102 -9q-9 0 -13 12q-10 -12 -22 -12q-8 0 -27.5 17t-19.5 25q0 26 29 46q26 18 53 18q4 0 7 -2t7 -2t9 5.5t9 5.5q11 0 30 -4
q23 -4 31 -5l6 -6q3 -4 31 -6t31 -2q0 -13 -10 -20l32 -11q2 -5 12 -17q12 -2 19 -3q14 -4 19 -15zM827 135q0 -150 -95 -228l-49 -18q-4 -1 -16.5 -11t-14 -10t-22.5 -1q-26 0 -53 -1l-73 -2q-5 0 -17 5.5t-17 5.5q-36 0 -99 -10q-12 3 -42 1q-4 -2 -9 -9.5t-10 -7.5t-16 8
l-19 13q-9 1 -30 3l-38 33q-5 13 -18 32q-16 6 -38 25q-1 2 -1 7q0 6 5 18t5 17q0 4 -5 9q-2 0 -6 -3.5t-6 -3.5q6 42 6 88q0 47 -5 189l-5 121q0 98 3 128q7 71 33 100q-1 7 -1 26q26 34 56 79q32 6 102 18q5 0 20.5 10.5t19.5 10.5q13 0 47 -3l47 -4q28 0 40 9q8 6 13 6
t10 -4t6 -4q11 11 11 15q44 -16 81 -31q14 -8 43 -34q38 -35 46 -41q1 -7 3 -24q3 -24 3 -22q0 -28 -23 -28q-3 0 -21 18q-2 1 -4 3q-20 13 -67 34q-30 9 -113 9q-63 0 -116 -9q-14 -7 -52 -20q-49 -14 -66 -38q-3 -3 -15 -55.5t-12 -61.5q0 -48 18 -125q14 2 39 12l43 43
q45 9 62 9q4 0 11 -3.5t11 -3.5q5 0 13 3t12 3q28 2 89 -1q35 -2 83 0q6 6 10 6q7 0 8.5 -3t5.5 -7q9 -1 30 -6q3 -4 19 -17q18 -1 57 -17q38 -31 63 -116q20 -69 20 -134zM43 327h-7v25h7v-25zM43 229h-7l-4 25h7zM43 71h-7v29h7v-29zM526 515q0 9 -1.5 13.5t-12.5 8.5v-22
h14zM707 44q0 11 -14 36q7 17 7 40q0 14 -3 49q-2 32 -1 50q2 35 -30 73l-9 15q-6 10 -17.5 14.5l-22.5 8.5q-18 8 -21 8q-155 0 -218 -9q-26 -4 -99 -31q-12 -4 -33 -37q-13 -20 -13 -96q0 -82 9 -112q11 -35 48 -67q15 -13 40 -17q18 -1 40 -5l28.5 -5t15.5 -3.5t1 -1.5
q13 0 39.5 1t39.5 1q3 0 10 -3t11 -3q6 0 22 6t23 6q4 0 13 -2t13 -2q21 0 67 10q6 1 20 4t17 14q14 51 17 58zM406 -120q-13 13 -22 13v-17zM332 -111l-5 1l-5 -9l5 -2zM658 95q0 -5 -14.5 -24t-16.5 -25q-8 0 -27 -8.5t-21 -8.5q-6 0 -8.5 1t-4.5 2h-3q-10 -6 -14 -6
t-11.5 3.5t-13.5 3.5q-5 0 -10.5 -3.5t-11.5 -3.5q-22 0 -55 13q26 -1 73 2q5 0 29 13h8q5 -2 8 -2q3 7 15 32q7 3 13 12q8 18 8 33q0 19 -13 49q-22 50 -23 55q-4 0 -8.5 -2t-7.5 -2q-5 0 -15 4.5t-14 4.5q-36 2 -133 2q-31 0 -61 -13q-2 -1 -28 -20q-1 -24 -16 -34
q2 -4 6 -29q0 -19 5 -31q-2 -2 -7 -4.5t-6 -3.5q-6 14 -6 33q0 44 5 69q2 5 30 44q5 0 13 -8q1 0 6.5 6.5t7.5 7.5q136 17 215 17q4 0 7 -4t8 -4q3 0 7.5 2t7.5 2q21 0 32 -6.5t27 -24.5q18 -21 18 -31v-113zM439 35h-40v7h40v-7zM319 54q-9 -9 -14 -9q-4 12 -4 14
q2 0 9 -2.5t9 -2.5z" />
    <glyph glyph-name="seven" unicode="7" 
d="M679 692q-4 -2 -13.5 -11.5t-15.5 -9.5q-60 0 -97 4v-21h-38q-5 0 -17.5 10.5t-16.5 10.5t-13.5 -10.5t-13.5 -10.5q-7 0 -21.5 4t-22.5 4q-15 0 -45.5 -2.5t-45.5 -2.5h-117q-11 0 -41 -10t-34 -10q-23 0 -39.5 13.5t-16.5 36.5q0 17 16 17q11 0 32.5 -4t32.5 -4
q5 0 8.5 4t8.5 4q-1 0 28 -6q7 -2 13 -2q7 7 7 10q0 9 -16 31q-12 -4 -14 -20l-6 -2.5t-12 -2.5t-18 9t-13 9q0 12 9 18q92 19 86 19q1 0 37 -6q16 -2 28 -2q33 0 117 -11q6 -1 26 -6t26 -5q4 0 7.5 2.5t8.5 2.5q57 0 149 -19q5 -2 47 -16v-15zM496 539q-18 -18 -27 -22
l-9 9t-12 7q-4 0 -5 -2t-6 -2q-1 0 -31 20q-9 5 -14 7q10 0 30 3t30 3q21 0 44 -23zM358 552h-28v8h28v-8zM529 477l-41 -60q-1 -1 -7 -28q-27 -11 -43 -30q-5 -21 -17 -40q-5 0 -9 4q3 8 13 18q0 6 -8 6q17 17 36 60q6 21 20 63q18 51 31 51q11 0 18 -15.5t7 -28.5zM89 713
h-7v11h7v-11zM783 558q0 -23 -24 -68l-37 -68q-2 -11 -7 -25q-50 -82 -79 -142q-8 -6 -14 -12q-3 -9 -14 -32l-6 -14q-4 -4 -26 -30q0 -2 -7 -29q-17 -22 -81 -112q0 -3 -7 -25l-90 -146h-20q1 11 12 49q9 32 9 38q0 10 -3 12q-8 -2 -21.5 -23.5t-18.5 -25.5q-12 -5 -32 -16
q0 -9 -1 -13q0 -10 13 -20q-2 0 -4 -3t-8 -3q-21 0 -32 20q-10 16 -10 38q22 13 44 33q1 10 30 58q5 17 15 42q29 43 62 116q61 88 114 175q15 25 38 75l6.5 22.5t7.5 23.5q9 26 26 49l35 22q1 9 2 33q2 2 10 12q5 28 7 31q5 11 29 29q-2 -7 -4 -26q8 -9 18 -28q18 29 18 46
t-14 42q-9 15 -27 28h22q2 0 34 -9q17 -5 21 -17q14 -44 14 -107zM393 270l-5 -16l-6 2l5 14h6zM262 697q0 5 -10 15q-13 -6 -22 -5q9 -20 20 -20q7 0 8.5 3zM572 246v28h-7v-28h7z" />
    <glyph glyph-name="eight" unicode="8" 
d="M850 102q0 -16 -13 -67q-12 -47 -17 -59q-10 -8 -23 -25q-1 -8 -6 -22q-10 -12 -42 -27l-24 -22q-21 -19 -34 -19h-244q2 7 -3 18q-3 -1 -9 -7q-5 0 -19 14q-3 -3 -6 -4.5t-6 -4.5q6 -8 6 -16h-115q-4 0 -18.5 5t-19.5 5q-6 0 -13 -7q-6 11 -15 26q-6 0 -14 -8
q-2 24 -28 37q-14 34 -29 90q1 -6 1 43q0 11 -15 21q-1 5 -1 23q0 1 3.5 1.5t3.5 3.5q0 5 -6 15v5q19 19 19 88q0 3 -3.5 14t-1.5 19q10 21 10 40q0 13 -7 26q-9 17 -17 54q-15 73 -15 108q0 7 17 21l-17 29q6 17 22 58q7 16 36 56q7 10 39 22l18 2q3 3 11 8q104 30 202 30
q8 0 30 -7t31 -7q3 0 5 2t6 2q11 0 81 -15q83 -18 132 -37q15 -6 35 -30t25 -41l20 -52q10 -26 10 -59q0 -2 -14 -76l-14 -76q0 -21 4 -37q3 -5 8 -18q34 -99 34 -143zM72 390l-2 -6l-12 5v5zM85 367q6 -18 -1 -31q-9 17 -9 23q0 8 10 8zM76 286h-6v17h6v-17zM78 262
q-7 -9 -17 -4q0 11 12 17q5 -5 5 -13zM62 208h-6v27h6v-27zM57 61l-2 -5l-12 4v5zM67 16h-9v7h9v-7zM764 547q-1 5 -20 35l-5 -24q6 -4 16 -15q3 2 9 4zM605 622v17h-6v-17h6zM579 648q-1 1 -29 1q7 -5 24 -20q0 14 5 19zM407 634q-3 4 -8 5q-2 0 -4 -6q0 -5 3 -8zM721 455
q0 19 -5 54q-3 22 -25 57q1 9 -6 22q-35 6 -46 9q-34 9 -38 21q0 -10 -3 -15h-13q-4 6 -12 15q-11 -7 -25 -7q-16 0 -47 1.5t-47 1.5q-12 0 -18 6v14q5 5 25 15h-46l6 -12q1 -3 -4 -12q-52 -12 -67 -16q-41 -11 -63 -24.5t-47 -64.5q0 -3 -2 -21q-9 -18 -9 -24
q0 -3 2.5 -10.5t2.5 -9.5q4 -51 17 -74q8 -14 29 -36q25 -24 36 -24q3 0 7 2q1 2 6 2q6 0 23.5 -5.5t22.5 -5.5q9 0 27.5 5.5t27.5 5.5q5 0 14 -3.5t13 -3.5q10 0 31 2t32 2h19h11q6 -1 7 -1q41 0 102 8q13 2 43 26q14 11 14 23t2.5 38t2.5 39zM746 34q0 -6 -14 39q3 1 9 4
q-1 4 2 14.5t3 13.5q0 18 -26 87q-5 3 -16 14q2 6 -6 20t-14 14l-84 6q-11 1 -33 -3t-31 -4l-20 1q-25 0 -52 1l-73 2q-4 0 -11.5 -5.5t-13.5 -5.5q-3 0 -10.5 2t-10.5 2q-20 0 -30 -5q-49 -24 -64 -46.5t-15 -61.5q0 -160 116 -167q13 -1 24 -4q1 0 10 -4.5t14 -4.5
q6 0 13 3.5t12 3.5q8 0 24.5 -5.5t23.5 -5.5q7 2 22 10q2 1 30 1q9 0 28.5 -2t28.5 -2q21 0 63 5q4 2 21 8q31 5 43 17q5 14 13 32q1 3 12.5 12t11.5 14zM179 392l-5 5l-3 -3l5 -6zM378 -112v6h-10v-6h10zM282 -84q-8 16 -8 19q-2 -2 -7.5 -7t-9.5 -9q10 -5 17 -5q5 0 8 2z
M682 455l-12 -36q-9 -4 -22 -25q-30 -15 -39 -15q-1 0 -11.5 2.5t-13.5 2.5q-52 0 -155 5q-7 0 -20 -3q-17 -4 -20 -4q-34 0 -88 16q-30 42 -30 57q0 21 8 45q10 29 26 34q35 12 122 12q6 0 83 -8l85 -9q2 0 16.5 5.5t21.5 5.5q7 4 7 10q12 -12 21 -16q-4 -7 -18 -15
q3 -1 9 -6q9 -28 25 -36q4 -21 5 -22zM693 132q0 6 -1 -8q-2 -17 -4 -48q-6 -6 -25 -36q-9 -14 -54 -21q-40 -6 -91 -5l-138 4q-16 0 -54 12q-5 5 -22 17q0 4 2 9.5t2 7.5q9 0 11 -8q11 -13 24 -15l27 -3q3 -2 7 -4q9 -5 10 -5q5 0 6 3.5t5 3.5t15 -11q2 2 9 7q4 4 10 4
q5 0 7.5 -5.5t6.5 -5.5t18.5 5.5t19.5 5.5q4 0 9 -5.5t9 -5.5t11.5 4.5t9.5 4.5l54 6q52 12 52 40q0 6 -28 58q-6 2 -35 8q-55 2 -72 3q-12 1 -19 1q-2 0 -32 -6t-42 -8q2 14 -14 14q-3 -1 -9 -6q-18 1 -40 1t-34 -19q-3 -6 -2 -19q1 -14 1 -19v-20h-17v63q9 6 26 35
q8 2 21 3q3 3 11 8q12 2 33 2q33 0 39 -11q11 11 15 10h181q9 11 17 11q3 0 14.5 -9.5l17.5 -14.5t24 -5q0 -3 4 -13t4 -15zM568 478q-15 14 -39 19q-12 2 -34 7q-53 17 -79 17q-47 0 -112 -36v-13q4 -2 14 -10l-9 -12q-5 -10 -5 -14q0 -9 8 -25q4 1 14 7.5t15 6.5
q7 0 46 -5l47 -6q-2 0 39 8q1 0 10 6t12 6q11 0 32.5 1t32.5 1q1 13 8 42z" />
    <glyph glyph-name="nine" unicode="9" 
d="M730 233q0 -93 -3 -122q-7 -66 -34 -102q2 -14 2 -26l-55 -78q-43 -8 -101 -17q-5 -2 -19.5 -11.5t-19.5 -9.5q-13 0 -46 3l-47 4q-24 0 -26 -1q-21 -14 -25 -14q-5 0 -10 4t-6 4q-11 -11 -11 -15q-23 8 -80 31q-11 5 -41 32q-40 36 -48 42q0 7 -2 22.5t-2 22.5
q0 28 22 28q3 0 25 -22q21 -12 66 -33q24 -8 111 -8q71 0 114 8q28 12 52 20q40 8 64 38q27 95 27 115q0 14 -17 122q-15 -1 -39 -12l-17.5 -17l-25.5 -25q-54 -9 -60 -9q-5 0 -12 4t-11 4q-9 0 -23 -7q-27 -1 -89 2q-18 1 -78 1q-1 0 -4.5 -3.5t-8.5 -3.5q-6 0 -8.5 3
t-5.5 7q-9 0 -30 6q-2 2 -18 16q-19 1 -56 17q-42 35 -64 114q-18 65 -18 133q0 148 93 224q3 3 49 17q6 8 26 20q90 6 150 6q3 0 16 -6t18 -6q2 0 11 2.5t13.5 2.5t58.5 2q27 1 42.5 1t21.5 9t10 9q5 0 15 -7t19 -14q11 -1 30 -3l34 -28q3 -2 10.5 -16.5t11.5 -19.5
q17 -6 36 -24q2 -9 -3 -23.5t-5 -18.5q0 -6 4 -9q2 0 6 3.5t6 3.5q-6 -43 -6 -86q0 -64 5.5 -192.5t5.5 -113.5zM585 104q0 -28 -30 -47q-25 -16 -51 -16q-6 0 -7 2l-6 1q-5 0 -9.5 -5.5t-9.5 -5.5q13 0 -127 23q-1 15 11 20l-33 11q1 6 -11 15q-6 2 -19.5 5t-18.5 14
q6 6 14 3l9 -4.5t14 -4.5q7 0 19 6q-11 11 -11 15h62q-1 -5 -1 -4q-2 -2 -2 -8q0 -7 7 -13.5t15 -6.5q50 0 52 -1q1 0 7 6q-20 7 -48 14q0 6 -7 13q35 8 100 8q6 0 7 -2t3 -4.5t3 -4.5q11 11 22 11q8 0 27 -16t19 -24zM549 750l-5 2l-5 -9l5 -3zM488 737v18h-17q-1 -4 -1 -7
t1 -6q17 -4 17 -5zM637 470q0 78 -9 110q-11 38 -47 66q-22 17 -79 21q-30 8 -45 8h-77q-3 0 -10 3t-11 3q-6 0 -23 -5.5t-21 -5.5t-13 2t-13 2q-34 0 -85 -15q-16 -5 -18 -12q-16 -48 -16 -58q0 -17 14 -39q-7 -17 -7 -39q0 -9 3 -40q2 -19 0 -54q-2 -31 30 -72
q7 -13 25 -29q3 -1 23 -9q17 -7 22 -7h118q45 0 97 8q14 2 96 30q11 4 33 37q13 20 13 95zM362 125h-13q0 -14 7 -21q6 9 6 21zM570 584q0 -2 -5 -10q-1 0 -6 2t-7 2q4 7 4 10q2 0 7 -2t7 -2zM470 591h-36v7h36v-7zM596 496q0 -41 -5 -68q-3 -9 -29 -43q-5 0 -13 8
q-2 -1 -5 -4.5l-8 -9.5q-129 -16 -212 -16q-5 0 -7.5 3.5t-7.5 3.5h-4q-2 -1 -3.5 -2t-7.5 -1q-24 0 -30 4q-10 7 -28 27.5t-18 29.5v110q0 4 13 21q6 8 18 28q62 20 77 20q5 0 12 -3.5t12 -3.5t10.5 3.5t11.5 3.5q21 0 54 -13q-40 1 -72 -3q-9 -1 -29 -12q-1 -1 -7.5 1
t-7.5 2q-7 -17 -23 -40q-13 -19 -13 -37q0 -16 12 -45l24 -57q6 0 9 2t7 2t16 -5.5t15 -5.5h128q33 0 60 12q6 4 28 21q0 16 16 32q-4 10 -6.5 31t-4.5 29q2 2 7 4.5t6 3.5q5 -15 5 -33z" />
    <glyph glyph-name="colon" unicode=":" 
d="M4329 307q-19 -19 -69 -19q-6 -10 -6 -26q0 -9 2 -26t2 -26t-1 -12q-55 -43 -119 -43q-47 0 -66 5q-52 13 -68 61q-24 -16 -133 -51q1 5 1 15q0 38 -36 47q-8 2 -47 2q-49 0 -59 -6q-27 -16 -35 -84q-22 -3 -63 24l-32 -25h-71q-14 37 -49 104q-62 -65 -99 -65
q-17 0 -34 19l-26 33q-13 -7 -26 -30q-16 -28 -23 -35q-10 -1 -36 -1q-18 0 -54.5 1t-54.5 1q-90 0 -121 -28q-3 3 -3 10q0 10 5.5 29.5t5.5 29.5q2 2 2 4q0 6 -23 6q-16 0 -16 -13v0q0 -13 -17 -13h-76q-14 45 -15 47q-11 31 -23 40q-14 2 -55 17q-37 14 -54 14
q-13 0 -52 -19.5t-54 -19.5q-19 0 -29 8q-12 12 -17 18l-33 -34q17 -30 47 -41q15 -6 56 -11q37 -4 55 -14q-38 0 -115 -9t-115 -9q-12 0 -48.5 16t-56.5 16q84 0 139 30q2 9 -18 23l-30 22q-10 10 -17 44t-13 43q-32 16 -55 16q-24 0 -34 -7q-11 -21 -37 -59q-11 3 -34 19
q19 28 64.5 57.5t60.5 29.5q13 0 40 -20t39 -20q24 0 24 10q0 2 -1 6.5t-1 6.5h50l-52 -43q33 -33 57 -33q13 13 32 48q23 42 33 57q10 0 33 -26t36 -26q11 0 107 26q6 -6 6 -11q0 -3 -15 -20q7 -2 81 0q50 1 73 -22q19 0 19 39h60q6 -4 12 -26q7 -25 14 -39q9 4 35 37
q23 29 42 29q16 0 55 -20l54 -29q34 -17 134 -17q17 0 27 13t18 27q52 -26 68 -66q18 32 118 66q15 0 70 -26.5t68 -26.5q99 0 146 11q0 5 1.5 28t2.5 42t16 37q0 -4 5 -22.5t5 -27.5q0 -11 -5 -21q7 -7 26 -10q34 -5 57 -11q6 6 6 16t-4 30.5t-4 31.5q47 -8 125 -30
q13 -4 38 -33q28 -32 41 -38q33 -16 77 -16q17 0 27 1q13 1 18 0q9 -2 14 -7zM2815 217q-7 -16 -35 -36l-36 -26q-7 3 -33 22q20 4 40.5 24.5t34.5 20.5q11 0 29 -5zM2249 277l-33 -30q-32 34 -32 60q0 16 7.5 29.5t7.5 14.5q35 0 50 -16v-58zM2145 359q-32 -28 -77 -64
q-56 -45 -77 -74q2 23 -23 54q-21 25 -45 41v62q27 -7 66 -24q35 -15 50 -15q18 0 37 14.5t36 25.5q9 -3 33 -20zM1867 209h-122q-12 0 -21.5 12.5t-26.5 12.5q-24 0 -52 -27l-48 -48q-12 -3 -82 -33q-54 -23 -74 -23q-38 0 -57 10q-31 16 -64 69q-50 -27 -70 -27
q-16 0 -43.5 13.5t-42.5 13.5q-14 0 -57 -26.5t-61 -26.5q-16 0 -16 13v0q0 13 -17 13q-14 0 -36 -13t-36 -13q-16 0 -73 33t-72 33q-8 0 -38 -20t-54 -20q-12 0 -32.5 6.5t-33.5 6.5q-29 0 -55 -26q-1 6 -1 17q0 14 8 40.5t8 37.5q0 30 -45 55q17 33 82 51.5t80 58.5
q11 15 46 15q17 -78 55 -78q45 0 137 92q20 -15 32 -15q0 -20 -38 -49q92 -14 106 -14q13 0 29.5 19.5t29.5 19.5q33 0 98.5 -13t98.5 -13q20 0 33 8q5 6 17 18q13 0 33 -21q17 -18 24 -32q13 7 33 26.5t32 26.5q19 -19 41 -119q40 19 40 59q0 6 -19 78q-1 2 -2 6
q30 0 45 15l39 -78q21 -41 55 -67h61q22 25 22 39q0 8 -9 18q-13 14 -16 21h74q27 -40 55 -155zM223 303h-90q0 10 12 33q10 20 19 30l30 -27q22 -20 29 -36zM65 308l-21 -11l-10 22l22 10zM3603 183q0 36 -15 51q-15 0 -49 -34zM3228 236v49h-23v-49h23zM3144 324h-63v-62
q33 0 63 62zM2965 268l-19 7l-17 -34l19 -8zM1566 201q-7 7 -15.5 23t-15.5 23q-9 0 -22 -19t-13 -29q9 -9 29 -9q24 0 37 11zM1197 251q0 10 -10 17q-3 3 -9.5 9t-10.5 9h-72l-8 -31q37 -34 71 -34q20 0 27 10.5t12 19.5z" />
    <glyph glyph-name="semicolon" unicode=";" 
d="M1176 314q-20 11 -25 11t-12.5 -5.5t-12.5 -5.5q-2 0 -8 2t-10 2q-8 0 -15 -7q-1 4 1.5 13t2.5 12q0 8 -12 15q4 8 23.5 14t23.5 20q5 -2 11.5 -11.5t12.5 -9.5q3 0 20 14v-64zM996 354h-24q0 9 8 17q6 -4 16 -17zM954 355l-6 -3l-3 6l6 3zM830 803q-33 -48 -59 -80
q-146 -178 -202 -265q-7 -7 -38 -32t-31 -35v-21q6 -6 12 -6q4 0 8 5t8 5l27 -14q16 4 13 25q24 -4 84 -15q-3 -5 -28 -12q4 -10 15 -10q24 0 20 1v-4q-1 -4 -1 -8q-3 -8 -1 -13q42 -17 57 -17t26 11q4 -12 47 -17q-6 -12 -19 -12q-16 0 -63 3l-63 4q-81 0 -102 -10
q-7 9 -12 21t-13 22l-5 -4t-11 -6q-2 -2 -32 -6q-2 -1 -12 -9t-15 -8q-24 0 -42 5q-2 7 -7 29q-4 16 -4 25q0 6 5.5 23t5.5 23q9 5 19 19q7 11 16 11q2 0 19 -14q13 6 13 19q0 5 -8 9t-17 9q67 93 98 115q1 3 3 13q32 0 44 18q10 14 11 47h22q-1 14 7 49q16 25 60 74
q7 3 15 5q17 0 27 -8q-9 -20 -18 -20q-4 0 -5 1.5t-5 1.5q-15 0 -32 -39q19 -21 28 -21q6 0 20 14q2 10 10 25q18 19 78 74h27zM901 356q-7 -11 -19 -24l-33 11q-4 -1 -24 -5l-3.5 -2.5t-6.5 -5.5v-14q21 -12 36 -12q11 0 38 13l2.5 -4t2.5 -9q0 -8 -12 -14q-7 -4 -13 -4
q-21 0 -63 7v29q-1 21 -24 21q-4 0 -7 -4t-9 -4t-17.5 2t-17.5 2v17h170zM723 339q-7 -1 -8 -1q-5 -2 -9 -2q-1 16 -14 19h4q8 0 17 1h10v-17zM989 11q-22 -74 -94 -129q-1 1 -7.5 7l-11.5 11l5 38q3 -3 6.5 -5t7.5 -5q6 5 7.5 11.5t2.5 15.5q6 6 19 25q4 6 13 36l7 -5
q4 -2 8 -5q11 6 33 21zM957 50q0 -4 -9 -15t-10 -15q-18 21 -28 21q-3 0 -15 -5q-8 -5 -50 -7q-12 0 -23.5 -1l-11.5 -1q-4 0 -17 7q-2 -2 -4 -5q1 -2 5 -9t4 -12v-20q-6 0 -11 2h-8q-5 1 -6 1q-12 0 -19 -7l-5 10t-10 8q1 0 -5 -1q-1 -2 -5 -2q-5 0 -17 7t-17 7
q-14 0 -51 -3l-52 -4q-7 0 -18 3q-15 4 -19 4t-9.5 -3.5t-8.5 -3.5l-9 9l59 12q4 0 13 -2t13 -2t14.5 5.5t14.5 5.5q8 0 26 -7q13 19 13 28q0 14 -18 14q-14 -2 -23 -2q-29 0 -73 4q5 0 15.5 4.5t14.5 4.5q5 0 13.5 -3.5t13.5 -3.5q19 0 57.5 2t57.5 2q43 0 96 -3
q24 -1 75 -6q9 -6 12 -6q4 0 9.5 3.5t9.5 3.5q8 0 16 -8v-11zM816 -83q0 -4 -6 -17q-19 -26 -41 -52q-26 -11 -27 -12q-13 -7 -20 -22q-3 3 -3 7q0 5 6 13q4 0 8 4q13 34 23 54q20 41 50 39q4 4 4 27q0 -7 3 -20.5t3 -20.5zM326 325l-4 -14h-16q-7 6 -1 12q-4 10 -17 10
q-7 -1 -21 -1q-8 8 -8 13q38 8 56 15q7 -21 11 -35zM13 500q0 -24 -5.5 -71t-5.5 -71l1 199q1 -7 5.5 -26.5t4.5 -30.5zM686 -121h-7v23h7v-23zM464 72l-8 -10q-8 8 -15 10h23zM525 71q-15 -1 -15 -19v-25q-25 -7 -49 -7q-16 0 -33 1q-12 0 -23 1l-11 1q-14 0 -23 -10
q-1 0 -6 2t-7 2v20q8 6 27 6l11.5 2.5t14.5 2.5q10 0 35 -7t34 -7q12 0 12 15q0 13 -6 23q-1 -1 39 -1zM53 322q-2 -1 -9 -8q-12 12 -12 14q0 9 12 22l9 -9v-19zM13 330q0 -13 -5 -37l-2 -11q-4 -18 -4 -26v95q0 -2 5.5 -9.5t5.5 -11.5zM16 25q0 -1 -4 -7t-4 -11
q0 -86 6 -195q-8 -8 -13 -8v429q-5 -19 13 -34q-10 -10 -10 -18q0 -77 8 -131q4 -26 4 -25zM759 29q-19 19 -32 19q-4 0 -7 -2l-3 -2q-4 -7 -4 -11q0 -5 4 -9q33 -10 42 5zM706 43q-10 8 -18 8q0 -9 8 -17q2 1 10 9z" />
    <glyph glyph-name="less" unicode="&#x3c;" 
d="M714 11q0 -13 -13 -24t-26 -11q-19 0 -35 19q-2 11 -8 37q-14 41 -134 173q-1 6 -6 17t-23 25q-4 4 -21 4q-20 0 -24 -4q-8 -8 -21 -29t-13 -29v-10q-7 0 -12 5q-3 -10 -26.5 -24t-30.5 -35q2 -12 2 -26q-8 -26 -20 -39q-1 14 0 42l-4 4q-5 -10 -8 -19q-6 -5 -22 -20v-11
q7 -7 14 -7q8 0 13 11q2 -17 -11 -35.5t-20 -30.5q-12 -7 -24 -19q-5 -5 -17 -5q-39 0 -39 39q0 13 15.5 38t26.5 27q3 -1 12 -8h8l5 5v7q-1 3 -15 9q20 27 83 118q67 96 67 106q0 17 -9 36l-19 20q-16 37 -101 153q-9 14 -33 46l-22 23t-18 26q0 4 7.5 12t12.5 8
q12 0 43 -12q-3 -10 -3 -21q0 -22 17 -22q4 0 11 9q18 -34 45 -76q10 -4 25 -18q1 -6 10 -22q12 -8 24 -22q33 -54 69 -79q29 26 47 54q1 2 16 44q26 34 48 66l29 45.5t33 41.5h16q3 -14 4 -16q4 -7 12 -12q31 31 36 31h14l7 -7q-4 -14 -13 -32q-8 -11 -31 -36
q-28 -29 -34 -29q-5 0 -9 3t-8 4.5t-5 1.5q-5 -5 -5 -11q0 -5 3.5 -13t3.5 -12q0 -8 -34 -41q-12 -11 -35 -35q-11 -20 -20 -40q1 -8 -2 -26q-3 -5 -18.5 -18.5t-15.5 -15.5q0 -13 7 -26q6 -2 12 -8q0 -5 -1 -9q59 -55 120 -141q6 -14 22 -47q6 -11 12 -11q3 0 3.5 1.5
t4.5 1.5q6 0 24 -13q10 -7 18 -22q-1 -5 -1 -20q8 -5 8 -14zM667 -156h-14q0 24 1 25q5 -4 13 -15v-10zM459 309v13h-14q7 -13 14 -13zM460 285l-2 4l-7 -3v-4zM241 -17v13h-5v-13h5z" />
    <glyph glyph-name="equal" unicode="=" 
d="M1176 314q-20 11 -25 11t-12.5 -5.5t-12.5 -5.5q-2 0 -8 2t-10 2q-8 0 -15 -7q-1 4 1.5 13t2.5 12q0 8 -12 15q4 8 23.5 14t23.5 20q5 -2 11.5 -11.5t12.5 -9.5q3 0 20 14v-64zM996 354h-24q0 9 8 17q6 -4 16 -17zM954 355l-6 -3l-3 6l6 3zM830 803q-33 -48 -59 -80
q-146 -178 -202 -265q-7 -7 -38 -32t-31 -35v-21q6 -6 12 -6q4 0 8 5t8 5l27 -14q16 4 13 25q24 -4 84 -15q-3 -5 -28 -12q4 -10 15 -10q24 0 20 1v-4q-1 -4 -1 -8q-3 -8 -1 -13q42 -17 57 -17t26 11q4 -12 47 -17q-6 -12 -19 -12q-16 0 -63 3l-63 4q-81 0 -102 -10
q-7 9 -12 21t-13 22l-5 -4t-11 -6q-2 -2 -32 -6q-2 -1 -12 -9t-15 -8q-24 0 -42 5q-2 7 -7 29q-4 16 -4 25q0 6 5.5 23t5.5 23q9 5 19 19q7 11 16 11q2 0 19 -14q13 6 13 19q0 5 -8 9t-17 9q67 93 98 115q1 3 3 13q32 0 44 18q10 14 11 47h22q-1 14 7 49q16 25 60 74
q7 3 15 5q17 0 27 -8q-9 -20 -18 -20q-4 0 -5 1.5t-5 1.5q-15 0 -32 -39q19 -21 28 -21q6 0 20 14q2 10 10 25q18 19 78 74h27zM901 356q-7 -11 -19 -24l-33 11q-4 -1 -24 -5l-3.5 -2.5t-6.5 -5.5v-14q21 -12 36 -12q11 0 38 13l2.5 -4t2.5 -9q0 -8 -12 -14q-7 -4 -13 -4
q-21 0 -63 7v29q-1 21 -24 21q-4 0 -7 -4t-9 -4t-17.5 2t-17.5 2v17h170zM723 339q-7 -1 -8 -1q-5 -2 -9 -2q-1 16 -14 19h4q8 0 17 1h10v-17zM989 11q-22 -74 -94 -129q-1 1 -7.5 7l-11.5 11l5 38q3 -3 6.5 -5t7.5 -5q6 5 7.5 11.5t2.5 15.5q6 6 19 25q4 6 13 36l7 -5
q4 -2 8 -5q11 6 33 21zM957 50q0 -4 -9 -15t-10 -15q-18 21 -28 21q-3 0 -15 -5q-8 -5 -50 -7q-12 0 -23.5 -1l-11.5 -1q-4 0 -17 7q-2 -2 -4 -5q1 -2 5 -9t4 -12v-20q-6 0 -11 2h-8q-5 1 -6 1q-12 0 -19 -7l-5 10t-10 8q1 0 -5 -1q-1 -2 -5 -2q-5 0 -17 7t-17 7
q-14 0 -51 -3l-52 -4q-7 0 -18 3q-15 4 -19 4t-9.5 -3.5t-8.5 -3.5l-9 9l59 12q4 0 13 -2t13 -2t14.5 5.5t14.5 5.5q8 0 26 -7q13 19 13 28q0 14 -18 14q-14 -2 -23 -2q-29 0 -73 4q5 0 15.5 4.5t14.5 4.5q5 0 13.5 -3.5t13.5 -3.5q19 0 57.5 2t57.5 2q43 0 96 -3
q24 -1 75 -6q9 -6 12 -6q4 0 9.5 3.5t9.5 3.5q8 0 16 -8v-11zM816 -83q0 -4 -6 -17q-19 -26 -41 -52q-26 -11 -27 -12q-13 -7 -20 -22q-3 3 -3 7q0 5 6 13q4 0 8 4q13 34 23 54q20 41 50 39q4 4 4 27q0 -7 3 -20.5t3 -20.5zM326 325l-4 -14h-16q-7 6 -1 12q-4 10 -17 10
q-7 -1 -21 -1q-8 8 -8 13q38 8 56 15q7 -21 11 -35zM13 500q0 -24 -5.5 -71t-5.5 -71l1 199q1 -7 5.5 -26.5t4.5 -30.5zM686 -121h-7v23h7v-23zM464 72l-8 -10q-8 8 -15 10h23zM525 71q-15 -1 -15 -19v-25q-25 -7 -49 -7q-16 0 -33 1q-12 0 -23 1l-11 1q-14 0 -23 -10
q-1 0 -6 2t-7 2v20q8 6 27 6l11.5 2.5t14.5 2.5q10 0 35 -7t34 -7q12 0 12 15q0 13 -6 23q-1 -1 39 -1zM53 322q-2 -1 -9 -8q-12 12 -12 14q0 9 12 22l9 -9v-19zM13 330q0 -13 -5 -37l-2 -11q-4 -18 -4 -26v95q0 -2 5.5 -9.5t5.5 -11.5zM16 25q0 -1 -4 -7t-4 -11
q0 -86 6 -195q-8 -8 -13 -8v429q-5 -19 13 -34q-10 -10 -10 -18q0 -77 8 -131q4 -26 4 -25zM759 29q-19 19 -32 19q-4 0 -7 -2l-3 -2q-4 -7 -4 -11q0 -5 4 -9q33 -10 42 5zM706 43q-10 8 -18 8q0 -9 8 -17q2 1 10 9z" />
    <glyph glyph-name="greater" unicode="&#x3e;" 
d="M714 11q0 -13 -13 -24t-26 -11q-19 0 -35 19q-2 11 -8 37q-14 41 -134 173q-1 6 -6 17t-23 25q-4 4 -21 4q-20 0 -24 -4q-8 -8 -21 -29t-13 -29v-10q-7 0 -12 5q-3 -10 -26.5 -24t-30.5 -35q2 -12 2 -26q-8 -26 -20 -39q-1 14 0 42l-4 4q-5 -10 -8 -19q-6 -5 -22 -20v-11
q7 -7 14 -7q8 0 13 11q2 -17 -11 -35.5t-20 -30.5q-12 -7 -24 -19q-5 -5 -17 -5q-39 0 -39 39q0 13 15.5 38t26.5 27q3 -1 12 -8h8l5 5v7q-1 3 -15 9q20 27 83 118q67 96 67 106q0 17 -9 36l-19 20q-16 37 -101 153q-9 14 -33 46l-22 23t-18 26q0 4 7.5 12t12.5 8
q12 0 43 -12q-3 -10 -3 -21q0 -22 17 -22q4 0 11 9q18 -34 45 -76q10 -4 25 -18q1 -6 10 -22q12 -8 24 -22q33 -54 69 -79q29 26 47 54q1 2 16 44q26 34 48 66l29 45.5t33 41.5h16q3 -14 4 -16q4 -7 12 -12q31 31 36 31h14l7 -7q-4 -14 -13 -32q-8 -11 -31 -36
q-28 -29 -34 -29q-5 0 -9 3t-8 4.5t-5 1.5q-5 -5 -5 -11q0 -5 3.5 -13t3.5 -12q0 -8 -34 -41q-12 -11 -35 -35q-11 -20 -20 -40q1 -8 -2 -26q-3 -5 -18.5 -18.5t-15.5 -15.5q0 -13 7 -26q6 -2 12 -8q0 -5 -1 -9q59 -55 120 -141q6 -14 22 -47q6 -11 12 -11q3 0 3.5 1.5
t4.5 1.5q6 0 24 -13q10 -7 18 -22q-1 -5 -1 -20q8 -5 8 -14zM667 -156h-14q0 24 1 25q5 -4 13 -15v-10zM459 309v13h-14q7 -13 14 -13zM460 285l-2 4l-7 -3v-4zM241 -17v13h-5v-13h5z" />
    <glyph glyph-name="question" unicode="?" 
d="M1176 314q-20 11 -25 11t-12.5 -5.5t-12.5 -5.5q-2 0 -8 2t-10 2q-8 0 -15 -7q-1 4 1.5 13t2.5 12q0 8 -12 15q4 8 23.5 14t23.5 20q5 -2 11.5 -11.5t12.5 -9.5q3 0 20 14v-64zM996 354h-24q0 9 8 17q6 -4 16 -17zM954 355l-6 -3l-3 6l6 3zM830 803q-33 -48 -59 -80
q-146 -178 -202 -265q-7 -7 -38 -32t-31 -35v-21q6 -6 12 -6q4 0 8 5t8 5l27 -14q16 4 13 25q24 -4 84 -15q-3 -5 -28 -12q4 -10 15 -10q24 0 20 1v-4q-1 -4 -1 -8q-3 -8 -1 -13q42 -17 57 -17t26 11q4 -12 47 -17q-6 -12 -19 -12q-16 0 -63 3l-63 4q-81 0 -102 -10
q-7 9 -12 21t-13 22l-5 -4t-11 -6q-2 -2 -32 -6q-2 -1 -12 -9t-15 -8q-24 0 -42 5q-2 7 -7 29q-4 16 -4 25q0 6 5.5 23t5.5 23q9 5 19 19q7 11 16 11q2 0 19 -14q13 6 13 19q0 5 -8 9t-17 9q67 93 98 115q1 3 3 13q32 0 44 18q10 14 11 47h22q-1 14 7 49q16 25 60 74
q7 3 15 5q17 0 27 -8q-9 -20 -18 -20q-4 0 -5 1.5t-5 1.5q-15 0 -32 -39q19 -21 28 -21q6 0 20 14q2 10 10 25q18 19 78 74h27zM901 356q-7 -11 -19 -24l-33 11q-4 -1 -24 -5l-3.5 -2.5t-6.5 -5.5v-14q21 -12 36 -12q11 0 38 13l2.5 -4t2.5 -9q0 -8 -12 -14q-7 -4 -13 -4
q-21 0 -63 7v29q-1 21 -24 21q-4 0 -7 -4t-9 -4t-17.5 2t-17.5 2v17h170zM723 339q-7 -1 -8 -1q-5 -2 -9 -2q-1 16 -14 19h4q8 0 17 1h10v-17zM989 11q-22 -74 -94 -129q-1 1 -7.5 7l-11.5 11l5 38q3 -3 6.5 -5t7.5 -5q6 5 7.5 11.5t2.5 15.5q6 6 19 25q4 6 13 36l7 -5
q4 -2 8 -5q11 6 33 21zM957 50q0 -4 -9 -15t-10 -15q-18 21 -28 21q-3 0 -15 -5q-8 -5 -50 -7q-12 0 -23.5 -1l-11.5 -1q-4 0 -17 7q-2 -2 -4 -5q1 -2 5 -9t4 -12v-20q-6 0 -11 2h-8q-5 1 -6 1q-12 0 -19 -7l-5 10t-10 8q1 0 -5 -1q-1 -2 -5 -2q-5 0 -17 7t-17 7
q-14 0 -51 -3l-52 -4q-7 0 -18 3q-15 4 -19 4t-9.5 -3.5t-8.5 -3.5l-9 9l59 12q4 0 13 -2t13 -2t14.5 5.5t14.5 5.5q8 0 26 -7q13 19 13 28q0 14 -18 14q-14 -2 -23 -2q-29 0 -73 4q5 0 15.5 4.5t14.5 4.5q5 0 13.5 -3.5t13.5 -3.5q19 0 57.5 2t57.5 2q43 0 96 -3
q24 -1 75 -6q9 -6 12 -6q4 0 9.5 3.5t9.5 3.5q8 0 16 -8v-11zM816 -83q0 -4 -6 -17q-19 -26 -41 -52q-26 -11 -27 -12q-13 -7 -20 -22q-3 3 -3 7q0 5 6 13q4 0 8 4q13 34 23 54q20 41 50 39q4 4 4 27q0 -7 3 -20.5t3 -20.5zM326 325l-4 -14h-16q-7 6 -1 12q-4 10 -17 10
q-7 -1 -21 -1q-8 8 -8 13q38 8 56 15q7 -21 11 -35zM13 500q0 -24 -5.5 -71t-5.5 -71l1 199q1 -7 5.5 -26.5t4.5 -30.5zM686 -121h-7v23h7v-23zM464 72l-8 -10q-8 8 -15 10h23zM525 71q-15 -1 -15 -19v-25q-25 -7 -49 -7q-16 0 -33 1q-12 0 -23 1l-11 1q-14 0 -23 -10
q-1 0 -6 2t-7 2v20q8 6 27 6l11.5 2.5t14.5 2.5q10 0 35 -7t34 -7q12 0 12 15q0 13 -6 23q-1 -1 39 -1zM53 322q-2 -1 -9 -8q-12 12 -12 14q0 9 12 22l9 -9v-19zM13 330q0 -13 -5 -37l-2 -11q-4 -18 -4 -26v95q0 -2 5.5 -9.5t5.5 -11.5zM16 25q0 -1 -4 -7t-4 -11
q0 -86 6 -195q-8 -8 -13 -8v429q-5 -19 13 -34q-10 -10 -10 -18q0 -77 8 -131q4 -26 4 -25zM759 29q-19 19 -32 19q-4 0 -7 -2l-3 -2q-4 -7 -4 -11q0 -5 4 -9q33 -10 42 5zM706 43q-10 8 -18 8q0 -9 8 -17q2 1 10 9z" />
    <glyph glyph-name="at" unicode="@" 
d="M1176 314q-20 11 -25 11t-12.5 -5.5t-12.5 -5.5q-2 0 -8 2t-10 2q-8 0 -15 -7q-1 4 1.5 13t2.5 12q0 8 -12 15q4 8 23.5 14t23.5 20q5 -2 11.5 -11.5t12.5 -9.5q3 0 20 14v-64zM996 354h-24q0 9 8 17q6 -4 16 -17zM954 355l-6 -3l-3 6l6 3zM830 803q-33 -48 -59 -80
q-146 -178 -202 -265q-7 -7 -38 -32t-31 -35v-21q6 -6 12 -6q4 0 8 5t8 5l27 -14q16 4 13 25q24 -4 84 -15q-3 -5 -28 -12q4 -10 15 -10q24 0 20 1v-4q-1 -4 -1 -8q-3 -8 -1 -13q42 -17 57 -17t26 11q4 -12 47 -17q-6 -12 -19 -12q-16 0 -63 3l-63 4q-81 0 -102 -10
q-7 9 -12 21t-13 22l-5 -4t-11 -6q-2 -2 -32 -6q-2 -1 -12 -9t-15 -8q-24 0 -42 5q-2 7 -7 29q-4 16 -4 25q0 6 5.5 23t5.5 23q9 5 19 19q7 11 16 11q2 0 19 -14q13 6 13 19q0 5 -8 9t-17 9q67 93 98 115q1 3 3 13q32 0 44 18q10 14 11 47h22q-1 14 7 49q16 25 60 74
q7 3 15 5q17 0 27 -8q-9 -20 -18 -20q-4 0 -5 1.5t-5 1.5q-15 0 -32 -39q19 -21 28 -21q6 0 20 14q2 10 10 25q18 19 78 74h27zM901 356q-7 -11 -19 -24l-33 11q-4 -1 -24 -5l-3.5 -2.5t-6.5 -5.5v-14q21 -12 36 -12q11 0 38 13l2.5 -4t2.5 -9q0 -8 -12 -14q-7 -4 -13 -4
q-21 0 -63 7v29q-1 21 -24 21q-4 0 -7 -4t-9 -4t-17.5 2t-17.5 2v17h170zM723 339q-7 -1 -8 -1q-5 -2 -9 -2q-1 16 -14 19h4q8 0 17 1h10v-17zM989 11q-22 -74 -94 -129q-1 1 -7.5 7l-11.5 11l5 38q3 -3 6.5 -5t7.5 -5q6 5 7.5 11.5t2.5 15.5q6 6 19 25q4 6 13 36l7 -5
q4 -2 8 -5q11 6 33 21zM957 50q0 -4 -9 -15t-10 -15q-18 21 -28 21q-3 0 -15 -5q-8 -5 -50 -7q-12 0 -23.5 -1l-11.5 -1q-4 0 -17 7q-2 -2 -4 -5q1 -2 5 -9t4 -12v-20q-6 0 -11 2h-8q-5 1 -6 1q-12 0 -19 -7l-5 10t-10 8q1 0 -5 -1q-1 -2 -5 -2q-5 0 -17 7t-17 7
q-14 0 -51 -3l-52 -4q-7 0 -18 3q-15 4 -19 4t-9.5 -3.5t-8.5 -3.5l-9 9l59 12q4 0 13 -2t13 -2t14.5 5.5t14.5 5.5q8 0 26 -7q13 19 13 28q0 14 -18 14q-14 -2 -23 -2q-29 0 -73 4q5 0 15.5 4.5t14.5 4.5q5 0 13.5 -3.5t13.5 -3.5q19 0 57.5 2t57.5 2q43 0 96 -3
q24 -1 75 -6q9 -6 12 -6q4 0 9.5 3.5t9.5 3.5q8 0 16 -8v-11zM816 -83q0 -4 -6 -17q-19 -26 -41 -52q-26 -11 -27 -12q-13 -7 -20 -22q-3 3 -3 7q0 5 6 13q4 0 8 4q13 34 23 54q20 41 50 39q4 4 4 27q0 -7 3 -20.5t3 -20.5zM326 325l-4 -14h-16q-7 6 -1 12q-4 10 -17 10
q-7 -1 -21 -1q-8 8 -8 13q38 8 56 15q7 -21 11 -35zM13 500q0 -24 -5.5 -71t-5.5 -71l1 199q1 -7 5.5 -26.5t4.5 -30.5zM686 -121h-7v23h7v-23zM464 72l-8 -10q-8 8 -15 10h23zM525 71q-15 -1 -15 -19v-25q-25 -7 -49 -7q-16 0 -33 1q-12 0 -23 1l-11 1q-14 0 -23 -10
q-1 0 -6 2t-7 2v20q8 6 27 6l11.5 2.5t14.5 2.5q10 0 35 -7t34 -7q12 0 12 15q0 13 -6 23q-1 -1 39 -1zM53 322q-2 -1 -9 -8q-12 12 -12 14q0 9 12 22l9 -9v-19zM13 330q0 -13 -5 -37l-2 -11q-4 -18 -4 -26v95q0 -2 5.5 -9.5t5.5 -11.5zM16 25q0 -1 -4 -7t-4 -11
q0 -86 6 -195q-8 -8 -13 -8v429q-5 -19 13 -34q-10 -10 -10 -18q0 -77 8 -131q4 -26 4 -25zM759 29q-19 19 -32 19q-4 0 -7 -2l-3 -2q-4 -7 -4 -11q0 -5 4 -9q33 -10 42 5zM706 43q-10 8 -18 8q0 -9 8 -17q2 1 10 9z" />
    <glyph glyph-name="A" unicode="A" 
d="M816 -76q0 -20 -14 -33.5t-34 -13.5q-13 0 -23 8q-3 3 -25 29q0 6 -3 36q-1 10 -12.5 34t-11.5 35q0 6 3 12q-1 3 -11 13q-24 11 -41 11q-4 0 -17.5 -6.5t-18.5 -6.5l-276 6q-27 1 -35 -12l-34 -90q-26 -65 -65 -65q-19 0 -36 14t-17 32q0 21 4 33q15 24 34 65
q11 23 31 87q12 16 19 31t18 68q10 48 21 75q23 59 75 174q1 5 6 20q12 19 26 51q29 104 102 104q62 0 87 -18q30 -22 53 -96q7 -37 18 -67q177 -505 177 -530zM686 -100q0 3 -27 50q-1 6 -5 22q-20 20 -35 37h21q5 0 9.5 -3t7.5 -3q7 -17 21 -65q3 -4 8 -8q2 -8 0 -9v-21z
M574 12h-19v5h19v-5zM661 156q0 2 -4 14q-4 8 -45 31q-2 3 -15 20q16 12 16 40q0 18 -21 89q-18 60 -35 85q-9 14 -28 24q-13 7 -13 23v48q4 3 29 26q-2 2 -7 6t-7 6q-15 -6 -30.5 -13t-23.5 -21t-11 -39l-4 -41q-2 -9 -6 -18q-7 -15 -7 -19v-11l33 34q3 3 5 10.5t5 10.5
q4 -3 13 -12q41 -91 74 -190q1 -3 3 -29q1 -2 8 -9q-22 -15 -32 -15q1 0 -6 1q0 2 -1 2q-5 49 -24 97l-32 74q-5 13 -16 13q-8 -5 -13 -19t-1 -23q-18 -9 -21 -9q-8 0 -17 9q0 -11 -13 -14q-18 -53 -47 -128l-12 -21q-10 -15 -10 -19t8 -17t11 -13q6 0 12 2h16
q1 -1 8.5 -3.5t10.5 -2.5l181 -3q9 0 27.5 2t27.5 2q14 14 14 20zM443 403q-11 -24 -11 -27q0 -2 8 -12q5 8 6 21q2 14 -3 18zM780 -76q-1 6 -2 8.5t-1 5.5h-18q-2 -1 -17 -14q7 -7 7 -8h24zM261 -12v21l-15 4q-2 -2 -5 -4t-5 -4q2 -5 4.5 -13t11.5 -8q5 0 9 4zM430 304h-5
v15h5v-15z" />
    <glyph glyph-name="B" unicode="B" 
d="M905 116q0 -75 -40 -146q-50 -88 -136 -99q-9 0 -26.5 -5t-26.5 -5q-12 0 -36 3t-36 3q-60 0 -182 -3q-22 0 -64 5q-3 0 -13 7t-16 7q-1 0 -20 -19q-40 -3 -110 -3q-31 0 -34 1q-17 5 -35 34q-4 7 -6 65q-1 24 -6 91q-4 58 -4 91v200l-16 171q0 14 6 47.5t6 47.5v98
q0 22 31 38q6 2 15 3q17 14 22 14t7 -4t6 -4q7 0 27 6t26 6l400 -4q5 0 12 -3.5t12 -3.5q75 1 137 -58q21 -20 43 -77q9 -25 14 -49q1 -5 1 -44q0 -86 -12 -139q-1 -4 -9.5 -23t-8.5 -23q0 -13 36 -73t36 -153zM75 -52q-22 45 -26 73l6 90q1 -18 11 -60q9 -38 9 -59v-44z
M905 116q0 93 -36 153t-36 73q0 4 8.5 23t9.5 23q12 53 12 139q0 39 -1 44q-6 30 -21 67q-18 42 -36 59q-62 59 -137 58q-4 0 -11.5 3.5t-12.5 3.5l-400 4q-6 0 -26 -6t-27 -6q-4 0 -6 4t-7 4t-22 -14q-4 -1 -15 -3q-31 -16 -31 -38v-98q0 -14 -6 -47.5t-6 -47.5l16 -171
v-200q0 -30 5 -91t5 -91v-18q-1 -12 -1 -18q0 -18 7 -29q19 -29 35 -34q3 -1 34 -1q70 0 110 3q19 19 20 19q6 0 16 -7t13 -7q42 -5 64 -5q23 0 72 1l110 2q12 0 36 -3t36 -3q9 0 27.5 5t25.5 5q86 11 136 99q40 71 40 146zM75 -52v44q0 21 -9 59q-10 42 -11 60l-6 -90
q4 -28 26 -73zM905 116q0 -75 -40 -146q-50 -88 -136 -99q-9 0 -26.5 -5t-26.5 -5q-12 0 -36 3t-36 3q-60 0 -182 -3q-22 0 -64 5q-3 0 -13 7t-16 7q-1 0 -20 -19q-40 -3 -110 -3q-31 0 -34 1q-17 5 -35 34q-4 7 -6 65q-1 24 -6 91q-4 58 -4 91v200l-16 171q0 14 6 47.5
t6 47.5v98q0 22 31 38q6 2 15 3q17 14 22 14t7 -4t6 -4q7 0 27 6t26 6l400 -4q5 0 12 -3.5t12 -3.5q75 1 137 -58q21 -20 43 -77q9 -25 14 -49q1 -5 1 -44q0 -86 -12 -139q-1 -4 -9.5 -23t-8.5 -23q0 -13 36 -73t36 -153zM75 -52q-22 45 -26 73l6 90q1 -18 11 -60
q9 -38 9 -59v-44zM905 116q0 93 -36 153t-36 73q0 4 8.5 23t9.5 23q12 53 12 139q0 39 -1 44q-6 30 -21 67q-18 42 -36 59q-62 59 -137 58q-4 0 -11.5 3.5t-12.5 3.5l-400 4q-6 0 -26 -6t-27 -6q-4 0 -6 4t-7 4t-22 -14q-4 -1 -15 -3q-31 -16 -31 -38v-98q0 -14 -6 -47.5
t-6 -47.5l16 -171v-200q0 -30 5 -91t5 -91v-18q-1 -12 -1 -18q0 -18 7 -29q19 -29 35 -34q3 -1 34 -1q70 0 110 3q19 19 20 19q6 0 16 -7t13 -7q42 -5 64 -5q23 0 72 1l110 2q12 0 36 -3t36 -3q9 0 27.5 5t25.5 5q86 11 136 99q40 71 40 146zM75 -52v44q0 21 -9 59
q-10 42 -11 60l-6 -90q4 -28 26 -73zM905 116q0 -75 -40 -146q-50 -88 -136 -99q-9 0 -26.5 -5t-26.5 -5q-12 0 -36 3t-36 3q-60 0 -182 -3q-22 0 -64 5q-3 0 -13 7t-16 7q-1 0 -20 -19q-40 -3 -110 -3q-31 0 -34 1q-17 5 -35 34q-4 7 -6 65q-1 24 -6 91q-4 58 -4 91v200
l-16 171q0 14 6 47.5t6 47.5v98q0 22 31 38q6 2 15 3q17 14 22 14t7 -4t6 -4q7 0 27 6t26 6l400 -4q5 0 12 -3.5t12 -3.5q75 1 137 -58q21 -20 43 -77q9 -25 14 -49q1 -5 1 -44q0 -86 -12 -139q-1 -4 -9.5 -23t-8.5 -23q0 -13 36 -73t36 -153zM75 -52q-22 45 -26 73l6 90
q1 -18 11 -60q9 -38 9 -59v-44zM905 116q0 93 -36 153t-36 73q0 4 8.5 23t9.5 23q12 53 12 139q0 39 -1 44q-6 30 -21 67q-18 42 -36 59q-62 59 -137 58q-4 0 -11.5 3.5t-12.5 3.5l-400 4q-6 0 -26 -6t-27 -6q-4 0 -6 4t-7 4t-22 -14q-4 -1 -15 -3q-31 -16 -31 -38v-98
q0 -14 -6 -47.5t-6 -47.5l16 -171v-200q0 -30 5 -91t5 -91v-18q-1 -12 -1 -18q0 -18 7 -29q19 -29 35 -34q3 -1 34 -1q70 0 110 3q19 19 20 19q6 0 16 -7t13 -7q42 -5 64 -5q23 0 72 1l110 2q12 0 36 -3t36 -3q9 0 27.5 5t25.5 5q86 11 136 99q40 71 40 146zM75 -52v44
q0 21 -9 59q-10 42 -11 60l-6 -90q4 -28 26 -73zM905 116q0 -75 -40 -146q-50 -88 -136 -99q-9 0 -26.5 -5t-26.5 -5q-12 0 -36 3t-36 3q-60 0 -182 -3q-22 0 -64 5q-3 0 -13 7t-16 7q-1 0 -20 -19q-40 -3 -110 -3q-31 0 -34 1q-17 5 -35 34q-4 7 -6 65q-1 24 -6 91
q-4 58 -4 91v200l-16 171q0 14 6 47.5t6 47.5v98q0 22 31 38q6 2 15 3q17 14 22 14t7 -4t6 -4q7 0 27 6t26 6l400 -4q5 0 12 -3.5t12 -3.5q75 1 137 -58q21 -20 43 -77q9 -25 14 -49q1 -5 1 -44q0 -86 -12 -139q-1 -4 -9.5 -23t-8.5 -23q0 -13 36 -73t36 -153zM75 -52
q-22 45 -26 73l6 90q1 -18 11 -60q9 -38 9 -59v-44zM754 442q0 87 -17 167q-5 23 -29 45q-16 14 -39 16q-34 2 -78 7l-16 2q-35 3 -43 3q-9 0 -26.5 -3.5t-26.5 -3.5q-5 0 -15 3.5t-17 3.5q-50 0 -97 -12q-17 -4 -28 -24q42 -13 79 -13l23 1q28 0 59 1l81 2q82 0 104 -5
q34 -8 43 -54q1 -5 1 -34q0 -47 -12 -63q-16 -22 -27 -22q-1 1 -4 6t-5 8q-3 34 -10 102q-3 8 -35 20.5t-42 10.5h-312q3 9 11 30q-6 0 -25 8q-18 -26 -20 -62q-4 -80 -4 -138q0 -80 31 -80l416 4q43 0 61.5 16t18.5 58zM784 137q0 6 -7 14q0 79 -10 94q-7 10 -35 26
q-32 18 -56 18q-6 0 -16 -4t-15 -4h-241q-23 0 -77 -17q-8 -3 -20 -12t-17 -9q-14 0 -42 19q-17 -8 -17 -21v-223q0 -37 103 -54q56 -9 117 -9q-9 0 66 3q98 4 174 5q35 1 59.5 20.5t25.5 53.5q0 28 1 82q7 8 7 18zM754 442q0 -42 -18.5 -58t-61.5 -16l-416 -4q-31 0 -31 80
q0 58 4 138q2 36 20 62q19 -8 25 -8q-6 -15 -11 -30h312q10 2 42 -10t35 -21q2 -32 6 -61q1 -9 4 -41q2 -5 9 -14q11 0 27 22q12 16 12 63q0 29 -1 34q-9 46 -43 54q-22 5 -104 5l-22 -1q-28 0 -59 -1l-82 -2q-37 0 -79 13q11 20 28 24q47 12 97 12q6 0 15.5 -3.5t16.5 -3.5
q9 0 26.5 3.5t26.5 3.5t59 -5q44 -5 78 -7q23 -2 39 -16q24 -22 29 -45q17 -80 17 -167zM784 137q0 -10 -7 -18q0 -27 -1 -82q-2 -49 -39 -62q-18 -6 -46 -12q-81 -1 -174 -5l-66 -3q-61 0 -117 9q-103 17 -103 54v223q0 13 17 21q28 -19 42 -19q2 0 25 15q7 4 12 6
q54 17 77 17h241q5 0 15 4t16 4q24 0 56 -18q28 -16 35 -26q10 -15 10 -94q7 -8 7 -14zM754 442q0 87 -17 167q-5 23 -29 45q-16 14 -39 16q-34 2 -78 7l-16 2q-35 3 -43 3q-9 0 -26.5 -3.5t-26.5 -3.5q-5 0 -15 3.5t-17 3.5q-50 0 -97 -12q-17 -4 -28 -24q42 -13 79 -13
l23 1q28 0 59 1l81 2q82 0 104 -5q34 -8 43 -54q1 -5 1 -34q0 -47 -12 -63q-16 -22 -27 -22q-1 1 -4 6t-5 8q-3 34 -10 102q-3 8 -35 20.5t-42 10.5h-312q3 9 11 30q-6 0 -25 8q-18 -26 -20 -62q-4 -80 -4 -138q0 -80 31 -80l416 4q43 0 61.5 16t18.5 58zM784 137q0 6 -7 14
q0 79 -10 94q-7 10 -35 26q-32 18 -56 18q-6 0 -16 -4t-15 -4h-241q-23 0 -77 -17q-8 -3 -20 -12t-17 -9q-14 0 -42 19q-17 -8 -17 -21v-223q0 -37 103 -54q56 -9 117 -9q-9 0 66 3q98 4 174 5q35 1 59.5 20.5t25.5 53.5q0 28 1 82q7 8 7 18zM754 442q0 -42 -18.5 -58
t-61.5 -16l-416 -4q-31 0 -31 80q0 58 4 138q2 36 20 62q19 -8 25 -8q-6 -15 -11 -30h312q10 2 42 -10t35 -21q2 -32 6 -61q1 -9 4 -41q2 -5 9 -14q11 0 27 22q12 16 12 63q0 29 -1 34q-9 46 -43 54q-22 5 -104 5l-22 -1q-28 0 -59 -1l-82 -2q-37 0 -79 13q11 20 28 24
q47 12 97 12q6 0 15.5 -3.5t16.5 -3.5q9 0 26.5 3.5t26.5 3.5t59 -5q44 -5 78 -7q23 -2 39 -16q24 -22 29 -45q17 -80 17 -167zM784 137q0 -10 -7 -18q0 -27 -1 -82q-2 -49 -39 -62q-18 -6 -46 -12q-81 -1 -174 -5l-66 -3q-61 0 -117 9q-103 17 -103 54v223q0 13 17 21
q28 -19 42 -19q2 0 25 15q7 4 12 6q54 17 77 17h241q5 0 15 4t16 4q24 0 56 -18q28 -16 35 -26q10 -15 10 -94q7 -8 7 -14zM754 442q0 87 -17 167q-5 23 -29 45q-16 14 -39 16q-34 2 -78 7l-16 2q-35 3 -43 3q-9 0 -26.5 -3.5t-26.5 -3.5q-5 0 -15 3.5t-17 3.5
q-50 0 -97 -12q-17 -4 -28 -24q42 -13 79 -13l23 1q28 0 59 1l81 2q82 0 104 -5q34 -8 43 -54q1 -5 1 -34q0 -47 -12 -63q-16 -22 -27 -22q-1 1 -4 6t-5 8q-3 34 -10 102q-3 8 -35 20.5t-42 10.5h-312q3 9 11 30q-6 0 -25 8q-18 -26 -20 -62q-4 -80 -4 -138q0 -80 31 -80
l416 4q43 0 61.5 16t18.5 58zM784 137q0 6 -7 14q0 79 -10 94q-7 10 -35 26q-32 18 -56 18q-6 0 -16 -4t-15 -4h-241q-23 0 -77 -17q-8 -3 -20 -12t-17 -9q-14 0 -42 19q-17 -8 -17 -21v-223q0 -37 103 -54q56 -9 117 -9q-9 0 66 3q98 4 174 5q35 1 59.5 20.5t25.5 53.5
q0 28 1 82q7 8 7 18zM754 442q0 -42 -18.5 -58t-61.5 -16l-416 -4q-31 0 -31 80q0 58 4 138q2 36 20 62q19 -8 25 -8q-6 -15 -11 -30h312q10 2 42 -10t35 -21q2 -32 6 -61q1 -9 4 -41q2 -5 9 -14q11 0 27 22q12 16 12 63q0 29 -1 34q-9 46 -43 54q-22 5 -104 5l-22 -1
q-28 0 -59 -1l-82 -2q-37 0 -79 13q11 20 28 24q47 12 97 12q6 0 15.5 -3.5t16.5 -3.5q9 0 26.5 3.5t26.5 3.5t59 -5q44 -5 78 -7q23 -2 39 -16q24 -22 29 -45q17 -80 17 -167zM784 137q0 -10 -7 -18q0 -27 -1 -82q-2 -49 -39 -62q-18 -6 -46 -12q-81 -1 -174 -5l-66 -3
q-61 0 -117 9q-103 17 -103 54v223q0 13 17 21q28 -19 42 -19q2 0 25 15q7 4 12 6q54 17 77 17h241q5 0 15 4t16 4q24 0 56 -18q28 -16 35 -26q10 -15 10 -94q7 -8 7 -14zM754 442q0 87 -17 167q-5 23 -29 45q-16 14 -39 16q-34 2 -78 7l-16 2q-35 3 -43 3q-9 0 -26.5 -3.5
t-26.5 -3.5q-5 0 -15 3.5t-17 3.5q-50 0 -97 -12q-17 -4 -28 -24q42 -13 79 -13l23 1q28 0 59 1l81 2q82 0 104 -5q34 -8 43 -54q1 -5 1 -34q0 -47 -12 -63q-16 -22 -27 -22q-1 1 -4 6t-5 8q-3 34 -10 102q-3 8 -35 20.5t-42 10.5h-312q3 9 11 30q-6 0 -25 8
q-18 -26 -20 -62q-4 -80 -4 -138q0 -80 31 -80l416 4q43 0 61.5 16t18.5 58zM784 137q0 6 -7 14q0 79 -10 94q-7 10 -35 26q-32 18 -56 18q-6 0 -16 -4t-15 -4h-241q-23 0 -77 -17q-8 -3 -20 -12t-17 -9q-14 0 -42 19q-17 -8 -17 -21v-223q0 -37 103 -54q56 -9 117 -9
q-9 0 66 3q98 4 174 5q35 1 59.5 20.5t25.5 53.5q0 28 1 82q7 8 7 18zM746 165q0 -30 -23 -96h-15v55q0 19 -8 44q-11 35 -24 36q-84 9 -129 9l-270 -3q0 1 -2 8t-2 9q12 7 24 7q52 2 171 2h147q6 0 23 5.5t23 5.5q4 0 8 -4t9 -4q6 0 29 12q2 -4 34 -39q2 -27 3.5 -40
t1.5 -7zM746 165q0 -6 -1.5 7t-3.5 40q-15 13 -34 39q-23 -12 -29 -12q-5 0 -9 4t-8 4q-8 0 -24.5 -5.5t-21.5 -5.5h-147q-119 0 -171 -2q-12 0 -24 -7q0 -2 2 -9t2 -8l270 3q45 0 129 -9q13 -1 24 -36q8 -25 8 -44v-55h15q23 66 23 96zM746 165q0 -30 -23 -96h-15v55
q0 19 -8 44q-11 35 -24 36q-84 9 -129 9l-270 -3q0 1 -2 8t-2 9q12 7 24 7q52 2 171 2h147q6 0 23 5.5t23 5.5q4 0 8 -4t9 -4q6 0 29 12q2 -4 34 -39q2 -27 3.5 -40t1.5 -7zM746 165q0 -6 -1.5 7t-3.5 40q-15 13 -34 39q-23 -12 -29 -12q-5 0 -9 4t-8 4q-8 0 -24.5 -5.5
t-21.5 -5.5h-147q-119 0 -171 -2q-12 0 -24 -7q0 -2 2 -9t2 -8l270 3q45 0 129 -9q13 -1 24 -36q8 -25 8 -44v-55h15q23 66 23 96zM746 165q0 -30 -23 -96h-15v55q0 19 -8 44q-11 35 -24 36q-84 9 -129 9l-270 -3q0 1 -2 8t-2 9q12 7 24 7q52 2 171 2h147q6 0 23 5.5t23 5.5
q4 0 8 -4t9 -4q6 0 29 12q2 -4 34 -39q2 -27 3.5 -40t1.5 -7zM746 165q0 -6 -1.5 7t-3.5 40q-15 13 -34 39q-23 -12 -29 -12q-5 0 -9 4t-8 4q-8 0 -24.5 -5.5t-21.5 -5.5h-147q-119 0 -171 -2q-12 0 -24 -7q0 -2 2 -9t2 -8l270 3q45 0 129 -9q13 -1 24 -36q8 -25 8 -44v-55
h15q23 66 23 96zM746 165q0 -30 -23 -96h-15v55q0 19 -8 44q-11 35 -24 36q-84 9 -129 9l-270 -3q0 1 -2 8t-2 9q12 7 24 7q52 2 171 2h147q6 0 23 5.5t23 5.5q4 0 8 -4t9 -4q6 0 29 12q2 -4 34 -39q2 -27 3.5 -40t1.5 -7z" />
    <glyph glyph-name="C" unicode="C" 
d="M881 51q4 -124 -42 -177q-33 -37 -74 -44q-92 -16 -213 -16q-48 0 -51 1l-46 10q-6 0 -25 -5q-23 -6 -25 -6q-15 0 -30 22l-9 -18h-18q-21 0 -71 14.5t-64 26.5q-61 53 -68 112q3 31 1 50l-18 143q-9 73 -9 129q0 44 11 171q-2 23 0 47q3 30 40 71t72 55q16 6 102 13
q79 6 120 6q118 0 239 -12q51 -5 98 -40q9 -7 18 -22q15 -26 16 -27q11 -8 30 -29q5 -12 5 -37q0 -5 -6 -40v-34q0 -19 -11 -33t-29 -14q-17 0 -36.5 18t-20.5 34q0 1 2 13q3 9 3 13q-1 2 -12 46q2 12 1 32q-1 19 -26 34q-9 5 -57 13q-10 5 -18 8q-45 9 -86 9
q-103 0 -173 -12q-18 -3 -52 -37q5 -5 9 -5t8 3.5t105 5.5l95 2q26 2 44 2q60 0 84.5 -20.5t34.5 -78.5l15 -86q-20 8 -32 36t-10 51q-7 23 -10 30q-8 17 -22 21q-28 9 -104 17q-54 6 -70 6q9 0 -149 -9q-3 0 -13 -4.5t-13 -3.5h-15q18 18 39 32q-3 3 -23 3q-22 0 -31 -5
q-13 -7 -35 -37q-3 -5 -5 -16q0 -32 -8.5 -99t-7.5 -104v-19q-1 -16 -1 -29v-143q0 -4 -3.5 -12.5t-3.5 -13.5q0 -7 5 -27t5 -30q0 -9 -1 -13q5 -8 19.5 -15.5t23.5 -20.5q5 -11 19 -28q17 -11 49 -18l187 -3q8 0 20 2l23 4q64 2 165 13q13 3 24 17t11 27q0 4 -9 18t-9 18
q0 10 36 61q6 9 27 9q13 0 59 -26zM91 2h-6v13h6v-13zM106 -70h-7v20h7v-20z" />
    <glyph glyph-name="D" unicode="D" 
d="M751 264q0 -15 -5 -56q-6 -51 -13 -76q-14 -51 -34 -83q-7 -11 -49 -33q-60 -31 -84 -30q-9 0 -24 1q-22 1 -32 0q-57 3 -83 3q-42 0 -124 -4l-57 -3q-51 0 -69 12q-23 15 -21 61q2 36 -3 81l-8 81q-11 119 -11 129q0 2 3 52l4 74q2 57 6 77q2 10 0 24q-2 17 -2 29
q0 32 22 47q18 12 54 15q19 1 49 1q25 0 74.5 -4.5t73.5 -4.5q13 0 38 1.5t38 1.5q82 0 99 -4q34 -8 74.5 -39t53.5 -61q1 -15 9 -44q8 -32 11 -70q3 -47 5 -60l2.5 -5t2.5 -10v-103zM707 19l-4 -8l-4 2l3 7zM659 -21h-13v5h13v-5zM585 -41l-3 -4h-13l3 4h13zM114 90
q0 -19 -4 -30q-3 24 -6 70q-1 0 -4 4t-2 8v44q6 -10 12 -27q4 -44 4 -69zM668 313v24q0 15 -2 81q-7 30 -14 69q4 4 7 8q-2 16 -6 41q-11 24 -31 45q-8 8 -46 11q-2 0 -12.5 2.5t-13.5 2.5h-5l-6 -2t-8 -1q-7 0 -22.5 4.5t-22.5 4.5q-102 0 -159 -16q-35 -21 -38 -21
q-2 0 -13 5.5t-16 5.5t-16 -12q0 -44 -7 -130v-330q0 -27 37 -39q26 -9 60 -9q27 0 76 -1l77 -2q31 0 95 12q29 5 42 20q21 24 23 55q1 28 3 57q18 80 18 115zM623 370l-9 -132h-14q3 9 10 27q1 5 1 8t-5 11q2 11 2 26q0 16 -2 37q1 7 0 20q-2 31 -9 92q-10 60 -41 73.5
t-95 13.5h-180q-4 4 -4 8q43 12 60 12l206 -3q21 0 30 -7q18 -20 37 -37q7 -42 10 -78q0 -19 2 -53q1 -14 1 -18zM614 209q-9 -9 -14 -9v28h14v-19zM608 187q0 -4 -10 -24q-1 21 3 34q7 -7 7 -10z" />
    <glyph glyph-name="E" unicode="E" 
d="M707 618h-10v6h10v-6zM819 -121q0 -33 -56 -33q-9 0 -36 5t-40 5t-43 -2t-46 -2l-329 10q-7 0 -28.5 -6t-28.5 -6q-64 0 -84 47q-5 12 -3 36l4 42q0 22 -4 208q0 12 -5 50t-5 39v349q0 24 5 81q2 20 40 49q18 14 34 14q5 0 8 -3.5t8 -3.5q2 1 10 6q13 2 63 1l413 -7
q-5 0 53 -6q11 -17 16 -17q3 0 4 1.5t6 1.5q16 0 17 -30q0 -9 -5 -25t-11 -20q-25 -17 -43 -17q-3 0 -28 14q-5 3 -8 4q-54 17 -105 17q-97 0 -167 -4q-54 -3 -83 -26q6 -19 23 -20l312 -10q-37 -17 -39 -17q-9 0 -28 3.5t-27 3.5t-24.5 -3.5t-22.5 -3.5t-17 3q-15 4 -21 4
q-14 0 -41.5 -5.5t-41.5 -5.5q2 0 -46 3q-51 3 -69 2l-15 8l15 16q-6 17 -31 17q-10 0 -18 -8.5t-8 -16.5q-8 -139 -8 -198q0 -12 36 -62q8 8 16 8q6 0 16 -7q128 -12 155 -12l23 1q28 0 60 1l84 2q24 0 61 -21q6 -7 6 -23q0 -21 -16.5 -38.5t-37.5 -17.5q-25 0 -28 1
q-5 5 -24 17q-22 5 -103 5q-20 0 -41 1q-31 1 -44 0q-52 -6 -64 -31q-4 -9 -19 -9q-5 0 -21 6t-23 6q-22 0 -24 -21q-1 -10 -1 -112t1 -111q2 -15 27.5 -28.5t27.5 -19.5q7 7 13 7q12 0 37.5 -5.5t37.5 -5.5q3 0 9.5 2t10.5 2q6 0 23.5 -6t24.5 -6q4 0 6 4t7 4
q121 0 254 -13q29 -3 54 -8q8 -4 28 -12q12 -32 12 -42zM623 221q-17 -1 -61 -10q-38 -7 -60 -7q-3 0 -7.5 3.5t-9.5 3.5q-13 0 -38.5 -5.5t-37.5 -5.5q-79 0 -120 1v21q25 13 51 13q17 0 52.5 -4t52.5 -4h126q31 0 52 -6zM63 592l-4 -22h-7l4 22h7zM59 385h-7v10h7v-10z
M653 -198h-102v7h102v-7zM65 339q-7 -4 -11 -4q0 15 7 15q4 -7 4 -11zM73 282q-8 -8 -19 -8v29q2 -1 8.5 -2.5t8.5 -9.5q1 -4 2 -9zM519 -198h-11v7h11v-7zM59 224h-7v33h7v-33zM75 178h-7l-4 25h7zM74 -3h-6v152h6v-152z" />
    <glyph glyph-name="F" unicode="F" 
d="M825 606q0 -46 -19 -50q-1 0 -11.5 -5.5t-16.5 -5.5q5 0 -35 18q-10 5 -22 7q-32 6 -118 6q-92 0 -128 -3t-94 -28q0 -14 16 -14q23 0 69 1.5t69 1.5q4 0 9.5 -3.5t9.5 -3.5q5 0 8 3.5t8 3.5q2 0 11 -5t13 -5q5 0 8.5 3.5t7.5 3.5q5 0 6 -3.5t6 -3.5q7 0 21 3.5t21 3.5
q-10 0 74 -13l-243 -5q-36 0 -112 -3q-10 -3 -40 -10q-4 12 -4 15q0 10 18 17q-4 1 -15 10.5t-15 9.5q-17 0 -18 -20t-1 -90v-92q0 -5 -3.5 -14t-3.5 -13q0 -13 7.5 -27t18.5 -14q6 0 16 3.5t15 3.5l168 -14q47 -1 139 -5q69 -3 69 -38q0 -20 -19 -33.5t-40 -13.5
q-4 0 -22.5 9t-25.5 10q-30 5 -150 5q-78 0 -78 -30q0 -14 12 -15q41 -4 85 -4q5 0 14.5 3.5t15.5 3.5q4 0 16 -5t16 -5q12 0 35.5 -1t35.5 -1l-286 -15v16q3 -1 9 -6q10 5 8 13q19 0 35 6q-10 5 -19 5h-4l-4 -2t-8 -1q-3 0 -16 12t-17 12q-15 0 -17 -20q1 7 1 -27v-263
q0 -22 -19.5 -39.5t-41.5 -17.5q-30 0 -51 30q-17 24 -17 47q0 13 10 46t11 47l-14 365q0 8 3 38l5 48q-1 50 0 153q0 9 31 46q78 9 73 9l176 -11q6 0 17 3.5t16 3.5q8 0 17 -6q55 -4 179 -4q4 0 13.5 3.5t14.5 3.5q11 0 16 -11q7 7 12 7t15.5 -10.5t14.5 -10.5q5 0 25 10
q8 -18 8 -29zM151 518q-13 -23 -13 -66q0 -55 -4 -68q0 -1 -7 24q-1 6 -1 9q0 59 8 109q5 7 15 26q0 4 2 -34zM150 275l-5 -41q-1 8 -11 21v45l5 -16q3 -9 11 -9zM150 49q-11 -11 -16 -11q-12 30 -12 38q0 10 6 22.5t15 14.5q-7 8 -10 9q3 76 6 76q11 -11 11 -25v-124z
M152 -7h-6v30h6v-30z" />
    <glyph glyph-name="G" unicode="G" 
d="M821 177q0 -6 1 -18t1 -18q0 -35 -30 -92q-9 -17 -31 -39t-38 -30q-40 -19 -140 -22q-10 0 -29.5 -4.5t-29.5 -4.5q-15 0 -44.5 1.5t-44.5 1.5q-4 0 -15 5t-15 5q-9 0 -27.5 -3t-27.5 -3q-105 0 -161 66q-21 24 -27 44q-5 15 -5.5 47.5t-3.5 45.5q-18 77 -18 182
q0 238 41 306l36 24q9 11 36 28q21 8 63 15q34 6 44 6h244q45 0 61 -4q56 -14 99.5 -65.5t43.5 -108.5q0 -50 -48 -50q-14 0 -26.5 9t-12.5 22.5t-3 35.5q-10 24 -29 53q-25 37 -41 38q-151 7 -187 7q-28 0 -71 -11q-25 -6 -48 -28q15 -3 41 -6q14 -1 46 0q22 1 47 1
q5 0 14 -1t14 -1q17 0 52 1.5t52 1.5q16 0 43 -27q2 -3 3 -10q23 -30 34 -56q-1 -5 2 -17q10 -18 15 -35q-34 16 -48 40q-1 13 -12 37q-23 35 -50 41q-18 4 -78 4q-73 0 -174 -8q-3 -1 -44 -16q2 9 23 39q-2 2 -10 2q-26 0 -39 -39q-19 -56 -22 -135q0 -8 -2.5 -25t-2.5 -26
q0 -3 2 -21q0 -132 9 -206.5t74 -109.5q14 -8 46 -10q56 -4 71 -4h120q4 0 13 4t14 4q23 3 45 5q27 4 43 14q6 4 16 16t10 18q0 -4 -22 71q-5 -4 -28 -36h-16q0 -1 2 19q1 11 -0.5 20.5t-10.5 12.5q-27 7 -84 12q-65 4 -88 9q-34 7 -80 47v12l42 -21q1 0 14 -16q8 -9 13 -9
q11 0 38 4.5t40 4.5q15 -3 64 -3q18 0 43 13q-6 24 -76 24q-37 0 -44 -4l-12 -12q-11 -11 -15 -11q-12 0 -27 11q-31 22 -31 49q0 9 11.5 22.5t20.5 13.5q-1 0 5 -1q0 -2 4 -2q3 0 10 5l10 5l181 3q27 0 73 -12q55 -15 61 -32q18 -54 18 -115zM382 267h-6v13h6v-13zM91 466
h-6v29h6v-29zM91 416h-6v39h6v-39zM121 78q-4 -3 -6 -3q-21 65 -25 94q-1 9 5 43q-12 17 -12 30l5 164q2 -75 9 -144q1 -11 24 -184zM410 -85h-9v5h9v-5zM130 49h-5v22h5v-22zM225 -46h-9v6h9v-6zM171 -6q-14 12 -31 29v12q9 -9 31 -41zM715 209q-5 21 -19 21h-14v-1
q-1 0 -2 -1t-1 -6q0 -16 32 -21q0 4 4 8z" />
    <glyph glyph-name="H" unicode="H" 
d="M742 618h-6v39h6v-39zM741 509q-8 -8 -18 -8v83q5 7 17 22q0 2 2 -47q1 -24 -1 -50zM909 -56q0 -20 -18.5 -38t-38.5 -18q-24 0 -30 4q-22 14 -29 44q-3 12 -3 23q0 9 4.5 23.5t4.5 16.5v91q0 10 -5 36q-2 9 -13 43q-11 31 -11 36q0 4 14.5 21.5t14.5 20.5q0 19 -16 32.5
t-35 13.5q-22 0 -22 -20q0 -5 14 -10v-5q-1 -5 -1 -8q-2 -6 -2 -14t18 -17v-16q-2 -4 -10 -15q-2 -72 -5 -99q-10 0 -16 8q1 40 -17 98q-1 7 -12 16q-13 5 -61 5q-40 0 -85 3l-56 4l-152 -7q-17 -1 -34 15q16 12 82 11l199 -4q23 0 82 4q15 1 34 13v10q-15 20 -67 23
q-16 1 -177 1q-59 0 -85 -9q-6 -2 -27.5 -16.5t-24.5 -14.5q-4 0 -18.5 9t-18.5 9q-23 0 -23 -41q0 -16 4 -41q0 -25 2 -75.5t2 -75.5q0 -74 -10 -123q-3 -13 -21 -21q-13 -6 -21 -6q-80 0 -80 93v708q21 46 58 46q4 0 16 -5.5t15 -5.5t14 11q6 -3 17 -21t11 -25v-92
q0 -32 -7.5 -97t-7.5 -97q0 -41 30 -41q4 0 14.5 3t16.5 3q11 2 102 2q4 0 8 -4t8 -4q6 0 18.5 4t18.5 4q23 0 68.5 -4t68.5 -4q63 0 167 19q8 1 18 10.5t10 16.5q0 4 -16.5 27t-16.5 26t8 21.5t9 24.5q18 105 18 127q0 16 -5.5 43.5t-5.5 37.5q0 7 21 32q6 2 10 2
q14 0 42 -15.5t33 -29.5q9 -26 9 -88v-668zM742 20h-6v60h6v-60zM742 -10h-6v14h6v-14zM742 -61h-6v17h6v-17zM757 -90h-7v21h7v-21zM97 23q-2 26 -3 67q-10 20 -10 24q0 6 6.5 16.5t6.5 16.5v-124z" />
    <glyph glyph-name="I" unicode="I" 
d="M247 472h-6v14h6v-14zM247 428h-6v28h6v-28zM247 389h-6v11h6v-11zM387 6q0 -26 -12.5 -45t-37.5 -19q-22 0 -34.5 18.5t-12.5 40.5q0 6 6 29t8 38q-2 -14 -2 80q0 2 3 8t3 10v298q0 4 -4 83q0 9 -5.5 28.5t-5.5 29.5q0 32 32 32q2 0 13 -6t14 -6q-1 0 5 1q0 2 4 2
q24 0 24 -47q0 -44 -8 -79q0 -3 -5 -14t-5 -15v-264q0 -4 5 -18.5t5 -18.5q1 -4 -4 -47q0 -19 7 -59.5t7 -59.5z" />
    <glyph glyph-name="J" unicode="J" 
d="M611 97q-2 -7 -13 -27q0 4 1 21v30v51q0 -13 6 -39t6 -36zM773 564q0 -24 -9 -37q-13 -18 -16 -28l4 -316l10 -97v-116q0 -24 -30 -61q-56 -69 -149 -69q-8 0 -22 3.5t-20 3.5q-13 0 -38.5 -5.5t-38.5 -5.5q-12 0 -35.5 2t-35.5 2q-7 0 -34 7t-34 7q-19 0 -22.5 -7
t-30.5 -7q-32 0 -48 6q-8 3 -43 23q-6 3 -31 54q-9 9 -20 26q-19 63 -19 85q0 14 13.5 41t24.5 27q17 0 26 -12q-1 -4 0 -21h2q1 -1 2.5 -2t7.5 -1q4 0 11.5 5t8.5 6q12 -3 20.5 -29t4.5 -38q-1 -3 -5 -11t-3 -13q22 -18 52 -38q32 -7 62 -17q7 -18 39 -26q25 -6 50 -5
q3 -5 11 -28q11 7 27 27q66 4 84 7q45 7 78 24q8 4 27 23t19 25v518q0 50 -22 141q35 23 41 23q9 0 63 -20q7 -11 13 -29q5 -22 5 -47zM98 -84h-6v20h6v-20zM113 -106h-7v21h7v-21z" />
    <glyph glyph-name="K" unicode="K" 
d="M694 458q-1 -1 -6 -9q-16 15 -16 30q16 -7 22 -21zM768 695q0 -24 -8 -34q-11 -14 -46.5 -33t-67.5 -47l-61 -56q-6 -1 -15 -6l-83 -77q-34 -33 -75 -82q-6 -3 -36 -20q-10 -6 -10 -20q0 -12 63 -77q55 -56 97 -90.5t126 -111.5l113 -103q3 -25 -16 -48t-44 -23
q-28 0 -48 20q-13 21 -50 74q-22 31 -106 94q-11 8 -26.5 29.5t-23.5 29.5q-14 13 -71 53t-65 40q-4 0 -7 -4t-8 -4q-15 0 -20 23t-26 26v14q2 2 15 5q18 23 18 31q0 4 -5.5 10.5t-11.5 6.5t-14 -8l-15 15q-5 -3 -12.5 -10t-7.5 -14q4 -124 5 -235q0 -19 -3 -57t-3 -56
q-2 -5 -9 -5q-8 0 -37.5 11.5t-34.5 11.5h-13q-3 -3 -3 -8q0 -23 73 -44q4 0 10 3t10 3q-16 -51 -61 -51q-27 0 -48 22t-21 49q0 15 13 54q0 17 4 58q3 36 2 58l-3 63q0 16 -3 55q-2 36 -1 57q0 12 7 36.5t7 30.5q0 7 -7 26t-7 30q0 20 1.5 60t1.5 60v92q0 10 -5.5 29
t-5.5 28q0 27 14 46t40 19l34 -6q7 -1 17 -3q25 -15 25 -98q0 -49 -4 -167q0 -8 -7.5 -27.5t-7.5 -23.5q0 -14 10.5 -29.5t23.5 -15.5q32 0 86 71q18 11 34 23q14 17 45 48q3 1 26 16q72 70 168 150q25 21 112 57q2 1 25 1q27 0 34 -11q3 -5 3 -34zM604 -114q-28 17 -95 65
l-255 208v25h20q4 0 87 -72l133 -116q55 -46 110 -110zM29 336h-13v6h13v-6zM47 31q0 4 -4.5 12.5t-4.5 12.5q0 7 1 22t1 22q-2 7 -5 20q-5 18 -5 21q0 25 14 28z" />
    <glyph glyph-name="L" unicode="L" 
d="M750 -90q0 -25 -22 -39q-18 -11 -38 -11q-9 0 -28 4q-25 4 -30 5q-24 3 -71 3h-149q-3 0 -14 7t-16 7q-2 0 -24 -10q-8 -4 -13 -4q-108 -9 -93 -9q-40 0 -65 17q-6 4 -16.5 18.5t-10.5 20.5q0 9 14 51q6 31 5 52l-15 604q-7 18 -7 41q0 22 8 41q10 25 29 25q8 0 33 -6
t37 -6q5 -9 11 -23q1 -5 1 -42q0 -13 -3 -46l-4 -47v-332q0 -58 -2 -68q-10 -20 -10 -37q0 -4 3.5 -9.5t6.5 -11.5q4 -15 5.5 -45.5t4.5 -44.5q4 -17 28 -32q11 -2 37 -5q10 0 39.5 -9t47.5 -9t54 6t54 6q33 0 147 -13q12 -15 25 -15l-8 -8q11 -9 19 -9q15 0 21 3
q0 -1 4.5 -8.5t4.5 -11.5zM102 536h-6v13h6v-13zM102 461h-6v36h6v-36zM102 364h-6v36h6v-36zM102 297h-6v40h6v-40zM108 242q-2 -2 -5 -6.5t-5 -6.5q0 25 1 26q2 -6 9 -13zM115 162h-17v37q2 0 6 2q-1 0 7 1zM116 112l-5 -6q-13 0 -13 6h18zM114 58q-10 10 -10 16
q0 7 10 17v-33zM117 10h-7v32h7v-32zM117 -20h-7v17h7v-17zM675 -73q0 7 -8 15q-1 0 -6 -4t-10 -4q-9 0 -58 7l-58 8q-34 0 -46 -21q39 -16 63 -16h43q10 0 38 8.5t42 6.5z" />
    <glyph glyph-name="M" unicode="M" 
d="M748 -15l-18 -4q-6 18 -2 35q-1 1 -9 11q-8 31 -25 116q-2 5 -9 14q-2 -1 -7 -2t-16 -1q27 64 49 104h21q12 -48 12 -95v-98q0 -7 2 -22.5t2 -22.5v-35zM659 131h-6v18h6v-18zM906 -40q1 -92 -60 -92q-21 0 -44 27q-16 19 -16 48q0 5 4.5 15t4.5 13q6 59 6 88
q0 87 -9 137q-3 18 -18 66.5t-15 50.5l16 21.5t18 46.5q0 4 9 13q4 0 19 -15q13 39 13 69q0 49 -8 124q-1 1 -4 6t-5 8h-10q-51 -88 -72 -135q-9 -9 -20 -29q-6 -36 -25 -128q-10 -42 -30 -87q-5 -7 -56 -109q-8 -12 -38 -27t-45 -15q-12 0 -58 20q-8 6 -11 11v19
q0 14 -7 21q-2 0 -15 -11l-17 17q19 19 19 30t-29 69q-28 55 -39 69q-33 31 -73 75q-2 16 -10 41q-1 3 -13 15t-12 18q0 14 44 37l2 2t2 6q0 16 -33 61q-25 34 -36 45q-13 -10 -16 -43l-2 -50q0 -3 -6 -41q-4 -26 -4 -32q0 -7 9 -31t10 -31l3 -331q0 -10 1 -30t1 -31
q0 -128 -56 -128q-24 0 -38 4t-32 40q-15 31 -15 44q0 4 5 16.5t5 17.5q3 26 3 70v47q-1 24 -0.5 27.5t-1.5 96.5q-3 144 -3 326q1 11 6 76q-1 14 -1 64q3 3 9 11q1 11 12 26.5t21 15.5h21q6 0 13 1h7q37 0 50 -9q4 -3 24 -33q11 -17 38 -72q31 -47 57 -94l53 -105
q11 -20 38 -75q29 -58 30 -62q33 -57 60 -57q4 0 16 9l20 15v15q-7 6 -12 6q-6 0 -10 -4q0 10 -4.5 29.5t-4.5 28.5q0 15 8 23q16 12 44 38q4 8 34 60q1 12 9 38l52 123l39 89q13 28 29 36q12 5 48 5q87 0 87 -92v-98l11 -150zM752 -43l-6 -67q-2 6 -6.5 18t-6.5 18l4 39
q5 0 15 -8zM451 42q-38 -8 -105 53q-22 19 -40 52q-6 13 -18 37q-32 63 -32 69q0 4 4 16t4 19h17q39 -63 90 -155q10 -24 34.5 -52.5t45.5 -38.5zM55 7q-14 16 -14 24q3 6 14 40v-64z" />
    <glyph glyph-name="N" unicode="N" 
d="M699 621h-6l-4 21h6zM699 605l-4 -25h-6l4 25h6zM697 218q-10 3 -13 20q-1 13 -3 26q-10 52 -10 55q0 4 3.5 13.5t3.5 17.5v168q0 16 -6 50h25v-350zM873 -16q-4 -11 -4.5 -35.5t-4.5 -35.5q-9 -25 -40 -40q-27 -13 -56 -13q-43 0 -60 10l-58 36q-8 5 -15 22q3 14 2 33
l-60 116q-8 6 -24 26q-34 64 -114 198q-27 45 -86 123q-14 18 -42.5 27.5t-37.5 17.5q1 19 -2 59q-4 2 -40 31q12 20 24 32q13 0 20 -12h17q3 3 3 8q0 14 -40 51q-2 1 -11 1q-46 0 -46 -100q0 -19 7.5 -57.5t7.5 -57.5q0 -17 -4 -29l7 -440q2 -99 -59 -99q-35 0 -51 19
q-14 16 -22 53q-7 34 -5 42q11 44 11 34v100q0 5 -5 26t-6 26q1 39 2 135q0 2 -3 10t-3 12v123q0 5 4.5 15t4.5 15q2 36 2 89q0 25 -2 74t-2 42q0 9 5.5 26.5t10.5 23.5q18 19 89 19q57 0 77 -11q30 -17 70 -83l226 -377q11 -9 24 -24q31 -43 67 -107q71 -125 112 -125
q22 0 24 35q-9 5 -24 18q2 6 2 8q0 10 -17 37t-17 36q0 6 10 33t11 36l9 56v305q0 19 -7.5 57t-7.5 56q0 15 11 30.5t25 15.5q55 0 71 -33.5t16 -105.5zM664 -142q-6 -6 -11 -6q-19 0 -49 36l-30 39q-35 35 -77 102q-46 74 -70 107q-16 22 -74 124q-5 2 -16 12
q-28 50 -55 88q-5 7 -19 15q-8 -14 -15 -34q-17 60 -17 86q0 9 15 24q-2 6 -15 20h18q16 -14 29 -27l213 -346q66 -111 89 -143q27 -38 84 -97zM42 -9h-6v118h6v-118z" />
    <glyph glyph-name="O" unicode="O" 
d="M751 319q0 -113 -25 -189q-10 -29 -50 -64.5t-69 -35.5q-17 0 -51.5 -1.5t-51.5 -1.5q-12 0 -35 3t-35 3q-8 0 -25 -3t-25 -3q-29 0 -32 1q-7 0 -21 6.5t-17 6.5h-4q-2 -1 -5 -2t-8 -1q-12 0 -20 8q-14 13 -17 15q-44 26 -60 74q-9 26 -14 83q-3 38 -14 91l-12 59
q0 -16 12 131q1 2 6 11q-5 12 -1 21q4 14 19 46q27 36 59 50q28 12 146 24q1 0 47 4q23 0 57.5 -3t56.5 -4q120 -6 164 -111q9 -20 11 -51l4 -48q2 -10 6 -35q4 -48 4 -84zM580 -6h-13v5h13v-5zM137 255h-4v23h4v-23zM376 -6h-15v5h15v-5zM147 207q-7 3 -13 12v22h13v-34z
M355 -6h-28v5h28v-5zM307 5h-15v4h15v-4zM243 36h-12q-25 23 -54 57q-6 7 -16.5 31t-10.5 33q0 3 4 6q8 -5 18 -35q5 -16 13 -29q17 -28 58 -63zM280 15h-12v5h12v-5zM264 23l-20 3v5l20 -3v-5zM671 332q0 203 -51 245q-20 17 -44 19q-60 6 -115 6q-75 0 -131 -17
q-43 -13 -57 -54q-2 -7 -10 -43q-1 -11 -4 -39q0 -11 -1 -25t-1 -16q-1 -38 -1 -64q-2 -14 -2 -16q1 -5 2 -32q1 -16 1 -48q0 -5 4.5 -13.5t4.5 -10.5q4 -81 50 -114q40 -27 124 -27h29q43 0 97 9q27 4 51 16q31 15 36 59zM631 274q0 -10 -15 -76q-4 9 -4 26q0 38 3 56
q10 30 10 33q0 -1 -4 17q-4 12 -6 20q2 23 0 71l-17 72q-7 32 -38 41q-48 14 -106 14q-67 0 -126 -14q-11 -3 -33 -26l-2 5t-2 7q0 24 33 35q13 4 89 7q55 2 99 2q36 0 70 -11q10 -3 18 -11q30 -36 26 -94q1 -1 3 -5t2 -8v-161z" />
    <glyph glyph-name="P" unicode="P" 
d="M810 457q0 -82 -31 -141q-5 -10 -18 -21l-24 -21q-5 -8 -23 -24q-41 -23 -66 -23q-9 0 -108 5l-107 6q-16 0 -31 1q-22 1 -31 0q-15 -2 -28 -12q-6 -3 -18 -17q-5 -5 -17 -5q-4 0 -12.5 2t-12.5 2q-25 0 -34 -21q-4 -9 -4 -33v-5q0 -21 -2 -35q-1 -1 -4 -8q-5 -10 -5 -15
q0 -3 8 -21t8 -24q9 -60 9 -74q0 -85 -64 -85q-30 0 -34 5q-7 8 -18.5 29t-11.5 29q0 2 12 30.5t13 39.5q8 103 5 164l-26 509q-3 58 70 58h402q44 0 97 -36.5t72 -77.5q34 -75 34 -181zM529 182h-17v6h17v-6zM489 181q-12 -12 -36 -12q-42 0 -57 7l-7 -7h-68q11 21 26 21
q-8 0 75 -5q5 0 16 -4q15 -5 16 -5q15 0 26 11q3 -1 9 -6zM78 494h-6v17h6v-17zM78 439h-6v32h6v-32zM95 271q0 -1 -2.5 -11.5t-2.5 -14.5q-16 52 -16 68q0 14 6 18q-11 8 -11 15q0 8 5 16q3 -1 16 -10q0 -14 2.5 -41t2.5 -40zM91 187h-14v32q1 1 5.5 4.5t7.5 6.5v-20
q0 -6 1 -13v-10zM98 39q-2 -2 -4.5 -6.5t-4.5 -6.5q0 22 -6 75l-6 55q0 10 11 27q4 -11 4 -42q0 -16 -1 -32q-1 -21 0 -36q2 -18 7 -34zM92 -10h-6v14h6v-14zM642 678v6h-14v-6h14zM693 572q0 36 -8 51q-9 19 -38 34q-2 20 -2 19q-12 -11 -14 -11q-3 0 -14 8l-5 3
q-17 11 -21 11q-3 0 -10 -2t-8 -2q0 -2 3.5 -8t2.5 -7q-1 -3 -5 -7h-7q-5 -1 -9 -1q-7 -2 -14 -2q-5 0 -31 9t-31 9q-4 0 -15 -5.5t-16 -5.5q-3 0 -27 11q-1 -10 -24 -15q-30 -7 -34 -9q-42 -24 -63 -24q-7 0 -19.5 4t-18.5 4q-15 0 -35 -27v-150q0 -3 10 -33q2 -32 2 -70
q15 -15 55 -24q37 -14 41 -17q64 0 50 2q136 -17 125 -17q7 0 25.5 5.5t23.5 5.5q4 0 14.5 -2t14.5 -2q20 0 49.5 13.5t34.5 29.5q10 4 13 10q2 16 2 22q0 19 -2 23q-9 16 -31 60q6 2 17 -1q4 6 12 52q7 43 7 56zM628 623q-1 -1 -28 -9l-12 24l8 9h11q11 0 21 -24zM661 519
q0 -22 -14 -36q-5 -4 -17 -15h-17q-1 6 7 24q-9 26 -36 92q-1 1 -17 5q-19 1 -58 8q-1 0 -53 11q26 13 101 13q17 0 52 -20q4 -5 21 -31q8 8 15 14q-1 -25 2 -45q0 -3 7 -9t7 -11zM452 609q-3 -13 -30 -13q-15 0 -26 11q-11 -13 -13.5 -14t-15.5 -1q-12 0 -35 17
q18 0 31 -10l3.5 3t7.5 7.5t9 4.5q11 0 69 -5zM313 591h-10v6h10v-6zM636 536l-6 6l-3 -4l5 -5z" />
    <glyph glyph-name="Q" unicode="Q" 
d="M820 38q0 -40 -37 -40h-9q-3 6 -12 16q-37 24 -41 24q-10 0 -22 -4q-9 -7 -34 -24q-40 -26 -68 -29q-84 -10 -164 -10q1 0 -15 2q-10 2 -18 3l-84 6q-24 -1 -62 27q-2 0 -2.5 -1.5t-4.5 -1.5q-7 0 -30 39q-5 5 -13 18q0 11 -4 26q-6 5 -13 14q0 3 -2 27q-5 13 -13 46
q-15 128 -15 170q0 32 5 87q7 71 8 89q2 27 11 42q32 52 87 72q7 2 41 11q5 -1 23 -1q21 3 65 7t81 4q1 0 10 -2.5t12 -2.5q4 0 12.5 1t12.5 1q56 0 93 -9q7 -5 35 -19q40 -16 69 -59q26 -38 35 -85q19 -99 19 -195q0 -70 -15 -153q0 -16 24 -40q28 -28 33 -39q2 -5 2 -17z
M738 -18l-28 3v5l28 -3v-5zM119 345l-17 -10v59q0 32 4 47q3 2 5 5q7 21 7 43q0 -8 -3 -34q-1 -15 -4 -35v-58q0 -9 8 -17zM109 315h-6v16h6v-16zM393 -60l-2 -4l-10 3v4zM250 -27q-15 0 -75 46q-8 12 -25.5 42.5t-32.5 88.5q-2 19 -5 70q0 6 -3.5 18t-3.5 17v54
q3 -5 10 -19q2 -5 -5 -15q0 -1 3 -4.5t5 -9.5q2 -28 12 -78q0 -17 4 -41q19 -71 57 -119q27 -35 59 -50zM316 -53h-16v5h16v-5zM709 206q-43 28 -43 60q0 3 8 29q9 32 9 82q0 34 -1 38q-9 34 -25 73q-8 31 -13 48q-10 33 -38 42q-32 10 -106 10q-50 0 -121 -14
q-41 -8 -50 -11q-37 -12 -49 -23q-10 -7 -15 -17q-11 -21 -16 -76q-11 -44 -11 -118q0 -139 33 -220q4 -6 26 -32q10 -12 48 -20q32 -7 55 -7q22 0 67 1.5t67 1.5q3 0 8 3t7 3q3 0 8 -3t8 -3q83 0 122 59q2 8 5 26q5 11 12 44q5 23 5 24zM645 348q0 -51 -15 -60q-4 23 -6 92
q-2 60 -11 89q-13 42 -48 57q-17 3 -63 6q-56 3 -60 3l-131 -8q4 16 36 22q21 4 63 4h169q3 0 7 -2q25 -16 32 -28q27 -47 27 -175zM639 120q0 -4 -3 -9t-3 -6h-15q-19 0 -36.5 13t-21.5 32q-3 14 -40 44l-25 18q-2 1 -18 1q-1 4 -8 14t-7 15q0 9 15 46h15q33 0 74 -37
q14 -6 40 -27q23 -36 29 -62q4 -18 4 -42zM537 120l-5 -1q-3 -2 -9 -2q-14 0 -34 18q-39 35 -64 70q-4 10 -12 26l4 25l93 -102q11 -7 19.5 -16t7.5 -18z" />
    <glyph glyph-name="R" unicode="R" 
d="M841 6v-17q0 -5 1 -13v-10q0 -81 -51 -81q-40 0 -52 35q-16 32 -16 45q0 6 4.5 19.5t4.5 20.5q-1 30 -11 91l-15 91q-2 15 -21.5 32t-34.5 17q-38 0 -107 3q-46 2 -69 2q-88 0 -139 -9q-7 -1 -30.5 -9t-28.5 -8q-4 0 -14 3.5t-16 3.5q-10 0 -16.5 -20.5t-6.5 -32.5
q3 -101 3 -130v-101q0 -9 -12 -31t-19 -25q-15 -4 -27 -4q-30 0 -51 26t-21 57q0 8 7 36.5t4 41.5l-3 656q14 47 34 52q31 8 49 8l368 4q47 1 114 -9q15 -2 33 -14l30 -21q31 -15 56 -47t31 -66l22 -117q0 -93 -17 -137q-7 -18 -20 -37q-16 -25 -19 -26q0 -28 28 -123.5
t28 -155.5zM57 619h-7v21h7v-21zM55 463q-7 -1 -9 -1q-5 -2 -8 -2v80l17 -4v-73zM695 -104q-15 21 -20 39q0 6 -2 44q-4 10 -13 37q-3 29 -11 88q-7 47 -43 61q-18 7 -79 10q-28 2 -79 0l-41 -1q-10 0 -32 -3.5t-31 -3.5q-6 0 -17 3q-15 4 -20 4q-4 0 -8.5 -3.5t-9.5 -3.5
q-7 0 -17 5q-5 14 -5 16l337 12q18 1 42 -10q11 -5 16 -5q0 -6 6.5 -21t7.5 -21q4 -24 4 -71q0 -13 -1.5 -39.5t-1.5 -39.5q0 -23 5 -43q14 -29 13 -33v-21zM42 412h-6v13h6v-13zM57 341h-7v25h7v-25zM63 261l-9 -257q-7 57 -7 131q0 5 -5 18t-5 17q0 10 4 29q5 23 6 29
q7 51 7 102q2 -22 9 -69zM722 505q-3 32 -12 112q-1 10 -23.5 29t-32.5 19q-52 0 -156 5q-55 0 -141 -9q-15 -2 -32 -11q-20 -11 -25 -23q24 0 73 -2t73 -2q20 0 92 5l66 5q21 0 23 -1q11 -11 19 -16q11 0 18 -1q21 -76 21 -119q0 -17 -7 -38q-8 -24 -20 -32q-7 18 -10 57
q-1 20 -5 60q-4 37 -26 44q-47 14 -113 13l-229 -4q-4 -7 -17 -18q-14 11 -14 20q0 20 37 30q-7 0 -20.5 4.5t-17.5 4.5q-22 0 -27 -72q-1 -14 -1 -87q0 -76 1 -87q7 -69 32 -69q4 0 13 2t13 2q5 0 24.5 -5.5t21.5 -5.5q6 0 16 6l14 -1t30 -1q4 0 48 1q59 2 115 3h46
q27 0 35 -1q25 0 54 14.5t39 34.5q4 8 0 27q-1 9 -5 26q-1 15 4.5 42t5.5 39z" />
    <glyph glyph-name="S" unicode="S" 
d="M799 229q0 -94 -52 -157q-55 -67 -147 -73q-191 -12 -227 -12q-17 0 -51.5 2t-51.5 2q-9 0 -52 17q-11 4 -40 41q-4 1 -16 5q-30 65 -30 86q0 65 32 65q5 0 7.5 -2.5t5.5 -7.5q28 -8 43 -7q0 -1 12 -31q18 -47 40 -57q15 -7 36 -13q61 -11 125 -11l24 1q30 0 63 1l87 2
q27 0 53 25q5 11 12 30q15 29 15 42v4l-2 8t-1 11v111q-28 47 -90 48l-232 3q-8 0 -57 -4l-58 -5q-5 0 -11 4t-8 4q-41 14 -69 45q-8 9 -19 43q-8 8 -17 23q-11 60 -11 80q0 15 20 115q5 6 15 20q16 30 51 47q19 6 57 19q18 7 118 12q39 2 102 2q92 0 139 -11q9 -5 23 -11
q49 -7 94 -53.5t45 -95.5q0 -16 -1 -19q-3 -7 -21.5 -18.5t-24.5 -11.5q-39 0 -41 29q1 10 -2 34q-5 15 -39 59q-8 10 -34 25q-6 4 -43 8q-3 0 -10.5 4.5t-11.5 4.5t-10.5 -4t-9.5 -5q-12 -4 -40 -4q-6 0 -10 1l-8 2h-5q-47 0 -111 -17q-24 -6 -45 -29q11 -6 53 -6h76h69
q40 -1 50 -1q10 10 9 23h12q2 -12 8 -23l21 -14q2 -3 29 -32q8 -8 14 -27q7 -22 8 -26q10 -16 20 -27q-2 -5 -9 -5q-20 0 -42 40l-28 48q-20 17 -158 17q-53 0 -143 -10q-3 0 -11.5 -3t-12.5 -3h-10l-4 8q15 12 20 26q-3 3 -7 5q-25 0 -42 -38q-7 -16 -7 -57q0 -30 4 -41
q11 -30 28 -44q32 -26 119 -30l65 -3q49 -2 104 -3q64 -1 145 -19q17 -4 42 -25q22 -19 34 -36q34 -48 34 -120zM661 254q0 -75 -49 -82q0 3 5 22t5 22q0 44 -35 70q-58 11 -122 11h-81q-6 0 -17.5 3t-17.5 3h-7q-6 -1 -13 -1q-11 -2 -21 -2q-2 0 -9.5 2.5t-10.5 2.5
q-25 1 -73 9q-16 4 -27 13q-64 50 -89 92q-30 50 -30 123q0 5 5 18q-2 -47 6.5 -63l20.5 -38q47 -123 177 -139l309 -7q4 0 7.5 3.5t7.5 3.5q17 0 51 -24q8 -32 8 -42zM295 -43h-12v5h12v-5zM187 -5h-11q-8 -2 -45 46q-5 3 -18 16q-21 44 -20 48v17q6 -12 37 -56q1 -4 2 -14
zM210 -21l-15 4v6l15 -4v-6z" />
    <glyph glyph-name="T" unicode="T" 
d="M672 517q-3 0 -5.5 -5t-6.5 -6q-27 -6 -59 -6q-8 1 -25 7q0 1 13 9q23 6 45 4zM759 581q0 -46 -50 -46q-4 0 -20 16t-30 16q-31 0 -63.5 -17.5t-39.5 -17.5q-5 0 -6.5 1t-3.5 2h-3q-11 0 -31 -23q-3 -4 -3 -21q0 -3 2 -8t2 -8q2 -28 2 -103v-74q0 -47 7 -114q2 -9 -1 -23
q-3 -18 -3 -23q0 -24 7 -73.5t7 -73.5q0 -17 -16 -46q-5 -9 -17 -15q-1 -1 -18 -1q-20 0 -33 13t-13 33q0 12 9 32.5t10 29.5q5 40 5 47l-9 270q0 3 -16 130q4 13 3 37q-5 9 -19.5 20.5t-23.5 11.5q-1 -2 -16 -8q-1 -1 -18 -1q-11 0 -32.5 4.5t-31.5 4.5q-8 0 -37.5 -10.5
t-35.5 -10.5q-13 0 -30 17t-17 30q0 8 7 24t12 16q29 1 110 5q49 2 71 2q15 0 45 -3t45 -3q5 0 17.5 3t18.5 3h93h63q29 -1 25 -1q17 -2 60 -12q16 -4 16 -32zM391 300l-13 3q4 0 2 6l-3 18q-1 5 0 8t8 8l-8 8q1 76 -8 124q-4 18 -26 21l-111 11q12 0 34.5 5.5t32.5 5.5
q56 2 55 2q4 0 6 -2.5t6 -2.5q3 0 6 1t5 1v11q2 -7 8 -14.5t6 -11.5v-202zM155 535q-4 10 -13 15v19q0 -4 7 -15.5t6 -18.5zM392 287l-4 -8l-4 2l4 7zM393 260q-3 -22 -3 -51q0 3 -3 33q-5 0 -4 7v18q1 0 10 -7zM392 183h-5v13h5v-13zM392 153h-5v17h5v-17zM392 127h-5v14h5
v-14zM402 -47q-8 18 -8 19q0 8 8 40v-59z" />
    <glyph glyph-name="U" unicode="U" 
d="M686 623h-7v13h7v-13zM691 362q3 -71 2 -108q0 -13 -3 -59q-2 -36 -2 -58q0 -2 -8 -18q-5 75 -8 200l-1.5 2.5t-3.5 4.5v168q7 0 14 7v10q0 14 -14 37h13q7 -10 7 -126q0 -11 2 -30q2 -23 2 -30zM848 119q-3 -114 -72 -162q-57 -40 -106 -40q-5 0 -17.5 2t-17.5 2
q-10 0 -33.5 -5.5t-32.5 -5.5l-197 7q-5 0 -22 -7t-22 -7q-6 0 -11 2h-7q-4 1 -5 1q-32 0 -77 16q-17 6 -43 28q-34 29 -49 57q-12 23 -22.5 57t-10.5 44q0 9 7 34t7 36l-35 340q0 18 4.5 55t4.5 55q0 8 -2 23t-2 23q0 20 24 39q11 9 24 9h26q10 1 17 10q11 -2 21 -25
t10 -36v-175q0 2 6 -104l7 -140q2 -46 7 -110q1 -8 -1 -37q-1 -21 8.5 -38l19.5 -34q10 -13 54 -26q40 -12 61 -12q115 0 158 3l87 6q53 4 74 14q34 15 43 57q2 11 -5 42q-1 6 5 47q15 94 15 79l-18 452q-1 15 2 24q4 14 21 28q27 -18 40 -18q3 0 14 11q22 -18 28 -62
q1 -7 4 -71q-1 5 -1 -29q0 -13 3 -37.5t3 -36.5zM588 -137h-102v6h102v-6zM457 -137h-59v6h59v-6zM336 -138h-13v7h13v-7zM276 -123h-24v6h24v-6zM230 -109h-17v6h17v-6z" />
    <glyph glyph-name="V" unicode="V" 
d="M630 445h-6v11h6v-11zM615 402h-7v22h7v-22zM599 348h-7v22h7v-22zM583 305h-6v10h6v-10zM902 710q0 -68 -36 -155l-41 -66q-1 -16 -6 -39l-28 -67q-31 -72 -66 -245q-5 -23 -18 -56l-23 -54q0 -1 -2 -23q-3 -4 -17 -35q-14 -66 -41.5 -90.5t-92.5 -24.5q-10 0 -69 16
q-7 2 -14.5 24t-21.5 23q4 12 4 29q0 23 -15 66l-34 97q-9 30 -60 140l-66 137q-20 70 -61 188q-7 19 -56 93q-13 19 -13 46q0 43 37 43q14 0 39.5 -7t31.5 -15q32 -40 58 -113q12 -36 38 -108l109 -293q30 -57 55 -122q22 -55 65 -55q8 0 12 1q-3 -4 -8 -24v-34q2 2 19 11
q0 3 3.5 12.5t3.5 18.5q0 -1 -4 13q-5 11 -5 18q-3 68 16 113q11 5 29 24q1 1 49 149q6 7 17 31q20 88 39 137q0 1 2 23q1 5 47 191q17 26 32 52h16q4 0 18.5 -12t17.5 -14q8 0 27 -2q13 -4 13 -42zM99 633h-7v26h7v-26zM414 -116l-4 -12q0 4 -8 6.5t-10 5.5
q-52 106 -106 235l-82 202q-2 4 0 20q-2 5 -15 26q-1 4 -4.5 15.5t-6.5 19.5l-21 40q-51 137 -51 157v29q18 -17 21 -25q18 -55 22 -78q6 -6 10 -11q10 -41 33 -106q16 -25 30 -61q0 -12 1 -21q26 -45 45 -98q17 -46 62 -152q0 -5 3 -19l66 -153q5 -5 15 -20z" />
    <glyph glyph-name="W" unicode="W" 
d="M893 637q0 5 -10 -25q4 -9 5 -21q-2 -33 -22 -200q-37 -298 -71 -497q-3 -15 -32 -32q-9 -5 -24 -5q-20 0 -31 9q-24 19 -28 35q-2 20 -10 54q-30 76 -41 99q-27 58 -54 79q7 17 4 33q5 5 16 19q1 4 1 26q0 66 -55 103q-5 0 -12 -10q-19 -34 -39 -74q0 -2 -2 -22
q-9 -9 -9 -24q0 -6 8.5 -25t8.5 -23q0 -17 -87 -246q-8 -20 -28 -32q-1 -1 -22 -1q-26 0 -33 5q-23 21 -34 79q-7 35 -25 100l-3 11l-37 153l-58 248q-33 150 -33 156q0 13 10.5 27t23.5 14q18 0 38 -14t30 -37q11 -27 40 -156q24 -109 32 -161q4 -28 2 -80q-1 -12 23 -62
q27 -58 47 -58q12 0 30 40q13 29 15 44q1 10 -4 47q-3 18 -3 30t2 20q19 78 43 118q4 7 18.5 13t23.5 6q65 0 95 -36q21 -26 39 -98q5 -21 4 -29q-5 -33 22 -79q41 -70 46 -81q0 -19 10 -52q15 33 17 55q16 10 16 22q0 4 -2 11t-2 10q0 9 11 30q5 10 5 33q0 21 -1 22l-31 54
q0 5 9 48q6 28 14 71q7 47 20 150q7 58 18 118q5 15 26 15q5 0 20 -7t21 -7q5 0 8 2t7 2q14 0 14 -17zM595 -14q-3 13 -20.5 43.5t-17.5 34.5q0 3 2 9q2 2 3 5q16 -12 25 -41t8 -51zM196 577l-2 6l-6 -3l2 -6zM196 519q-16 9 -20 9q0 -7 3 -13q2 0 9 2t8 2z" />
    <glyph glyph-name="X" unicode="X" 
d="M714 11q0 -13 -13 -24t-26 -11q-19 0 -35 19q-2 11 -8 37q-14 41 -134 173q-1 6 -6 17t-23 25q-4 4 -21 4q-20 0 -24 -4q-8 -8 -21 -29t-13 -29v-10q-7 0 -12 5q-3 -10 -26.5 -24t-30.5 -35q2 -12 2 -26q-8 -26 -20 -39q-1 14 0 42l-4 4q-5 -10 -8 -19q-6 -5 -22 -20v-11
q7 -7 14 -7q8 0 13 11q2 -17 -11 -35.5t-20 -30.5q-12 -7 -24 -19q-5 -5 -17 -5q-39 0 -39 39q0 13 15.5 38t26.5 27q3 -1 12 -8h8l5 5v7q-1 3 -15 9q20 27 83 118q67 96 67 106q0 17 -9 36l-19 20q-16 37 -101 153q-9 14 -33 46l-22 23t-18 26q0 4 7.5 12t12.5 8
q12 0 43 -12q-3 -10 -3 -21q0 -22 17 -22q4 0 11 9q18 -34 45 -76q10 -4 25 -18q1 -6 10 -22q12 -8 24 -22q33 -54 69 -79q29 26 47 54q1 2 16 44q26 34 48 66l29 45.5t33 41.5h16q3 -14 4 -16q4 -7 12 -12q31 31 36 31h14l7 -7q-4 -14 -13 -32q-8 -11 -31 -36
q-28 -29 -34 -29q-5 0 -9 3t-8 4.5t-5 1.5q-5 -5 -5 -11q0 -5 3.5 -13t3.5 -12q0 -8 -34 -41q-12 -11 -35 -35q-11 -20 -20 -40q1 -8 -2 -26q-3 -5 -18.5 -18.5t-15.5 -15.5q0 -13 7 -26q6 -2 12 -8q0 -5 -1 -9q59 -55 120 -141q6 -14 22 -47q6 -11 12 -11q3 0 3.5 1.5
t4.5 1.5q6 0 24 -13q10 -7 18 -22q-1 -5 -1 -20q8 -5 8 -14zM667 -156h-14q0 24 1 25q5 -4 13 -15v-10zM459 309v13h-14q7 -13 14 -13zM460 285l-2 4l-7 -3v-4zM241 -17v13h-5v-13h5z" />
    <glyph glyph-name="Y" unicode="Y" 
d="M657 393q-1 -3 -4 -4.5t-6 -4.5q2 -6 -19 -59l-56 -112l-22 -43q-12 -16 -45 -71q-3 -6 -17 -48q0 -10 -1 -17q-9 -9 -9 -16q0 -4 5 -11.5t5 -28.5t-17 -68q-1 -7 5 -12q-3 -5 -3 -10q-7 -1 -9 -1q-5 -2 -11 -2q-33 0 -33 39q0 10 5 30t5 30q0 36 -4 60q-2 9 -12.5 29
t-12.5 29q-5 20 -20 46l-26 43l-61 114q-7 15 -22 43q-19 36 -39 55v39q13 8 24 8q13 0 31 -18q14 -32 29 -50l6 -27q38 -59 91 -165q-1 -6 4 -22q6 -3 37 -20q1 -6 8 -13q5 2 17.5 20.5t12.5 24.5q0 5 -10 9q4 12 13 30q20 26 34 67l10 6q0 6 4 13.5t11 17.5q2 5 14 41
q9 26 11 26q5 0 3.5 -1.5t1.5 -1.5t13 36q10 3 14 15q1 7 5 16q8 6 16 6q17 0 17 -14q0 -4 -3 -12q-25 -15 -25 -46q-3 0 -8 -9v-7l4 -4q4 3 39 34v-9zM591 312v14h-5v-14h5zM571 266v12h-4v-12h4z" />
    <glyph glyph-name="Z" unicode="Z" 
d="M592 585q0 -42 -5 -74q-2 3 -29 11q-8 -32 -33 -54q-14 -12 -41 -38h-17l31 66q23 46 41 54q15 -2 29 12q23 23 24 23zM418 547h-10v6h10v-6zM427 482h-6v14h6v-14zM457 408h-7v10h7v-10zM744 624q0 -34 -54 -91l-78 -81q-9 -15 -36 -55q-22 -32 -108 -132
q-69 -81 -108 -131q-28 -46 -84 -129q-20 -17 -41 -33q-31 -26 -31 -36v-22q6 -7 13 -7q3 0 7 6t9 6q7 -3 28 -15q16 10 14 25l10 -2q22 -4 78 -13q-3 -4 -30 -13q5 -11 15 -10q26 0 22 1v-5q-1 -4 -1 -7q-2 -7 -2 -14q42 -18 61 -18q15 0 26 11q3 -9 22 -13q9 -1 27 -5
q-6 -11 -20 -11q-16 0 -65 3l-66 4q-84 0 -106 -11q-6 6 -12.5 21.5t-14.5 23.5l-6 -5t-11.5 -6l-32.5 -6q-2 0 -12.5 -8.5t-15.5 -8.5q-29 0 -44 4q-12 60 -12 57q0 5 6 22.5t6 25.5q7 4 19 20q9 12 17 12q5 0 21 -15q13 6 13 20q0 4 -11 10q-14 8 -15 9l48.5 63t53.5 56
q1 4 3 14q35 2 46 19q9 12 12 49h23q-2 20 8 52q14 23 62 77q15 5 16 5q19 0 28 -9q-10 -21 -19 -21q-3 0 -5 2t-6 2q-16 0 -33 -41q19 -22 29 -22q14 0 31 40q30 27 85 85q4 4 26 48q17 15 31 37q5 15 6 40q7 2 14 6q5 23 23 46q10 5 22 16q4 8 12 26q32 32 32 47
q0 24 -17 24q-4 0 -14 -4t-16 -4q-14 0 -43.5 4t-43.5 4q-26 0 -26 -20q0 -8 8 -18v-17q-4 -2 -20 -9t-21 -7q-9 0 -21 8t-12 17v10q-12 3 -18 0q-3 -2 -8 -5q-6 0 -22.5 7.5t-20.5 7.5q-15 0 -44 -2.5t-44 -2.5q-68 0 -104 -8q-9 -2 -31.5 -9.5t-29.5 -7.5q-14 0 -35 11
q-24 12 -24 25v23q44 -1 120 -10h-1h1q1 -1 5 -1q6 1 17 4q13 1 22 0l10 9q-2 2 -5 6.5t-5 6.5q-7 -7 -15 -7t-16 14h9q6 -1 9.5 -2t9.5 -1q3 0 14.5 5.5t16.5 5.5q8 0 22 -3q18 -4 22 -4q6 0 10 3.5t9 3.5t14.5 -3.5t15.5 -3.5q5 0 49 5l51 6q8 0 23 -2t23 -2q4 0 8 4t9 4
q2 0 27 -5l30 -6l74 -2q44 -3 68 -19q15 -10 15 -48zM722 -103h-25q0 8 8 18q6 -3 17 -18zM678 -102l-6 -3l-3 7l6 2zM622 -101q-2 -3 -20 -25l-34 11q-4 -1 -25 -5l-3.5 -2.5t-6.5 -5.5v-14q22 -14 37 -14q12 0 40 15q1 -1 3 -5.5t2 -9.5q0 -7 -9 -12.5t-17 -5.5
q-16 0 -66 8v29q-1 22 -25 22q-4 0 -8 -3.5t-9 -3.5q-6 0 -18 2t-18 2v17h177zM436 -118q-1 0 -8 -2t-9 -2q-3 17 -15 20h-19h9q8 1 14 1h28v-17zM22 -133q0 -5 -1.5 -8.5t-2.5 -6.5h-17v51l10 -4q9 -29 11 -32zM322 663q0 11 -5 11q-2 0 -6 -3t-5 -3q2 0 8 -2.5t8 -2.5z
" />
    <glyph glyph-name="bracketleft" unicode="[" 
d="M1176 314q-20 11 -25 11t-12.5 -5.5t-12.5 -5.5q-2 0 -8 2t-10 2q-8 0 -15 -7q-1 4 1.5 13t2.5 12q0 8 -12 15q4 8 23.5 14t23.5 20q5 -2 11.5 -11.5t12.5 -9.5q3 0 20 14v-64zM996 354h-24q0 9 8 17q6 -4 16 -17zM954 355l-6 -3l-3 6l6 3zM830 803q-33 -48 -59 -80
q-146 -178 -202 -265q-7 -7 -38 -32t-31 -35v-21q6 -6 12 -6q4 0 8 5t8 5l27 -14q16 4 13 25q24 -4 84 -15q-3 -5 -28 -12q4 -10 15 -10q24 0 20 1v-4q-1 -4 -1 -8q-3 -8 -1 -13q42 -17 57 -17t26 11q4 -12 47 -17q-6 -12 -19 -12q-16 0 -63 3l-63 4q-81 0 -102 -10
q-7 9 -12 21t-13 22l-5 -4t-11 -6q-2 -2 -32 -6q-2 -1 -12 -9t-15 -8q-24 0 -42 5q-2 7 -7 29q-4 16 -4 25q0 6 5.5 23t5.5 23q9 5 19 19q7 11 16 11q2 0 19 -14q13 6 13 19q0 5 -8 9t-17 9q67 93 98 115q1 3 3 13q32 0 44 18q10 14 11 47h22q-1 14 7 49q16 25 60 74
q7 3 15 5q17 0 27 -8q-9 -20 -18 -20q-4 0 -5 1.5t-5 1.5q-15 0 -32 -39q19 -21 28 -21q6 0 20 14q2 10 10 25q18 19 78 74h27zM901 356q-7 -11 -19 -24l-33 11q-4 -1 -24 -5l-3.5 -2.5t-6.5 -5.5v-14q21 -12 36 -12q11 0 38 13l2.5 -4t2.5 -9q0 -8 -12 -14q-7 -4 -13 -4
q-21 0 -63 7v29q-1 21 -24 21q-4 0 -7 -4t-9 -4t-17.5 2t-17.5 2v17h170zM723 339q-7 -1 -8 -1q-5 -2 -9 -2q-1 16 -14 19h4q8 0 17 1h10v-17zM989 11q-22 -74 -94 -129q-1 1 -7.5 7l-11.5 11l5 38q3 -3 6.5 -5t7.5 -5q6 5 7.5 11.5t2.5 15.5q6 6 19 25q4 6 13 36l7 -5
q4 -2 8 -5q11 6 33 21zM957 50q0 -4 -9 -15t-10 -15q-18 21 -28 21q-3 0 -15 -5q-8 -5 -50 -7q-12 0 -23.5 -1l-11.5 -1q-4 0 -17 7q-2 -2 -4 -5q1 -2 5 -9t4 -12v-20q-6 0 -11 2h-8q-5 1 -6 1q-12 0 -19 -7l-5 10t-10 8q1 0 -5 -1q-1 -2 -5 -2q-5 0 -17 7t-17 7
q-14 0 -51 -3l-52 -4q-7 0 -18 3q-15 4 -19 4t-9.5 -3.5t-8.5 -3.5l-9 9l59 12q4 0 13 -2t13 -2t14.5 5.5t14.5 5.5q8 0 26 -7q13 19 13 28q0 14 -18 14q-14 -2 -23 -2q-29 0 -73 4q5 0 15.5 4.5t14.5 4.5q5 0 13.5 -3.5t13.5 -3.5q19 0 57.5 2t57.5 2q43 0 96 -3
q24 -1 75 -6q9 -6 12 -6q4 0 9.5 3.5t9.5 3.5q8 0 16 -8v-11zM816 -83q0 -4 -6 -17q-19 -26 -41 -52q-26 -11 -27 -12q-13 -7 -20 -22q-3 3 -3 7q0 5 6 13q4 0 8 4q13 34 23 54q20 41 50 39q4 4 4 27q0 -7 3 -20.5t3 -20.5zM326 325l-4 -14h-16q-7 6 -1 12q-4 10 -17 10
q-7 -1 -21 -1q-8 8 -8 13q38 8 56 15q7 -21 11 -35zM13 500q0 -24 -5.5 -71t-5.5 -71l1 199q1 -7 5.5 -26.5t4.5 -30.5zM686 -121h-7v23h7v-23zM464 72l-8 -10q-8 8 -15 10h23zM525 71q-15 -1 -15 -19v-25q-25 -7 -49 -7q-16 0 -33 1q-12 0 -23 1l-11 1q-14 0 -23 -10
q-1 0 -6 2t-7 2v20q8 6 27 6l11.5 2.5t14.5 2.5q10 0 35 -7t34 -7q12 0 12 15q0 13 -6 23q-1 -1 39 -1zM53 322q-2 -1 -9 -8q-12 12 -12 14q0 9 12 22l9 -9v-19zM13 330q0 -13 -5 -37l-2 -11q-4 -18 -4 -26v95q0 -2 5.5 -9.5t5.5 -11.5zM16 25q0 -1 -4 -7t-4 -11
q0 -86 6 -195q-8 -8 -13 -8v429q-5 -19 13 -34q-10 -10 -10 -18q0 -77 8 -131q4 -26 4 -25zM759 29q-19 19 -32 19q-4 0 -7 -2l-3 -2q-4 -7 -4 -11q0 -5 4 -9q33 -10 42 5zM706 43q-10 8 -18 8q0 -9 8 -17q2 1 10 9z" />
    <glyph glyph-name="backslash" unicode="\" 
d="M1176 314q-20 11 -25 11t-12.5 -5.5t-12.5 -5.5q-2 0 -8 2t-10 2q-8 0 -15 -7q-1 4 1.5 13t2.5 12q0 8 -12 15q4 8 23.5 14t23.5 20q5 -2 11.5 -11.5t12.5 -9.5q3 0 20 14v-64zM996 354h-24q0 9 8 17q6 -4 16 -17zM954 355l-6 -3l-3 6l6 3zM830 803q-33 -48 -59 -80
q-146 -178 -202 -265q-7 -7 -38 -32t-31 -35v-21q6 -6 12 -6q4 0 8 5t8 5l27 -14q16 4 13 25q24 -4 84 -15q-3 -5 -28 -12q4 -10 15 -10q24 0 20 1v-4q-1 -4 -1 -8q-3 -8 -1 -13q42 -17 57 -17t26 11q4 -12 47 -17q-6 -12 -19 -12q-16 0 -63 3l-63 4q-81 0 -102 -10
q-7 9 -12 21t-13 22l-5 -4t-11 -6q-2 -2 -32 -6q-2 -1 -12 -9t-15 -8q-24 0 -42 5q-2 7 -7 29q-4 16 -4 25q0 6 5.5 23t5.5 23q9 5 19 19q7 11 16 11q2 0 19 -14q13 6 13 19q0 5 -8 9t-17 9q67 93 98 115q1 3 3 13q32 0 44 18q10 14 11 47h22q-1 14 7 49q16 25 60 74
q7 3 15 5q17 0 27 -8q-9 -20 -18 -20q-4 0 -5 1.5t-5 1.5q-15 0 -32 -39q19 -21 28 -21q6 0 20 14q2 10 10 25q18 19 78 74h27zM901 356q-7 -11 -19 -24l-33 11q-4 -1 -24 -5l-3.5 -2.5t-6.5 -5.5v-14q21 -12 36 -12q11 0 38 13l2.5 -4t2.5 -9q0 -8 -12 -14q-7 -4 -13 -4
q-21 0 -63 7v29q-1 21 -24 21q-4 0 -7 -4t-9 -4t-17.5 2t-17.5 2v17h170zM723 339q-7 -1 -8 -1q-5 -2 -9 -2q-1 16 -14 19h4q8 0 17 1h10v-17zM989 11q-22 -74 -94 -129q-1 1 -7.5 7l-11.5 11l5 38q3 -3 6.5 -5t7.5 -5q6 5 7.5 11.5t2.5 15.5q6 6 19 25q4 6 13 36l7 -5
q4 -2 8 -5q11 6 33 21zM957 50q0 -4 -9 -15t-10 -15q-18 21 -28 21q-3 0 -15 -5q-8 -5 -50 -7q-12 0 -23.5 -1l-11.5 -1q-4 0 -17 7q-2 -2 -4 -5q1 -2 5 -9t4 -12v-20q-6 0 -11 2h-8q-5 1 -6 1q-12 0 -19 -7l-5 10t-10 8q1 0 -5 -1q-1 -2 -5 -2q-5 0 -17 7t-17 7
q-14 0 -51 -3l-52 -4q-7 0 -18 3q-15 4 -19 4t-9.5 -3.5t-8.5 -3.5l-9 9l59 12q4 0 13 -2t13 -2t14.5 5.5t14.5 5.5q8 0 26 -7q13 19 13 28q0 14 -18 14q-14 -2 -23 -2q-29 0 -73 4q5 0 15.5 4.5t14.5 4.5q5 0 13.5 -3.5t13.5 -3.5q19 0 57.5 2t57.5 2q43 0 96 -3
q24 -1 75 -6q9 -6 12 -6q4 0 9.5 3.5t9.5 3.5q8 0 16 -8v-11zM816 -83q0 -4 -6 -17q-19 -26 -41 -52q-26 -11 -27 -12q-13 -7 -20 -22q-3 3 -3 7q0 5 6 13q4 0 8 4q13 34 23 54q20 41 50 39q4 4 4 27q0 -7 3 -20.5t3 -20.5zM326 325l-4 -14h-16q-7 6 -1 12q-4 10 -17 10
q-7 -1 -21 -1q-8 8 -8 13q38 8 56 15q7 -21 11 -35zM13 500q0 -24 -5.5 -71t-5.5 -71l1 199q1 -7 5.5 -26.5t4.5 -30.5zM686 -121h-7v23h7v-23zM464 72l-8 -10q-8 8 -15 10h23zM525 71q-15 -1 -15 -19v-25q-25 -7 -49 -7q-16 0 -33 1q-12 0 -23 1l-11 1q-14 0 -23 -10
q-1 0 -6 2t-7 2v20q8 6 27 6l11.5 2.5t14.5 2.5q10 0 35 -7t34 -7q12 0 12 15q0 13 -6 23q-1 -1 39 -1zM53 322q-2 -1 -9 -8q-12 12 -12 14q0 9 12 22l9 -9v-19zM13 330q0 -13 -5 -37l-2 -11q-4 -18 -4 -26v95q0 -2 5.5 -9.5t5.5 -11.5zM16 25q0 -1 -4 -7t-4 -11
q0 -86 6 -195q-8 -8 -13 -8v429q-5 -19 13 -34q-10 -10 -10 -18q0 -77 8 -131q4 -26 4 -25zM759 29q-19 19 -32 19q-4 0 -7 -2l-3 -2q-4 -7 -4 -11q0 -5 4 -9q33 -10 42 5zM706 43q-10 8 -18 8q0 -9 8 -17q2 1 10 9z" />
    <glyph glyph-name="bracketright" unicode="]" 
d="M1176 314q-20 11 -25 11t-12.5 -5.5t-12.5 -5.5q-2 0 -8 2t-10 2q-8 0 -15 -7q-1 4 1.5 13t2.5 12q0 8 -12 15q4 8 23.5 14t23.5 20q5 -2 11.5 -11.5t12.5 -9.5q3 0 20 14v-64zM996 354h-24q0 9 8 17q6 -4 16 -17zM954 355l-6 -3l-3 6l6 3zM830 803q-33 -48 -59 -80
q-146 -178 -202 -265q-7 -7 -38 -32t-31 -35v-21q6 -6 12 -6q4 0 8 5t8 5l27 -14q16 4 13 25q24 -4 84 -15q-3 -5 -28 -12q4 -10 15 -10q24 0 20 1v-4q-1 -4 -1 -8q-3 -8 -1 -13q42 -17 57 -17t26 11q4 -12 47 -17q-6 -12 -19 -12q-16 0 -63 3l-63 4q-81 0 -102 -10
q-7 9 -12 21t-13 22l-5 -4t-11 -6q-2 -2 -32 -6q-2 -1 -12 -9t-15 -8q-24 0 -42 5q-2 7 -7 29q-4 16 -4 25q0 6 5.5 23t5.5 23q9 5 19 19q7 11 16 11q2 0 19 -14q13 6 13 19q0 5 -8 9t-17 9q67 93 98 115q1 3 3 13q32 0 44 18q10 14 11 47h22q-1 14 7 49q16 25 60 74
q7 3 15 5q17 0 27 -8q-9 -20 -18 -20q-4 0 -5 1.5t-5 1.5q-15 0 -32 -39q19 -21 28 -21q6 0 20 14q2 10 10 25q18 19 78 74h27zM901 356q-7 -11 -19 -24l-33 11q-4 -1 -24 -5l-3.5 -2.5t-6.5 -5.5v-14q21 -12 36 -12q11 0 38 13l2.5 -4t2.5 -9q0 -8 -12 -14q-7 -4 -13 -4
q-21 0 -63 7v29q-1 21 -24 21q-4 0 -7 -4t-9 -4t-17.5 2t-17.5 2v17h170zM723 339q-7 -1 -8 -1q-5 -2 -9 -2q-1 16 -14 19h4q8 0 17 1h10v-17zM989 11q-22 -74 -94 -129q-1 1 -7.5 7l-11.5 11l5 38q3 -3 6.5 -5t7.5 -5q6 5 7.5 11.5t2.5 15.5q6 6 19 25q4 6 13 36l7 -5
q4 -2 8 -5q11 6 33 21zM957 50q0 -4 -9 -15t-10 -15q-18 21 -28 21q-3 0 -15 -5q-8 -5 -50 -7q-12 0 -23.5 -1l-11.5 -1q-4 0 -17 7q-2 -2 -4 -5q1 -2 5 -9t4 -12v-20q-6 0 -11 2h-8q-5 1 -6 1q-12 0 -19 -7l-5 10t-10 8q1 0 -5 -1q-1 -2 -5 -2q-5 0 -17 7t-17 7
q-14 0 -51 -3l-52 -4q-7 0 -18 3q-15 4 -19 4t-9.5 -3.5t-8.5 -3.5l-9 9l59 12q4 0 13 -2t13 -2t14.5 5.5t14.5 5.5q8 0 26 -7q13 19 13 28q0 14 -18 14q-14 -2 -23 -2q-29 0 -73 4q5 0 15.5 4.5t14.5 4.5q5 0 13.5 -3.5t13.5 -3.5q19 0 57.5 2t57.5 2q43 0 96 -3
q24 -1 75 -6q9 -6 12 -6q4 0 9.5 3.5t9.5 3.5q8 0 16 -8v-11zM816 -83q0 -4 -6 -17q-19 -26 -41 -52q-26 -11 -27 -12q-13 -7 -20 -22q-3 3 -3 7q0 5 6 13q4 0 8 4q13 34 23 54q20 41 50 39q4 4 4 27q0 -7 3 -20.5t3 -20.5zM326 325l-4 -14h-16q-7 6 -1 12q-4 10 -17 10
q-7 -1 -21 -1q-8 8 -8 13q38 8 56 15q7 -21 11 -35zM13 500q0 -24 -5.5 -71t-5.5 -71l1 199q1 -7 5.5 -26.5t4.5 -30.5zM686 -121h-7v23h7v-23zM464 72l-8 -10q-8 8 -15 10h23zM525 71q-15 -1 -15 -19v-25q-25 -7 -49 -7q-16 0 -33 1q-12 0 -23 1l-11 1q-14 0 -23 -10
q-1 0 -6 2t-7 2v20q8 6 27 6l11.5 2.5t14.5 2.5q10 0 35 -7t34 -7q12 0 12 15q0 13 -6 23q-1 -1 39 -1zM53 322q-2 -1 -9 -8q-12 12 -12 14q0 9 12 22l9 -9v-19zM13 330q0 -13 -5 -37l-2 -11q-4 -18 -4 -26v95q0 -2 5.5 -9.5t5.5 -11.5zM16 25q0 -1 -4 -7t-4 -11
q0 -86 6 -195q-8 -8 -13 -8v429q-5 -19 13 -34q-10 -10 -10 -18q0 -77 8 -131q4 -26 4 -25zM759 29q-19 19 -32 19q-4 0 -7 -2l-3 -2q-4 -7 -4 -11q0 -5 4 -9q33 -10 42 5zM706 43q-10 8 -18 8q0 -9 8 -17q2 1 10 9z" />
    <glyph glyph-name="asciicircum" unicode="^" 
d="M1176 314q-20 11 -25 11t-12.5 -5.5t-12.5 -5.5q-2 0 -8 2t-10 2q-8 0 -15 -7q-1 4 1.5 13t2.5 12q0 8 -12 15q4 8 23.5 14t23.5 20q5 -2 11.5 -11.5t12.5 -9.5q3 0 20 14v-64zM996 354h-24q0 9 8 17q6 -4 16 -17zM954 355l-6 -3l-3 6l6 3zM830 803q-33 -48 -59 -80
q-146 -178 -202 -265q-7 -7 -38 -32t-31 -35v-21q6 -6 12 -6q4 0 8 5t8 5l27 -14q16 4 13 25q24 -4 84 -15q-3 -5 -28 -12q4 -10 15 -10q24 0 20 1v-4q-1 -4 -1 -8q-3 -8 -1 -13q42 -17 57 -17t26 11q4 -12 47 -17q-6 -12 -19 -12q-16 0 -63 3l-63 4q-81 0 -102 -10
q-7 9 -12 21t-13 22l-5 -4t-11 -6q-2 -2 -32 -6q-2 -1 -12 -9t-15 -8q-24 0 -42 5q-2 7 -7 29q-4 16 -4 25q0 6 5.5 23t5.5 23q9 5 19 19q7 11 16 11q2 0 19 -14q13 6 13 19q0 5 -8 9t-17 9q67 93 98 115q1 3 3 13q32 0 44 18q10 14 11 47h22q-1 14 7 49q16 25 60 74
q7 3 15 5q17 0 27 -8q-9 -20 -18 -20q-4 0 -5 1.5t-5 1.5q-15 0 -32 -39q19 -21 28 -21q6 0 20 14q2 10 10 25q18 19 78 74h27zM901 356q-7 -11 -19 -24l-33 11q-4 -1 -24 -5l-3.5 -2.5t-6.5 -5.5v-14q21 -12 36 -12q11 0 38 13l2.5 -4t2.5 -9q0 -8 -12 -14q-7 -4 -13 -4
q-21 0 -63 7v29q-1 21 -24 21q-4 0 -7 -4t-9 -4t-17.5 2t-17.5 2v17h170zM723 339q-7 -1 -8 -1q-5 -2 -9 -2q-1 16 -14 19h4q8 0 17 1h10v-17zM989 11q-22 -74 -94 -129q-1 1 -7.5 7l-11.5 11l5 38q3 -3 6.5 -5t7.5 -5q6 5 7.5 11.5t2.5 15.5q6 6 19 25q4 6 13 36l7 -5
q4 -2 8 -5q11 6 33 21zM957 50q0 -4 -9 -15t-10 -15q-18 21 -28 21q-3 0 -15 -5q-8 -5 -50 -7q-12 0 -23.5 -1l-11.5 -1q-4 0 -17 7q-2 -2 -4 -5q1 -2 5 -9t4 -12v-20q-6 0 -11 2h-8q-5 1 -6 1q-12 0 -19 -7l-5 10t-10 8q1 0 -5 -1q-1 -2 -5 -2q-5 0 -17 7t-17 7
q-14 0 -51 -3l-52 -4q-7 0 -18 3q-15 4 -19 4t-9.5 -3.5t-8.5 -3.5l-9 9l59 12q4 0 13 -2t13 -2t14.5 5.5t14.5 5.5q8 0 26 -7q13 19 13 28q0 14 -18 14q-14 -2 -23 -2q-29 0 -73 4q5 0 15.5 4.5t14.5 4.5q5 0 13.5 -3.5t13.5 -3.5q19 0 57.5 2t57.5 2q43 0 96 -3
q24 -1 75 -6q9 -6 12 -6q4 0 9.5 3.5t9.5 3.5q8 0 16 -8v-11zM816 -83q0 -4 -6 -17q-19 -26 -41 -52q-26 -11 -27 -12q-13 -7 -20 -22q-3 3 -3 7q0 5 6 13q4 0 8 4q13 34 23 54q20 41 50 39q4 4 4 27q0 -7 3 -20.5t3 -20.5zM326 325l-4 -14h-16q-7 6 -1 12q-4 10 -17 10
q-7 -1 -21 -1q-8 8 -8 13q38 8 56 15q7 -21 11 -35zM13 500q0 -24 -5.5 -71t-5.5 -71l1 199q1 -7 5.5 -26.5t4.5 -30.5zM686 -121h-7v23h7v-23zM464 72l-8 -10q-8 8 -15 10h23zM525 71q-15 -1 -15 -19v-25q-25 -7 -49 -7q-16 0 -33 1q-12 0 -23 1l-11 1q-14 0 -23 -10
q-1 0 -6 2t-7 2v20q8 6 27 6l11.5 2.5t14.5 2.5q10 0 35 -7t34 -7q12 0 12 15q0 13 -6 23q-1 -1 39 -1zM53 322q-2 -1 -9 -8q-12 12 -12 14q0 9 12 22l9 -9v-19zM13 330q0 -13 -5 -37l-2 -11q-4 -18 -4 -26v95q0 -2 5.5 -9.5t5.5 -11.5zM16 25q0 -1 -4 -7t-4 -11
q0 -86 6 -195q-8 -8 -13 -8v429q-5 -19 13 -34q-10 -10 -10 -18q0 -77 8 -131q4 -26 4 -25zM759 29q-19 19 -32 19q-4 0 -7 -2l-3 -2q-4 -7 -4 -11q0 -5 4 -9q33 -10 42 5zM706 43q-10 8 -18 8q0 -9 8 -17q2 1 10 9z" />
    <glyph glyph-name="underscore" unicode="_" 
d="M1176 314q-20 11 -25 11t-12.5 -5.5t-12.5 -5.5q-2 0 -8 2t-10 2q-8 0 -15 -7q-1 4 1.5 13t2.5 12q0 8 -12 15q4 8 23.5 14t23.5 20q5 -2 11.5 -11.5t12.5 -9.5q3 0 20 14v-64zM996 354h-24q0 9 8 17q6 -4 16 -17zM954 355l-6 -3l-3 6l6 3zM830 803q-33 -48 -59 -80
q-146 -178 -202 -265q-7 -7 -38 -32t-31 -35v-21q6 -6 12 -6q4 0 8 5t8 5l27 -14q16 4 13 25q24 -4 84 -15q-3 -5 -28 -12q4 -10 15 -10q24 0 20 1v-4q-1 -4 -1 -8q-3 -8 -1 -13q42 -17 57 -17t26 11q4 -12 47 -17q-6 -12 -19 -12q-16 0 -63 3l-63 4q-81 0 -102 -10
q-7 9 -12 21t-13 22l-5 -4t-11 -6q-2 -2 -32 -6q-2 -1 -12 -9t-15 -8q-24 0 -42 5q-2 7 -7 29q-4 16 -4 25q0 6 5.5 23t5.5 23q9 5 19 19q7 11 16 11q2 0 19 -14q13 6 13 19q0 5 -8 9t-17 9q67 93 98 115q1 3 3 13q32 0 44 18q10 14 11 47h22q-1 14 7 49q16 25 60 74
q7 3 15 5q17 0 27 -8q-9 -20 -18 -20q-4 0 -5 1.5t-5 1.5q-15 0 -32 -39q19 -21 28 -21q6 0 20 14q2 10 10 25q18 19 78 74h27zM901 356q-7 -11 -19 -24l-33 11q-4 -1 -24 -5l-3.5 -2.5t-6.5 -5.5v-14q21 -12 36 -12q11 0 38 13l2.5 -4t2.5 -9q0 -8 -12 -14q-7 -4 -13 -4
q-21 0 -63 7v29q-1 21 -24 21q-4 0 -7 -4t-9 -4t-17.5 2t-17.5 2v17h170zM723 339q-7 -1 -8 -1q-5 -2 -9 -2q-1 16 -14 19h4q8 0 17 1h10v-17zM989 11q-22 -74 -94 -129q-1 1 -7.5 7l-11.5 11l5 38q3 -3 6.5 -5t7.5 -5q6 5 7.5 11.5t2.5 15.5q6 6 19 25q4 6 13 36l7 -5
q4 -2 8 -5q11 6 33 21zM957 50q0 -4 -9 -15t-10 -15q-18 21 -28 21q-3 0 -15 -5q-8 -5 -50 -7q-12 0 -23.5 -1l-11.5 -1q-4 0 -17 7q-2 -2 -4 -5q1 -2 5 -9t4 -12v-20q-6 0 -11 2h-8q-5 1 -6 1q-12 0 -19 -7l-5 10t-10 8q1 0 -5 -1q-1 -2 -5 -2q-5 0 -17 7t-17 7
q-14 0 -51 -3l-52 -4q-7 0 -18 3q-15 4 -19 4t-9.5 -3.5t-8.5 -3.5l-9 9l59 12q4 0 13 -2t13 -2t14.5 5.5t14.5 5.5q8 0 26 -7q13 19 13 28q0 14 -18 14q-14 -2 -23 -2q-29 0 -73 4q5 0 15.5 4.5t14.5 4.5q5 0 13.5 -3.5t13.5 -3.5q19 0 57.5 2t57.5 2q43 0 96 -3
q24 -1 75 -6q9 -6 12 -6q4 0 9.5 3.5t9.5 3.5q8 0 16 -8v-11zM816 -83q0 -4 -6 -17q-19 -26 -41 -52q-26 -11 -27 -12q-13 -7 -20 -22q-3 3 -3 7q0 5 6 13q4 0 8 4q13 34 23 54q20 41 50 39q4 4 4 27q0 -7 3 -20.5t3 -20.5zM326 325l-4 -14h-16q-7 6 -1 12q-4 10 -17 10
q-7 -1 -21 -1q-8 8 -8 13q38 8 56 15q7 -21 11 -35zM13 500q0 -24 -5.5 -71t-5.5 -71l1 199q1 -7 5.5 -26.5t4.5 -30.5zM686 -121h-7v23h7v-23zM464 72l-8 -10q-8 8 -15 10h23zM525 71q-15 -1 -15 -19v-25q-25 -7 -49 -7q-16 0 -33 1q-12 0 -23 1l-11 1q-14 0 -23 -10
q-1 0 -6 2t-7 2v20q8 6 27 6l11.5 2.5t14.5 2.5q10 0 35 -7t34 -7q12 0 12 15q0 13 -6 23q-1 -1 39 -1zM53 322q-2 -1 -9 -8q-12 12 -12 14q0 9 12 22l9 -9v-19zM13 330q0 -13 -5 -37l-2 -11q-4 -18 -4 -26v95q0 -2 5.5 -9.5t5.5 -11.5zM16 25q0 -1 -4 -7t-4 -11
q0 -86 6 -195q-8 -8 -13 -8v429q-5 -19 13 -34q-10 -10 -10 -18q0 -77 8 -131q4 -26 4 -25zM759 29q-19 19 -32 19q-4 0 -7 -2l-3 -2q-4 -7 -4 -11q0 -5 4 -9q33 -10 42 5zM706 43q-10 8 -18 8q0 -9 8 -17q2 1 10 9z" />
    <glyph glyph-name="grave" unicode="`" 
d="M1176 314q-20 11 -25 11t-12.5 -5.5t-12.5 -5.5q-2 0 -8 2t-10 2q-8 0 -15 -7q-1 4 1.5 13t2.5 12q0 8 -12 15q4 8 23.5 14t23.5 20q5 -2 11.5 -11.5t12.5 -9.5q3 0 20 14v-64zM996 354h-24q0 9 8 17q6 -4 16 -17zM954 355l-6 -3l-3 6l6 3zM830 803q-33 -48 -59 -80
q-146 -178 -202 -265q-7 -7 -38 -32t-31 -35v-21q6 -6 12 -6q4 0 8 5t8 5l27 -14q16 4 13 25q24 -4 84 -15q-3 -5 -28 -12q4 -10 15 -10q24 0 20 1v-4q-1 -4 -1 -8q-3 -8 -1 -13q42 -17 57 -17t26 11q4 -12 47 -17q-6 -12 -19 -12q-16 0 -63 3l-63 4q-81 0 -102 -10
q-7 9 -12 21t-13 22l-5 -4t-11 -6q-2 -2 -32 -6q-2 -1 -12 -9t-15 -8q-24 0 -42 5q-2 7 -7 29q-4 16 -4 25q0 6 5.5 23t5.5 23q9 5 19 19q7 11 16 11q2 0 19 -14q13 6 13 19q0 5 -8 9t-17 9q67 93 98 115q1 3 3 13q32 0 44 18q10 14 11 47h22q-1 14 7 49q16 25 60 74
q7 3 15 5q17 0 27 -8q-9 -20 -18 -20q-4 0 -5 1.5t-5 1.5q-15 0 -32 -39q19 -21 28 -21q6 0 20 14q2 10 10 25q18 19 78 74h27zM901 356q-7 -11 -19 -24l-33 11q-4 -1 -24 -5l-3.5 -2.5t-6.5 -5.5v-14q21 -12 36 -12q11 0 38 13l2.5 -4t2.5 -9q0 -8 -12 -14q-7 -4 -13 -4
q-21 0 -63 7v29q-1 21 -24 21q-4 0 -7 -4t-9 -4t-17.5 2t-17.5 2v17h170zM723 339q-7 -1 -8 -1q-5 -2 -9 -2q-1 16 -14 19h4q8 0 17 1h10v-17zM989 11q-22 -74 -94 -129q-1 1 -7.5 7l-11.5 11l5 38q3 -3 6.5 -5t7.5 -5q6 5 7.5 11.5t2.5 15.5q6 6 19 25q4 6 13 36l7 -5
q4 -2 8 -5q11 6 33 21zM957 50q0 -4 -9 -15t-10 -15q-18 21 -28 21q-3 0 -15 -5q-8 -5 -50 -7q-12 0 -23.5 -1l-11.5 -1q-4 0 -17 7q-2 -2 -4 -5q1 -2 5 -9t4 -12v-20q-6 0 -11 2h-8q-5 1 -6 1q-12 0 -19 -7l-5 10t-10 8q1 0 -5 -1q-1 -2 -5 -2q-5 0 -17 7t-17 7
q-14 0 -51 -3l-52 -4q-7 0 -18 3q-15 4 -19 4t-9.5 -3.5t-8.5 -3.5l-9 9l59 12q4 0 13 -2t13 -2t14.5 5.5t14.5 5.5q8 0 26 -7q13 19 13 28q0 14 -18 14q-14 -2 -23 -2q-29 0 -73 4q5 0 15.5 4.5t14.5 4.5q5 0 13.5 -3.5t13.5 -3.5q19 0 57.5 2t57.5 2q43 0 96 -3
q24 -1 75 -6q9 -6 12 -6q4 0 9.5 3.5t9.5 3.5q8 0 16 -8v-11zM816 -83q0 -4 -6 -17q-19 -26 -41 -52q-26 -11 -27 -12q-13 -7 -20 -22q-3 3 -3 7q0 5 6 13q4 0 8 4q13 34 23 54q20 41 50 39q4 4 4 27q0 -7 3 -20.5t3 -20.5zM326 325l-4 -14h-16q-7 6 -1 12q-4 10 -17 10
q-7 -1 -21 -1q-8 8 -8 13q38 8 56 15q7 -21 11 -35zM13 500q0 -24 -5.5 -71t-5.5 -71l1 199q1 -7 5.5 -26.5t4.5 -30.5zM686 -121h-7v23h7v-23zM464 72l-8 -10q-8 8 -15 10h23zM525 71q-15 -1 -15 -19v-25q-25 -7 -49 -7q-16 0 -33 1q-12 0 -23 1l-11 1q-14 0 -23 -10
q-1 0 -6 2t-7 2v20q8 6 27 6l11.5 2.5t14.5 2.5q10 0 35 -7t34 -7q12 0 12 15q0 13 -6 23q-1 -1 39 -1zM53 322q-2 -1 -9 -8q-12 12 -12 14q0 9 12 22l9 -9v-19zM13 330q0 -13 -5 -37l-2 -11q-4 -18 -4 -26v95q0 -2 5.5 -9.5t5.5 -11.5zM16 25q0 -1 -4 -7t-4 -11
q0 -86 6 -195q-8 -8 -13 -8v429q-5 -19 13 -34q-10 -10 -10 -18q0 -77 8 -131q4 -26 4 -25zM759 29q-19 19 -32 19q-4 0 -7 -2l-3 -2q-4 -7 -4 -11q0 -5 4 -9q33 -10 42 5zM706 43q-10 8 -18 8q0 -9 8 -17q2 1 10 9z" />
    <glyph glyph-name="a" unicode="a" 
d="M768 -114q-15 0 -40 31q-1 10 -3 34q0 7 -16 42q-10 23 -4 38q-1 1 -4.5 9t-11.5 12q-22 11 -45 11q-7 0 -20.5 -6.5t-15.5 -6.5l-276 7h-8q-23 1 -34 -17q-9 -25 -35 -91q-24 -60 -57 -60q-15 0 -29.5 11.5t-14.5 26.5q0 19 3 31q18 28 34 63q10 22 31 88q6 9 20 32
q10 22 19 71t19 71q38 83 78 185l1 5l29 56q25 98 93 98q58 0 82 -17q30 -21 50 -91q4 -20 18 -68q177 -507 177 -527q0 -15 -12.5 -26.5t-27.5 -11.5zM678 -100l17 2q-6 12 -29 52q0 2 -1 8q-1 16 -26 39h1q2 -1 9 -5q2 -2 11 -28.5t10 -33.5l8 -8v-26zM559 215
q-4 38 -22 86l-34 82q-8 19 -27 19q-22 -16 -21 -47q-8 -5 -11 -5t-8 5l-18 17q0 -25 -10 -28q-19 -57 -54 -141q-17 -29 -17 -34q0 -8 10 -23.5t17 -15.5q5 0 8 1l7 1q7 1 15 -1l4 -1q7 -3 13 -3l181 -3q10 0 30 2t29 2q19 16 19 28q0 9 -5 16q-8 14 -49 36q-3 3 -5 7l-3 4
q14 14 14 31q0 33 -7 54q-3 9 -15 49q-17 56 -36 87q-10 13 -25 23l-6 4q-8 5 -8 15v44l32 30q-10 10 -14 13l-4 3q-3 3 -7 6q-11 -6 -19 -9q-35 -12 -47 -41q-9 -19 -11 -64q0 -8 -7.5 -24t-7.5 -23v-35q20 20 55 66q1 0 2 -0.5t1 -1.5q40 -92 73 -190l3 -32q1 0 3 -1
q-9 -6 -18 -8zM424 376q0 -11 8 -16l1 -1l8 -8q12 17 12 35q0 17 -11 34q-18 -42 -18 -44zM741 -84l8 -8h27l13 12q0 4 -2 13t-2 14h-29q-4 -4 -12 -10l-4 -3l-10 -10q1 -1 4.5 -4t6.5 -6v2zM270 16l-26 6q-2 -2 -4.5 -4l-2.5 -2q-5 -2 -11 -9q2 -5 4 -13q4 -19 22 -19
q10 0 14 6q2 0 4 4v31z" />
    <glyph glyph-name="b" unicode="b" 
d="M178 753q4 -7 13 -7t28 5.5t25 5.5l400 -4q3 0 11 -3t13 -3q73 0 131 -56q16 -16 34 -57q16 -37 21 -65q1 -5 1 -22q0 -33 -1 -55q-3 -61 -12 -102q0 -3 -3 -10q-14 -36 -14 -38q0 -16 36 -76.5t36 -149.5q0 -73 -39 -142q-48 -85 -130 -95q-40 -10 -52 -10t-36 3t-36 3
q-61 0 -110 -1l-72 -1q-21 0 -63 5q-3 0 -9 5q-12 9 -21 9q-7 0 -22 -19q-37 -4 -108 -4h-10q-10 0 -8 0q-23 -1 -44 31q-5 8 -5 26v35q0 30 -5 91t-5 91v201l-15 170q0 6 5 47l6 48v98q0 17 27 30q5 2 15 3q5 5 18 13zM59 37l4 73h-17q1 -12 13 -73zM59 37l5 -30
q2 -12 2 -15v-4q-7 20 -8 34zM192 763q-4 7 -14 7q-9 0 -26 -15h-4q-3 0 -10 -2q-37 -19 -37 -46v-98q0 -7 -5 -48l-6 -48l15 -170v-200q0 -33 4 -91q5 -66 6 -91v-36q0 -21 8 -34q19 -30 40 -37q6 -2 36 -2q75 0 111 4q6 0 15 13q3 4 4 6q4 0 13 -7t15 -7q42 -5 65 -5
l182 2q12 0 36 -3t36 -3q11 0 28 4l26 6q92 12 143 104q41 73 41 150q0 94 -37 157q-35 59 -35 69l12 31q3 5 5 13q13 51 13 141v20q0 15 -2 26q-16 88 -59 130q-62 61 -143 61q-3 0 -11 3t-13 3l-400 4q-8 0 -26 -5q-21 -6 -26 -6zM83 -8q0 21 -9 59q-10 43 -11 60h-17
l-5 -90q5 -32 42 -110v81zM178 753q4 -7 13 -7t28 5.5t25 5.5l400 -4q3 0 11 -3t13 -3q73 0 131 -56q16 -16 34 -57q16 -37 21 -65q1 -5 1 -22q0 -33 -1 -55q-3 -61 -12 -102q0 -3 -3 -10q-14 -36 -14 -38q0 -16 36 -76.5t36 -149.5q0 -73 -39 -142q-48 -85 -130 -95
q-40 -10 -52 -10t-36 3t-36 3q-61 0 -110 -1l-72 -1q-21 0 -63 5q-3 0 -9 5q-12 9 -21 9q-7 0 -22 -19q-37 -4 -108 -4h-10q-10 0 -8 0q-23 -1 -44 31q-5 8 -5 26v35q0 30 -5 91t-5 91v201l-15 170q0 6 5 47l6 48v98q0 17 27 30q5 2 15 3q5 5 18 13zM59 37l4 73h-17
q1 -12 13 -73zM59 37l5 -30q2 -12 2 -15v-4q-7 20 -8 34zM192 763q-4 7 -14 7q-9 0 -26 -15h-4q-3 0 -10 -2q-37 -19 -37 -46v-98q0 -7 -5 -48l-6 -48l15 -170v-200q0 -33 4 -91q5 -66 6 -91v-36q0 -21 8 -34q19 -30 40 -37q6 -2 36 -2q75 0 111 4q6 0 15 13q3 4 4 6
q4 0 13 -7t15 -7q42 -5 65 -5l182 2q12 0 36 -3t36 -3q11 0 28 4l26 6q92 12 143 104q41 73 41 150q0 94 -37 157q-35 59 -35 69l12 31q3 5 5 13q13 51 13 141v20q0 15 -2 26q-16 88 -59 130q-62 61 -143 61q-3 0 -11 3t-13 3l-400 4q-8 0 -26 -5q-21 -6 -26 -6zM83 -8
q0 21 -9 59q-10 43 -11 60h-17l-5 -90q5 -32 42 -110v81zM178 753q4 -7 13 -7t28 5.5t25 5.5l400 -4q3 0 11 -3t13 -3q73 0 131 -56q16 -16 34 -57q16 -37 21 -65q1 -5 1 -22q0 -33 -1 -55q-3 -61 -12 -102q0 -3 -3 -10q-14 -36 -14 -38q0 -16 36 -76.5t36 -149.5
q0 -73 -39 -142q-48 -85 -130 -95q-40 -10 -52 -10t-36 3t-36 3q-61 0 -110 -1l-72 -1q-21 0 -63 5q-3 0 -9 5q-12 9 -21 9q-7 0 -22 -19q-37 -4 -108 -4h-10q-10 0 -8 0q-23 -1 -44 31q-5 8 -5 26v35q0 30 -5 91t-5 91v201l-15 170q0 6 5 47l6 48v98q0 17 27 30q5 2 15 3
q5 5 18 13zM59 37l4 73h-17q1 -12 13 -73zM59 37l5 -30q2 -12 2 -15v-4q-7 20 -8 34zM192 763q-4 7 -14 7q-9 0 -26 -15h-4q-3 0 -10 -2q-37 -19 -37 -46v-98q0 -7 -5 -48l-6 -48l15 -170v-200q0 -33 4 -91q5 -66 6 -91v-36q0 -21 8 -34q19 -30 40 -37q6 -2 36 -2
q75 0 111 4q6 0 15 13q3 4 4 6q4 0 13 -7t15 -7q42 -5 65 -5l182 2q12 0 36 -3t36 -3q11 0 28 4l26 6q92 12 143 104q41 73 41 150q0 94 -37 157q-35 59 -35 69l12 31q3 5 5 13q13 51 13 141v20q0 15 -2 26q-16 88 -59 130q-62 61 -143 61q-3 0 -11 3t-13 3l-400 4
q-8 0 -26 -5q-21 -6 -26 -6zM83 -8q0 21 -9 59q-10 43 -11 60h-17l-5 -90q5 -32 42 -110v81zM178 753q4 -7 13 -7t28 5.5t25 5.5l400 -4q3 0 11 -3t13 -3q73 0 131 -56q16 -16 34 -57q16 -37 21 -65q1 -5 1 -22q0 -33 -1 -55q-3 -61 -12 -102q0 -3 -3 -10q-14 -36 -14 -38
q0 -16 36 -76.5t36 -149.5q0 -73 -39 -142q-48 -85 -130 -95q-40 -10 -52 -10t-36 3t-36 3q-61 0 -110 -1l-72 -1q-21 0 -63 5q-3 0 -9 5q-12 9 -21 9q-7 0 -22 -19q-37 -4 -108 -4h-10q-10 0 -8 0q-23 -1 -44 31q-5 8 -5 26v35q0 30 -5 91t-5 91v201l-15 170q0 6 5 47l6 48
v98q0 17 27 30q5 2 15 3q5 5 18 13zM59 37l4 73h-17q1 -12 13 -73zM59 37l5 -30q2 -12 2 -15v-4q-7 20 -8 34zM745 611q-5 24 -32 49q-17 16 -44.5 18t-77.5 7l-59 6q-9 0 -26.5 -4t-26.5 -4q-5 0 -15.5 4t-16.5 4q-53 0 -99 -13q-20 -6 -39 -37q54 -16 92 -16
q27 0 81.5 1.5t81.5 1.5h45q42 0 57 -4q27 -7 36 -48q1 -3 1 -32q0 -63 -27 -76l-4 8q-3 22 -6 69q-1 13 -4 32q-3 9 -37.5 23.5t-47.5 14.5h-300l13 31q-16 -1 -21 0q-6 2 -20 9q-25 -32 -26 -72q-4 -108 -4 -139q0 -30 2 -42q8 -46 37 -46l416 4q46 0 67 18.5t21 63.5
q0 88 -17 169zM785 155h-1q3 18 2 43q-2 34 -11.5 49.5t-38.5 31.5q-33 18 -60 18q-6 0 -16 -4t-15 -4h-241q-25 0 -80 -17q-7 -2 -19 -10.5t-15 -9.5q-10 0 -41 20q-26 -11 -26 -31v-223q0 -39 107 -59q65 -12 121 -12q-10 0 66 3q60 2 174 4q11 0 50 14t43 68q-1 16 1 80
l1 1q6 9 6 20t-7 18zM731 392h1q-14 -15 -58 -15l-417 -4q-21 0 -21 71q0 38 4 138q1 31 14 52q1 -1 7 -3l3 -1l-11 -32h324q12 0 39 -8.5t29 -16.5q2 -27 7 -61q2 -6 3 -42q3 -3 3 -5l3 -3q2 -4 8 -12q19 0 37 26q14 20 14 68q0 31 -1 36q-10 50 -49 60q-19 5 -60 5h-46
q-30 0 -81 -1l-82 -2q-23 0 -64 9q8 8 15 10q48 13 95 13q5 0 15.5 -4t16.5 -4q9 0 26.5 4t26.5 4l58 -6l78 -7q22 -2 34 -13q23 -22 27 -41q16 -72 16 -165q0 -36 -14 -50zM769 123q2 -41 -3 -96q-3 -34 -32 -44q-20 -7 -43 -12q-61 -1 -174 -4l-66 -3q-211 0 -211 54v223
q0 5 8 11q29 -17 42 -17q5 0 32 17l8 4q49 16 74 16h241q6 0 16 4t15 4q22 0 52 -16q26 -14 32 -24q9 -14 9 -92q1 -2 3 -4l2 -2q1 -1 1 -5q0 -6 -6 -14zM745 611q-5 24 -32 49q-17 16 -44.5 18t-77.5 7l-59 6q-9 0 -26.5 -4t-26.5 -4q-5 0 -15.5 4t-16.5 4q-53 0 -99 -13
q-20 -6 -39 -37q54 -16 92 -16q27 0 81.5 1.5t81.5 1.5h45q42 0 57 -4q27 -7 36 -48q1 -3 1 -32q0 -63 -27 -76l-4 8q-3 22 -6 69q-1 13 -4 32q-3 9 -37.5 23.5t-47.5 14.5h-300l13 31q-16 -1 -21 0q-6 2 -20 9q-25 -32 -26 -72q-4 -108 -4 -139q0 -30 2 -42q8 -46 37 -46
l416 4q46 0 67 18.5t21 63.5q0 88 -17 169zM785 155h-1q3 18 2 43q-2 34 -11.5 49.5t-38.5 31.5q-33 18 -60 18q-6 0 -16 -4t-15 -4h-241q-25 0 -80 -17q-7 -2 -19 -10.5t-15 -9.5q-10 0 -41 20q-26 -11 -26 -31v-223q0 -39 107 -59q65 -12 121 -12q-10 0 66 3q60 2 174 4
q11 0 50 14t43 68q-1 16 1 80l1 1q6 9 6 20t-7 18zM731 392h1q-14 -15 -58 -15l-417 -4q-21 0 -21 71q0 38 4 138q1 31 14 52q1 -1 7 -3l3 -1l-11 -32h324q12 0 39 -8.5t29 -16.5q2 -27 7 -61q2 -6 3 -42q3 -3 3 -5l3 -3q2 -4 8 -12q19 0 37 26q14 20 14 68q0 31 -1 36
q-10 50 -49 60q-19 5 -60 5h-46q-30 0 -81 -1l-82 -2q-23 0 -64 9q8 8 15 10q48 13 95 13q5 0 15.5 -4t16.5 -4q9 0 26.5 4t26.5 4l58 -6l78 -7q22 -2 34 -13q23 -22 27 -41q16 -72 16 -165q0 -36 -14 -50zM769 123q2 -41 -3 -96q-3 -34 -32 -44q-20 -7 -43 -12
q-61 -1 -174 -4l-66 -3q-211 0 -211 54v223q0 5 8 11q29 -17 42 -17q5 0 32 17l8 4q49 16 74 16h241q6 0 16 4t15 4q22 0 52 -16q26 -14 32 -24q9 -14 9 -92q1 -2 3 -4l2 -2q1 -1 1 -5q0 -6 -6 -14zM745 611q-5 24 -32 49q-17 16 -44.5 18t-77.5 7l-59 6q-9 0 -26.5 -4
t-26.5 -4q-5 0 -15.5 4t-16.5 4q-53 0 -99 -13q-20 -6 -39 -37q54 -16 92 -16q27 0 81.5 1.5t81.5 1.5h45q42 0 57 -4q27 -7 36 -48q1 -3 1 -32q0 -63 -27 -76l-4 8q-3 22 -6 69q-1 13 -4 32q-3 9 -37.5 23.5t-47.5 14.5h-300l13 31q-16 -1 -21 0q-6 2 -20 9
q-25 -32 -26 -72q-4 -108 -4 -139q0 -30 2 -42q8 -46 37 -46l416 4q46 0 67 18.5t21 63.5q0 88 -17 169zM785 155h-1q3 18 2 43q-2 34 -11.5 49.5t-38.5 31.5q-33 18 -60 18q-6 0 -16 -4t-15 -4h-241q-25 0 -80 -17q-7 -2 -19 -10.5t-15 -9.5q-10 0 -41 20q-26 -11 -26 -31
v-223q0 -39 107 -59q65 -12 121 -12q-10 0 66 3q60 2 174 4q11 0 50 14t43 68q-1 16 1 80l1 1q6 9 6 20t-7 18zM731 392h1q-14 -15 -58 -15l-417 -4q-21 0 -21 71q0 38 4 138q1 31 14 52q1 -1 7 -3l3 -1l-11 -32h324q12 0 39 -8.5t29 -16.5q2 -27 7 -61q2 -6 3 -42
q3 -3 3 -5l3 -3q2 -4 8 -12q19 0 37 26q14 20 14 68q0 31 -1 36q-10 50 -49 60q-19 5 -60 5h-46q-30 0 -81 -1l-82 -2q-23 0 -64 9q8 8 15 10q48 13 95 13q5 0 15.5 -4t16.5 -4q9 0 26.5 4t26.5 4l58 -6l78 -7q22 -2 34 -13q23 -22 27 -41q16 -72 16 -165q0 -36 -14 -50z
M769 123q2 -41 -3 -96q-3 -34 -32 -44q-20 -7 -43 -12q-61 -1 -174 -4l-66 -3q-211 0 -211 54v223q0 5 8 11q29 -17 42 -17q5 0 32 17l8 4q49 16 74 16h241q6 0 16 4t15 4q22 0 52 -16q26 -14 32 -24q9 -14 9 -92q1 -2 3 -4l2 -2q1 -1 1 -5q0 -6 -6 -14zM745 611
q-5 24 -32 49q-17 16 -44.5 18t-77.5 7l-59 6q-9 0 -26.5 -4t-26.5 -4q-5 0 -15.5 4t-16.5 4q-53 0 -99 -13q-20 -6 -39 -37q54 -16 92 -16q27 0 81.5 1.5t81.5 1.5h45q42 0 57 -4q27 -7 36 -48q1 -3 1 -32q0 -63 -27 -76l-4 8q-3 22 -6 69q-1 13 -4 32q-3 9 -37.5 23.5
t-47.5 14.5h-300l13 31q-16 -1 -21 0q-6 2 -20 9q-25 -32 -26 -72q-4 -108 -4 -139q0 -30 2 -42q8 -46 37 -46l416 4q46 0 67 18.5t21 63.5q0 88 -17 169zM785 155h-1q3 18 2 43q-2 34 -11.5 49.5t-38.5 31.5q-33 18 -60 18q-6 0 -16 -4t-15 -4h-241q-25 0 -80 -17
q-7 -2 -19 -10.5t-15 -9.5q-10 0 -41 20q-26 -11 -26 -31v-223q0 -39 107 -59q65 -12 121 -12q-9 0 66 3q60 2 174 4q11 0 50 14t43 68q-1 16 1 80l1 1q6 9 6 20t-7 18zM283 222q5 2 15 4q18 1 170 1h147q5 0 24.5 5.5t21.5 5.5h1l1 -1q6 -6 15 -6q8 0 26 8q5 -5 29 -31
q5 -52 5 -43q0 -28 -21 -87h-1q-1 3 0 20l1 26q0 20 -11 51q-14 35 -29 37q-90 9 -130 9l-263 -3zM749 215q-5 6 -23 24q-5 5 -14 24q-6 -3 -22 -12q-7 -3 -12 -3q-1 0 -3 1l-2 2q-4 4 -12 4t-24.5 -5.5t-21.5 -5.5h-147q-143 0 -171 -1q-13 0 -33 -11q0 -5 2.5 -13.5
t2.5 -17.5l278 3q43 0 128 -9q11 -1 19 -31q6 -23 6 -40q0 -7 -1 -26q-1 -23 3 -37h26q27 71 27 104q0 -10 -6 50zM283 222q5 2 15 4q18 1 170 1h147q5 0 24.5 5.5t21.5 5.5h1l1 -1q6 -6 15 -6q8 0 26 8q5 -5 29 -31q5 -52 5 -43q0 -28 -21 -87h-1q-1 3 0 20l1 26
q0 20 -11 51q-14 35 -29 37q-90 9 -130 9l-263 -3zM749 215q-5 6 -23 24q-5 5 -14 24q-6 -3 -22 -12q-7 -3 -12 -3q-1 0 -3 1l-2 2q-4 4 -12 4t-24.5 -5.5t-21.5 -5.5h-147q-143 0 -171 -1q-13 0 -33 -11q0 -5 2.5 -13.5t2.5 -17.5l278 3q43 0 128 -9q11 -1 19 -31
q6 -23 6 -40q0 -7 -1 -26q-1 -23 3 -37h26q27 71 27 104q0 -10 -6 50zM283 222q5 2 15 4q18 1 170 1h147q5 0 24.5 5.5t21.5 5.5h1l1 -1q6 -6 15 -6q8 0 26 8q5 -5 29 -31q5 -52 5 -43q0 -28 -21 -87h-1q-1 3 0 20l1 26q0 20 -11 51q-14 35 -29 37q-90 9 -130 9l-263 -3z
M749 215q-5 6 -23 24q-5 5 -14 24q-6 -3 -22 -12q-7 -3 -12 -3q-1 0 -3 1l-2 2q-4 4 -12 4t-24.5 -5.5t-21.5 -5.5h-147q-143 0 -171 -1q-13 0 -33 -11q0 -5 2.5 -13.5t2.5 -17.5l278 3q43 0 128 -9q11 -1 19 -31q6 -23 6 -40q0 -7 -1 -26q-1 -23 3 -37h26q27 71 27 104
q0 -10 -6 50zM283 222q5 2 15 4q18 1 170 1h147q5 0 24.5 5.5t21.5 5.5h1l1 -1q6 -6 15 -6q8 0 26 8q5 -5 29 -31q5 -52 5 -43q0 -28 -21 -87h-1q-1 3 0 20l1 26q0 20 -11 51q-14 35 -29 37q-90 9 -130 9l-263 -3z" />
    <glyph glyph-name="c" unicode="c" 
d="M333 518q9 8 26 18q-12 12 -24 14q5 -1 -13 -1q-28 0 -44 -11q-12 -9 -29 -35q-5 -7 -6 -17q0 -33 -9 -101.5t-8 -104.5v-48q0 -28 -1 -38v-105q0 -3 -3.5 -11.5t-3.5 -14.5q0 -9 6 -34q6 -21 3 -38q7 -12 26 -22q11 -6 19 -16q5 -13 21 -31q17 -11 53 -19l188 -4
q8 0 22.5 3t21.5 3q43 1 166 13q16 4 28.5 20t12.5 33q0 9 -10 23q-7 11 -8 13q0 8 35 56q4 5 20 5q11 0 51 -22q0 -61 -4 -86q-8 -47 -35 -78q-33 -38 -71 -44q-89 -15 -211 -15h-9q-5 -1 -13 -1q-18 0 -52 8q-17 4 -23 4q-8 0 -26 -5.5t-24 -5.5q-11 0 -26 23
q-14 -4 -19 -19h-12q-19 0 -67 14q-51 14 -63 24q-22 18 -42 50t-23 57q2 22 2 50q-28 188 -28 271q0 49 12 170q0 12 -1 23q0 19 1 23q5 34 40 71q31 34 66 49q15 6 100 13q78 6 119 6q121 0 238 -13q47 -5 94 -38q6 -4 17 -22l15 -25q13 -10 30 -28q4 -8 4 -33
q0 -4 -6 -39v-32q0 -41 -32 -41q-13 0 -30.5 16t-18.5 28q1 3 3 12.5t2 12.5l-12 48q1 9 2 31q-3 24 -31 40q-9 6 -60 14q-6 5 -18 9q-48 8 -87 8q-109 0 -174 -12q-22 -4 -57 -39v-12q3 -8 15 -8q7 0 12 4l2 2q1 1 99 3l95 2q4 0 18 2h39q52 -2 69 -20t27 -63l12 -72
q-23 32 -20 67q-7 25 -12 35q-10 19 -26 23q-39 11 -106 18q-45 5 -71 5q-136 0 -163 -13z" />
    <glyph glyph-name="d" unicode="d" 
d="M725 135q-16 -52 -34 -81q-7 -11 -44 -30q-60 -31 -81 -30q-4 0 -22 1q-31 1 -34 1q-57 3 -83 3q-21 0 -124 -5l-57 -3q-47 0 -62 9q-21 13 -19 54.5t-3 82.5l-9 82l-10 128q0 9 2 52l4 73q2 49 7 77q2 10 0 25q-1 12 -2 26q-2 46 46 53q29 4 70 4q25 0 74.5 -4.5
t73.5 -4.5q13 0 38 1.5t38 1.5q1 1 14 1h26q24 0 57 -4q31 -8 70.5 -38t52.5 -57q1 -13 7 -45q9 -36 11 -64q3 -50 6 -64q0 -2 2 -5l1 -3q2 -4 2 -5v-103q0 -19 -6.5 -65.5t-11.5 -63.5zM102 63l16 -2q-3 26 -6 70l-3 6q-3 3 -3 4v45l-16 -4l4 -7l4 -7q4 -7 4 -10
q4 -44 4 -68q0 -18 -4 -27zM674 419q-4 18 -13 65l1 1q2 2 6 8q-2 10 -3 25q-3 34 -37 69q-9 9 -23 10.5t-28 2.5q-10 5 -27 5q-3 0 -9 -1t-10 -1q-8 0 -22.5 4t-22.5 4q-28 0 -68 -2q-52 -3 -93 -14q-3 0 -5 -2l-4 -2q-23 -17 -27 -17q-2 1 -11 5q-12 6 -18 6q-9 0 -19 -11
l-6 -6q0 -28 -3 -81l-3 -52v-330q0 -29 40 -44q30 -12 65 -12q27 0 76 -1l77 -2q28 0 96 12q32 6 47 22q23 25 25 58l3 58q20 85 19 117zM317 554q15 3 20 3l206 -3q18 0 24 -5q11 -12 35 -35q7 -36 9 -73q3 -50 3 -71l-8 -124h-6l8 -10q1 2 7 19q5 14 5 18q0 7 -5 14
q1 19 0 60v21q-3 32 -10 95q-13 61 -49 79q-25 12 -95 12h-144z" />
    <glyph glyph-name="e" unicode="e" 
d="M472 -55q139 -1 252 -13q30 -3 66 -13l10 -5q11 -27 11 -35q0 -23 -34 -24h-14q-5 0 -10 1l-20 4q-25 5 -46 5q-9 0 -41 -3q-20 -2 -48 -1l-329 9q-9 0 -28.5 -6t-28.5 -6q-56 0 -76 43q-4 9 -2 32l4 42q0 22 -4 208q0 12 -5 50t-5 39v349q0 25 5 80q2 17 9 21l27.5 23
t28.5 12q1 0 1 -1q6 -7 15 -7q11 0 15 7q13 2 58 1l413 -8q8 -1 48 -5l1 -2q8 -16 20 -16q8 0 11 4q8 -1 8 -22q0 -7 -4 -21.5t-9 -16.5q-22 -15 -38 -15l-33 17q-54 17 -108 17q-96 0 -167 -4q-58 -3 -93 -31q10 -31 33 -32l280 -8q-6 -2 -7 -2q-4 0 -25 4t-30 4
q-8 0 -23.5 -4t-23.5 -4q-3 1 -15 4q-16 4 -23 4q-14 0 -41.5 -6t-41.5 -6q28 0 -36 3t-77 2l-4 2l12 12q-10 28 -41 28q-13 0 -23 -10t-11 -24q-9 -159 -9 -198q0 -15 15 -36q8 -10 29 -39q8 8 10 10.5t7 2.5q1 0 12 -7q127 -13 159 -13l23 1q28 0 60 1l84 2q19 0 56 -19
q3 -4 3 -16q0 -19 -13.5 -33.5t-32.5 -14.5h-14q-10 0 -12 0.5t-5 3.5l-3 3q-16 16 -78 17h-28q-14 0 -15 -1q-16 0 -30 2q-8 0 -19 1h-14q-70 0 -87 -27q-3 -6 -9 -13q-1 -1 -9 -1q-7 0 -22 5.5t-22 5.5q-30 0 -32 -29q-1 -7 -1 -112q0 -102 1 -112q2 -21 29 -34
q17 -8 19 -10q6 -5 13 -18q6 7 10 11l1 1q2 2 4 2q12 0 37.5 -6t37.5 -6q3 0 10 2t10 2q8 0 24 -5.5t24 -5.5q10 0 14 7zM550 219l-32 -5q-11 -2 -16 -2l-1 1l-2 1q-6 6 -14 6q-12 0 -38 -6t-38 -6q-26 0 -112 2v7q9 5 28 9h15q17 0 52.5 -4t52.5 -4h126q28 0 50 -5l1 16
q-15 -1 -72 -10zM63 292q2 -1 6 -1l-9 8q0 -1 1 -6v-1l3 -6l-1 -1v7z" />
    <glyph glyph-name="f" unicode="f" 
d="M364 149q2 2 4 6q17 2 47 12q-26 16 -39 16q-4 0 -10 -2l-1 -1q-1 -1 -5 -1l-10 10q-15 15 -23 15q-24 0 -25 -28q-1 -6 0 -14q1 -6 1 -14v-263q0 -18 -17.5 -33.5t-35.5 -15.5q-23 0 -41.5 23t-18.5 46q2 12 9 37q5 18 12 55l-14 366q4 28 8 85q-1 59 0 154q0 7 27 38
q11 1 41 5q23 3 28 3l176 -10q4 -1 16.5 3t16.5 4q6 0 9 -3l5 -3q72 -5 182 -5q6 0 15 3.5t13 3.5q7 0 14 -16l10 10l1 2q1 1 3 1q2 -1 9 -8q13 -13 21 -13q9 0 17 4l4 2q4 -9 4 -17q0 -39 -13 -42q-1 0 -12 -5.5t-14 -5.5q-19 10 -48 23q-37 9 -127 9q-88 0 -118 -3
q-55 -7 -113 -31q0 -29 25 -29l21.5 0.5t47.5 1.5l69 2q3 -2 8 -4.5t11 -2.5q8 0 14 6q1 0 2 1q2 -1 7 -4q10 -7 17 -7q6 0 10 2l5 5q4 -7 13 -7q8 0 22 3.5t20 3.5q10 0 36 -5q17 -3 36 -7l1 17l-242 -5q-15 0 -113 -4q-5 0 -33 -8q-1 1 -1 5q0 3 31 19q-22 8 -25 10
q-22 16 -27 16q-25 0 -27 -27q-1 -13 -1 -91v-92q-1 -4 -3 -10q-4 -10 -4 -17q0 -15 10.5 -32t24.5 -17q6 0 15.5 3.5t15.5 3.5q10 0 62 -6q57 -6 105 -8q39 -1 139 -4q62 -3 62 -31q0 -16 -17 -27.5t-34 -11.5q-2 0 -21 9.5t-25 10.5q-25 5 -91 5h-61q-25 0 -42 -3
q-45 -8 -45 -36q0 -21 20 -23q47 -4 86 -4q3 0 24 6zM520 158q3 1 6 1q1 0 3 -1h-9zM142 524v-4q-12 -25 -12 -67q0 -54 -4 -67l17 -2q0 6 -4.5 18t-4.5 15q0 57 8 107zM142 127l-1 1q-3 42 -3 56q4 -7 4 -11v-46zM142 100v-47l-1.5 -1t-2.5 -2q-7 18 -7 26q0 15 11 24z" />
    <glyph glyph-name="g" unicode="g" 
d="M458 318q3 -3 10 -3t16 6l2 2q1 1 2 1l181 4q21 0 68 -12q54 -14 58 -27q18 -54 18 -112q0 -6 1 -25q2 -39 -28 -99q-7 -14 -30 -37t-36 -29q-33 -15 -84 -18q-71 -4 -86 -8l-16 -2q-4 -1 -9 -2q-15 0 -44 2t-44 2q-3 0 -14 5t-17 5q-9 0 -27.5 -3.5t-27.5 -3.5
q-100 0 -155 64q-29 33 -30 87q0 19 -3 46q-19 80 -19 180q0 237 40 301q1 3 13 10l10 6q13 8 18 13q12 10 27 20q23 8 61 15q33 6 43 6h244q38 0 59 -5q54 -13 95.5 -61.5t41.5 -103.5q0 -42 -40 -42q-20 0 -29 17q-2 4 -2 17q0 20 -3 28q-8 22 -35 58.5t-43 37.5
q-145 8 -187 8q-36 0 -73 -11q-24 -7 -66 -43q29 -5 61 -9q13 -1 46 0l47 2q5 0 14 -1t14 -1q17 0 52 1.5t52 1.5q11 0 36 -23v-2l2 -8q19 -23 34 -55v-4q-1 -7 9 -26q-17 14 -24 25q-3 13 -13 37q-24 37 -56 45q-21 5 -79 5q-81 0 -174 -8q-11 -1 -25 -8l-2 -1q2 4 17 24
l-6 6q-4 3 -8 4l-7 -1q-32 0 -47 -44q-21 -61 -22 -138q-6 -30 -6 -51q0 5 0 -2q1 -6 1 -19q2 -42 2 -88q5 -22 5 -57.5t4 -61.5q13 -83 78 -117q16 -8 49 -11q46 -4 72 -4h120q1 0 28 9q24 3 47 5q29 5 45 14q8 5 19 19.5t11 22.5q0 6 -9 33l-17 53q-17 -14 -26 -26
q-2 -2 -12 -16h-2l2 21q0 27 -37 35q-30 3 -60 5q-36 3 -85 11l-8 1q-17 3 -53 26q6 -3 21 -18q12 -13 19 -13q11 0 38 4.5t40 4.5q11 0 32 -1t32 -1q20 0 53 16q-9 37 -86 37q-1 0 -8 1h-12q-19 0 -28 -6q-3 -1 -16 -15q-5 -6 -7 -6q-10 0 -22 9q-27 20 -27 42
q0 5 8.5 15.5t13.5 12.5zM118 91q-14 41 -19 79q-2 13 5 44q-13 16 -13 28l5 164l-17 -1q1 -41 9 -144q1 -15 24 -181q4 6 6 11zM148 26v9l-14 -6q13 -13 30 -40l14 10zM676 232q4 4 2 4l-2 -1q-6 -3 -6 -13q0 -12 20 -21q16 -9 30 -10q0 10 7 17l-6 9q-6 22 -25 22h-14z
" />
    <glyph glyph-name="h" unicode="h" 
d="M732 581q2 -57 1 -67l-2 -1zM243 718q19 -23 19 -33v-92q0 -32 -7.5 -97t-7.5 -97q0 -49 38 -49q2 0 16 2q6 2 16 3.5t101 1.5h1l1 -1q6 -6 14 -6q7 0 19.5 3.5t17.5 3.5q16 0 68 -3l69 -4q62 0 169 19q10 2 22 13.5t12 21.5q0 6 -18 32q-14 20 -14 21q1 6 6 17
q13 30 24 107q7 52 1 87q-7 39 -7 43q0 3 17 26h5q12 0 37 -14t30 -26q8 -26 8 -85v-668q0 -16 -16 -32t-32 -16q-20 0 -26 4q-17 11 -25 39q-5 18 0 35q5 16 7 25v91q0 8 -5 38l-22 67q-2 5 -2 10q2 3 12 16q17 21 17 26q0 23 -18.5 38.5t-41.5 15.5q-30 0 -30 -28
q0 -13 13 -17q-1 -9 -2 -20q0 -15 17 -23l1 -10q0 -1 -2 -3l-1 -1q-4 -4 -7 -8q-2 -65 -4 -91q1 37 -18 98q-9 27 -48 27h-33q-32 0 -125 6l78 -2q21 -1 83 5q20 2 43 17v17q-19 23 -76 28q-25 2 -177 2q-64 0 -88 -10q-25 -15 -44 -28q-1 -1 -5 -3q-3 1 -14 8
q-17 11 -23 11q-30 0 -31 -48q0 -16 4 -43q0 -24 1 -66q2 -48 2 -66q1 -92 -9 -140q-4 -21 -34 -21q-72 0 -72 85v706q18 39 50 39q4 -1 13 -5q13 -6 18 -6q9 0 15 7zM483 231l-142 -6q-10 0 -18 5q11 4 66 3z" />
    <glyph glyph-name="i" unicode="i" 
d="M247 472h-6v14h6v-14zM247 428h-6v28h6v-28zM247 389h-6v11h6v-11zM387 6q0 -26 -12.5 -45t-37.5 -19q-22 0 -34.5 18.5t-12.5 40.5q0 6 6 29t8 38q-2 -14 -2 80q0 2 3 8t3 10v298q0 4 -4 83q0 9 -5.5 28.5t-5.5 29.5q0 32 32 32q2 0 13 -6t14 -6q-1 0 5 1q0 2 4 2
q24 0 24 -47q0 -44 -8 -79q0 -3 -5 -14t-5 -15v-264q0 -4 5 -18.5t5 -18.5q1 -4 -4 -47q0 -19 7 -59.5t7 -59.5z" />
    <glyph glyph-name="j" unicode="j" 
d="M207 64q6 -8 11.5 -25.5t2.5 -25.5q0 -1 -5.5 -10t-2.5 -23q19 -18 58 -42q5 -1 58 -16q22 -34 91 -33l1 -5q1 -1 10 -30q25 16 40 34q35 2 82 8t79 24q13 7 32.5 27t19.5 31v518q0 39 -20 136q23 16 28 16q7 0 55 -17q9 -15 10 -22q5 -23 5 -45q0 -23 -6 -29
q-15 -16 -19 -34l3 -319l11 -96v-116q-13 -36 -28 -54q-54 -65 -140 -65q-7 0 -20 3.5t-22 3.5q-13 0 -39 -5.5t-38 -5.5t-36 2t-36 2q-3 1 -51 12q-9 2 -16 2q-23 0 -31 -11l-1 -1q-2 -2 -21 -2q-32 0 -47 7q-5 2 -38 21l-27 50q-12 14 -19 23q-18 65 -18 82q0 12 8.5 34.5
t17.5 22.5q6 0 14 -5v-2q-1 -8 2 -18l10 -8q-1 1 -3 1q7 -4 15 -4q10 0 17 6z" />
    <glyph glyph-name="k" unicode="k" 
d="M119 -23h1l1 1q-6 -2 -8 -6t-2 -7q1 -19 37 -41q32 -20 48 -20q4 0 19 7q-26 -29 -60 -29q-24 0 -41 20t-17 40q0 13 13 51q3 9 3 27q-1 7 -1 13q0 11 3 40q2 25 1 40q-2 38 -3 62q-5 95 -4 111q0 11 12 55q2 8 2 13q0 8 -7 28t-7 28q0 20 1.5 60t1.5 60v92q0 10 -5.5 30
t-5.5 27q0 53 43 53q2 0 7.5 -1l39.5 -7q18 -13 18 -87q0 -90 -4 -167q0 -6 -7.5 -24.5t-7.5 -26.5q0 -19 13 -37.5t32 -18.5q37 0 95 75l33 21q18 22 45 49q11 6 26 15q65 65 167 150q24 20 110 55q1 1 6 1h14q22 0 24 -4t2 -30q0 -22 -16 -36q-7 -7 -35 -22
q-45 -24 -127 -102q-4 -1 -15 -6l-84.5 -79t-76.5 -83q-49 -22 -49 -47q0 -13 65 -81q61 -64 99 -95q43 -35 124 -110l112 -102q0 -18 -15.5 -35.5t-33.5 -17.5q-24 0 -40 16l-8 11q-11 18 -41 62q-25 34 -108 96q-11 8 -26 29.5t-23 28.5q-13 12 -75 54t-69 42
q-10 0 -16 -7q-5 0 -8 13q-5 24 -21 31q1 1 3 1.5t3 0.5q23 29 23 41q0 10 -9.5 19t-19.5 9q-8 0 -14 -3l-15 15q-31 -26 -31 -40q2 -67 5 -235q-1 -12 -7 -106l-52 18q-11 4 -17 4h-13zM516 -40l-250 205v7h8q14 -11 80 -69l133 -116q11 -9 34 -31zM50 56q0 11 1 22
q2 17 0 23q0 6 -5 20t-5 20q0 15 5 17l-13 11l2 -138l23 -1q0 1 -8 26z" />
    <glyph glyph-name="l" unicode="l" 
d="M736 -84l2 -6q0 -39 -48 -39q-4 0 -7 1q-38 11 -122 11h-149q-3 3 -8 5q-14 9 -22 9q-6 0 -20 -6q-9 -5 -18 -8q-109 -8 -92 -8q-35 0 -58 14q-3 2 -12.5 14.5t-9.5 15.5t6 23l7 26q7 31 6 54l-15 606q-8 21 -8 39q0 54 26 54q4 0 9 -1l18 -4q18 -4 36 -6l3 -6
q4 -7 5 -27v-21q0 -15 -4 -46t-4 -47v-348q1 -7 1 -17q0 -28 -7 -50q-5 -16 -5 -22q0 -8 6 -17q2 -2 4 -8q4 -13 5 -43q2 -33 5 -46q6 -22 33 -38q7 -1 41 -8q12 -2 43 -11q21 -6 46 -6q7 0 54 5l54 6q27 0 142 -12q6 -6 10 -8l-3 -4l14 -15q8 -6 15 -6q12 0 21 1zM671 -47
q-7 0 -13.5 -3.5l-6.5 -3.5q-20 0 -58.5 7.5t-57.5 7.5q-40 0 -63 -39q54 -22 80 -22h43q9 0 40.5 8t50.5 8q0 22 -15 37z" />
    <glyph glyph-name="m" unicode="m" 
d="M680 168q16 36 38 79h5q10 -46 10 -84v-98q0 -11 2 -22q0 -7 1 -14v-8v-36l9 11l-6 -1q-2 11 1 23q-4 7 -8 11l-2 2q-8 31 -25 116q-3 7 -15 22q-8 0 -10 -1zM556 285q4 4 1 20l-3 15q-1 5 -1 8q0 10 4 14q18 13 45 40q5 11 34 61l11 39q29 80 90 212q11 25 25 30
q9 4 42 4q75 0 75 -80v-98l12 -151l3 -439q1 -81 -48 -81q-19 0 -34 22t-15 42q0 -3 10 27q5 67 5 89q0 87 -9 139q-3 18 -18 67l-10 33q-4 12 -4 15l11 11q18 18 23 56q1 -2 21 -22q20 62 20 90q0 55 -9 128q-4 6 -15 21h-22q-54 -94 -75 -141q-19 -19 -21 -32
q-6 -36 -25 -127q-10 -41 -30 -85q-13 -18 -29 -53l-26 -55q-4 -8 -32.5 -22.5t-40.5 -14.5q-11 0 -52 19q-3 1 -6 6v6q1 2 1 7q1 18 -15 34q-12 0 -19 -7l-1 1q15 18 15 30q0 14 -30 73q-28 55 -41 72q-24 23 -74 77q-2 17 -8 38q-2 3 -16 19l-8 8q0 10 40 29q9 4 9 16
q0 17 -36 66q-24 33 -44 55q-24 -19 -29 -57q0 -38 -1 -49.5t-6 -36.5t-5 -38q0 -8 8 -31q10 -28 11 -32l4 -330q0 -9 1 -29.5t1 -31.5q0 -117 -45 -117q-28 0 -37.5 5.5t-21.5 31.5q-14 30 -14 40q0 -7 10 33q3 28 2 70v73q0 3 -2 99q-3 144 -3 326q0 -3 6 75q-1 13 -1 61
l2 2l6 9q2 6 11 20t13 14q1 0 7 1h13h20q33 0 43 -8t21 -29q11 -16 37 -70q31 -46 58 -94l53 -105q21 -40 37 -75q7 -16 31 -63q35 -63 70 -63q11 0 24 12l10 9q6 6 13 9v26q-12 12 -23 12h-4zM308 170l-10 20q-4 7 -16 30q-15 28 -15 33q1 2 4 12q1 5 3 12q36 -54 86 -148
q14 -32 40 -60q-24 14 -46 34t-46 67z" />
    <glyph glyph-name="n" unicode="n" 
d="M696 241v-1q-1 5 -3 26q-10 47 -10 53q1 4 3 11q3 14 3 20v168q0 4 -2 38h10l-11 12v-350l15 11q-5 2 -5 12zM299 571l-1 -1q5 2 7 6t1 6v5q0 19 -45 61q-2 1 -8 3h-9q-28 0 -45 -43q-13 -34 -13 -69q0 -23 1 -26q4 -17 12 -60q6 -34 -2 -57l8 -441q2 -88 -48 -88
q-22 0 -35.5 9t-25.5 55q-1 5 -5 19q-3 13 5 34q5 14 5 20v100q0 8 -5 26t-5 27q1 39 1 134q0 4 -3 12t-3 10v123q0 1 5 12.5t5 16.5q1 20 1 90q0 25 -1.5 74t-1.5 42q0 29 13 43.5t80 14.5q54 0 72 -10q26 -15 65 -79l226 -377l15 -15q14 -10 76 -115q11 -20 44 -75
q38 -57 78 -57q35 0 36 51q-6 8 -23 18q2 14 -9 33q-8 11 -19 31q-5 9 -5 13q0 8 12 46q12 43 14 53q4 24 4 26v305q0 19 -7.5 56.5t-7.5 56.5q0 10 7.5 22.5t16.5 12.5q49 0 61 -28q5 -12 9 -40q3 -16 6 -61l3 -610q0 -20 -8 -69q-7 -20 -36 -34q-25 -12 -49 -12
q-38 0 -53.5 9.5l-58.5 35.5q-5 2 -10 16q0 2 2 10q3 17 -1 24q-18 40 -33 69q-10 19 -25 39q-22 29 -26 35q-34 64 -114 198q-27 45 -87 124q-11 15 -37 26q-34 14 -40 18q0 22 -3 59l-36 27q5 7 13 17q7 -4 10 -10h23zM258 447q2 -1 5.5 -4t4.5 -5l213 -346
q64 -108 90 -144q30 -41 85 -98v16q0 -1 -1 -2.5t-2 -1.5q2 2 0 2q-15 0 -60 57l-7 9q-1 2 -4 6q-38 38 -77 101q-51 83 -69 106q-15 20 -73 122q-1 3 -7 7l-4 2q-3 1 -5 3q-28 51 -55 90q-7 10 -33 22q-2 -4 -8 -13q-8 43 -8 51q0 5 15 20z" />
    <glyph glyph-name="o" unicode="o" 
d="M715 133q-8 -25 -46 -58.5t-62 -33.5q-17 0 -51.5 -1t-51.5 -1q-12 0 -35 2.5t-35 2.5q-8 0 -25 -2.5t-25 -2.5q-30 0 -58 10q-8 3 -12 3h-4l-6 -2t-7 -1q-6 0 -16 9l-15 13q-54 32 -64 108q-1 11 -4 39t-23 133q-3 15 -3 17q0 -20 11 128l2 3l6 10q-4 12 -3 19
q6 20 17 42q26 35 54 47q24 10 144 22q39 4 45 5q23 0 58 -3q25 -2 55 -5q59 -5 95.5 -28.5t58.5 -75.5q8 -18 10 -47q4 -43 5 -49q2 -10 6 -34q4 -59 4 -83q0 -110 -25 -186zM161 155h1l-14 -1q6 -4 13 -30q12 -43 75 -97l7 21q-1 0 -7 -1l-49 52q-19 25 -26 56zM671 488
q-17 113 -93.5 119t-116.5 6q-82 0 -135 -17q-19 -6 -39 -24.5t-25 -36.5q-3 -13 -11 -45q-1 -6 -2 -21l-1 -19q-1 -16 -3 -41v-39q-1 -22 -1 -26q-2 -14 -2 -16q0 -13 2 -40t2 -40q0 -6 5 -18q4 -7 41 -97q18 -44 60 -56q21 -5 88 -5h29q43 0 98 9q28 5 55 17q36 17 42 68
l18 166q0 85 -11 156zM605 201l22 2q-3 8 -3 21q0 36 3 54q0 3 5 15.5t5 19.5q0 1 -4 19q-2 5 -4 11.5t-2 7.5q1 14 -1 71l-17 74q-8 38 -46 49q-52 15 -109 15q-68 0 -129 -15q-13 -3 -38 -28l19 -9q0 5 -1 7l-2 3v2q0 17 25 24q10 4 85 7q54 2 99 2q31 0 66 -11
q10 -3 13 -8q27 -32 24 -85q-1 -3 2 -8l1 -3q1 -1 1 -3v-161q0 -6 -14 -73z" />
    <glyph glyph-name="p" unicode="p" 
d="M810 457q0 -82 -31 -141q-5 -10 -18 -21l-24 -21q-5 -8 -23 -24q-41 -23 -66 -23q-9 0 -108 5l-107 6q-16 0 -31 1q-22 1 -31 0q-15 -2 -28 -12q-6 -3 -18 -17q-5 -5 -17 -5q-4 0 -12.5 2t-12.5 2q-25 0 -34 -21q-4 -9 -4 -33v-5q0 -21 -2 -35q-1 -1 -4 -8q-5 -10 -5 -15
q0 -3 8 -21t8 -24q9 -60 9 -74q0 -85 -64 -85q-30 0 -34 5q-7 8 -18.5 29t-11.5 29q0 2 12 30.5t13 39.5q8 103 5 164l-26 509q-3 58 70 58h402q44 0 97 -36.5t72 -77.5q34 -75 34 -181zM529 182h-17v6h17v-6zM489 181q-12 -12 -36 -12q-42 0 -57 7l-7 -7h-68q11 21 26 21
q-8 0 75 -5q5 0 16 -4q15 -5 16 -5q15 0 26 11q3 -1 9 -6zM78 494h-6v17h6v-17zM78 439h-6v32h6v-32zM95 271q0 -1 -2.5 -11.5t-2.5 -14.5q-16 52 -16 68q0 14 6 18q-11 8 -11 15q0 8 5 16q3 -1 16 -10q0 -14 2.5 -41t2.5 -40zM91 187h-14v32q1 1 5.5 4.5t7.5 6.5v-20
q0 -6 1 -13v-10zM98 39q-2 -2 -4.5 -6.5t-4.5 -6.5q0 22 -6 75l-6 55q0 10 11 27q4 -11 4 -42q0 -16 -1 -32q-1 -21 0 -36q2 -18 7 -34zM92 -10h-6v14h6v-14zM642 678v6h-14v-6h14zM693 572q0 36 -8 51q-9 19 -38 34q-2 20 -2 19q-12 -11 -14 -11q-3 0 -14 8l-5 3
q-17 11 -21 11q-3 0 -10 -2t-8 -2q0 -2 3.5 -8t2.5 -7q-1 -3 -5 -7h-7q-5 -1 -9 -1q-7 -2 -14 -2q-5 0 -31 9t-31 9q-4 0 -15 -5.5t-16 -5.5q-3 0 -27 11q-1 -10 -24 -15q-30 -7 -34 -9q-42 -24 -63 -24q-7 0 -19.5 4t-18.5 4q-15 0 -35 -27v-150q0 -3 10 -33q2 -32 2 -70
q15 -15 55 -24q37 -14 41 -17q64 0 50 2q136 -17 125 -17q7 0 25.5 5.5t23.5 5.5q4 0 14.5 -2t14.5 -2q20 0 49.5 13.5t34.5 29.5q10 4 13 10q2 16 2 22q0 19 -2 23q-9 16 -31 60q6 2 17 -1q4 6 12 52q7 43 7 56zM628 623q-1 -1 -28 -9l-12 24l8 9h11q11 0 21 -24zM661 519
q0 -22 -14 -36q-5 -4 -17 -15h-17q-1 6 7 24q-9 26 -36 92q-1 1 -17 5q-19 1 -58 8q-1 0 -53 11q26 13 101 13q17 0 52 -20q4 -5 21 -31q8 8 15 14q-1 -25 2 -45q0 -3 7 -9t7 -11zM452 609q-3 -13 -30 -13q-15 0 -26 11q-11 -13 -13.5 -14t-15.5 -1q-12 0 -35 17
q18 0 31 -10l3.5 3t7.5 7.5t9 4.5q11 0 69 -5zM313 591h-10v6h10v-6zM636 536l-6 6l-3 -4l5 -5z" />
    <glyph glyph-name="q" unicode="q" 
d="M820 38q0 -40 -37 -40h-9q-3 6 -12 16q-37 24 -41 24q-10 0 -22 -4q-9 -7 -34 -24q-40 -26 -68 -29q-84 -10 -164 -10q1 0 -15 2q-10 2 -18 3l-84 6q-24 -1 -62 27q-2 0 -2.5 -1.5t-4.5 -1.5q-7 0 -30 39q-5 5 -13 18q0 11 -4 26q-6 5 -13 14q0 3 -2 27q-5 13 -13 46
q-15 128 -15 170q0 32 5 87q7 71 8 89q2 27 11 42q32 52 87 72q7 2 41 11q5 -1 23 -1q21 3 65 7t81 4q1 0 10 -2.5t12 -2.5q4 0 12.5 1t12.5 1q56 0 93 -9q7 -5 35 -19q40 -16 69 -59q26 -38 35 -85q19 -99 19 -195q0 -70 -15 -153q0 -16 24 -40q28 -28 33 -39q2 -5 2 -17z
M738 -18l-28 3v5l28 -3v-5zM119 345l-17 -10v59q0 32 4 47q3 2 5 5q7 21 7 43q0 -8 -3 -34q-1 -15 -4 -35v-58q0 -9 8 -17zM109 315h-6v16h6v-16zM393 -60l-2 -4l-10 3v4zM250 -27q-15 0 -75 46q-8 12 -25.5 42.5t-32.5 88.5q-2 19 -5 70q0 6 -3.5 18t-3.5 17v54
q3 -5 10 -19q2 -5 -5 -15q0 -1 3 -4.5t5 -9.5q2 -28 12 -78q0 -17 4 -41q19 -71 57 -119q27 -35 59 -50zM316 -53h-16v5h16v-5zM709 206q-43 28 -43 60q0 3 8 29q9 32 9 82q0 34 -1 38q-9 34 -25 73q-8 31 -13 48q-10 33 -38 42q-32 10 -106 10q-50 0 -121 -14
q-41 -8 -50 -11q-37 -12 -49 -23q-10 -7 -15 -17q-11 -21 -16 -76q-11 -44 -11 -118q0 -139 33 -220q4 -6 26 -32q10 -12 48 -20q32 -7 55 -7q22 0 67 1.5t67 1.5q3 0 8 3t7 3q3 0 8 -3t8 -3q83 0 122 59q2 8 5 26q5 11 12 44q5 23 5 24zM645 348q0 -51 -15 -60q-4 23 -6 92
q-2 60 -11 89q-13 42 -48 57q-17 3 -63 6q-56 3 -60 3l-131 -8q4 16 36 22q21 4 63 4h169q3 0 7 -2q25 -16 32 -28q27 -47 27 -175zM639 120q0 -4 -3 -9t-3 -6h-15q-19 0 -36.5 13t-21.5 32q-3 14 -40 44l-25 18q-2 1 -18 1q-1 4 -8 14t-7 15q0 9 15 46h15q33 0 74 -37
q14 -6 40 -27q23 -36 29 -62q4 -18 4 -42zM537 120l-5 -1q-3 -2 -9 -2q-14 0 -34 18q-39 35 -64 70q-4 10 -12 26l4 25l93 -102q11 -7 19.5 -16t7.5 -18z" />
    <glyph glyph-name="r" unicode="r" 
d="M841 6v-17q0 -5 1 -13v-10q0 -81 -51 -81q-40 0 -52 35q-16 32 -16 45q0 6 4.5 19.5t4.5 20.5q-1 30 -11 91l-15 91q-2 15 -21.5 32t-34.5 17q-38 0 -107 3q-46 2 -69 2q-88 0 -139 -9q-7 -1 -30.5 -9t-28.5 -8q-4 0 -14 3.5t-16 3.5q-10 0 -16.5 -20.5t-6.5 -32.5
q3 -101 3 -130v-101q0 -9 -12 -31t-19 -25q-15 -4 -27 -4q-30 0 -51 26t-21 57q0 8 7 36.5t4 41.5l-3 656q14 47 34 52q31 8 49 8l368 4q47 1 114 -9q15 -2 33 -14l30 -21q31 -15 56 -47t31 -66l22 -117q0 -93 -17 -137q-7 -18 -20 -37q-16 -25 -19 -26q0 -28 28 -123.5
t28 -155.5zM57 619h-7v21h7v-21zM55 463q-7 -1 -9 -1q-5 -2 -8 -2v80l17 -4v-73zM695 -104q-15 21 -20 39q0 6 -2 44q-4 10 -13 37q-3 29 -11 88q-7 47 -43 61q-18 7 -79 10q-28 2 -79 0l-41 -1q-10 0 -32 -3.5t-31 -3.5q-6 0 -17 3q-15 4 -20 4q-4 0 -8.5 -3.5t-9.5 -3.5
q-7 0 -17 5q-5 14 -5 16l337 12q18 1 42 -10q11 -5 16 -5q0 -6 6.5 -21t7.5 -21q4 -24 4 -71q0 -13 -1.5 -39.5t-1.5 -39.5q0 -23 5 -43q14 -29 13 -33v-21zM42 412h-6v13h6v-13zM57 341h-7v25h7v-25zM63 261l-9 -257q-7 57 -7 131q0 5 -5 18t-5 17q0 10 4 29q5 23 6 29
q7 51 7 102q2 -22 9 -69zM722 505q-3 32 -12 112q-1 10 -23.5 29t-32.5 19q-52 0 -156 5q-55 0 -141 -9q-15 -2 -32 -11q-20 -11 -25 -23q24 0 73 -2t73 -2q20 0 92 5l66 5q21 0 23 -1q11 -11 19 -16q11 0 18 -1q21 -76 21 -119q0 -17 -7 -38q-8 -24 -20 -32q-7 18 -10 57
q-1 20 -5 60q-4 37 -26 44q-47 14 -113 13l-229 -4q-4 -7 -17 -18q-14 11 -14 20q0 20 37 30q-7 0 -20.5 4.5t-17.5 4.5q-22 0 -27 -72q-1 -14 -1 -87q0 -76 1 -87q7 -69 32 -69q4 0 13 2t13 2q5 0 24.5 -5.5t21.5 -5.5q6 0 16 6l14 -1t30 -1q4 0 48 1q59 2 115 3h46
q27 0 35 -1q25 0 54 14.5t39 34.5q4 8 0 27q-1 9 -5 26q-1 15 4.5 42t5.5 39z" />
    <glyph glyph-name="s" unicode="s" 
d="M799 229q0 -94 -52 -157q-55 -67 -147 -73q-191 -12 -227 -12q-17 0 -51.5 2t-51.5 2q-9 0 -52 17q-11 4 -40 41q-4 1 -16 5q-30 65 -30 86q0 65 32 65q5 0 7.5 -2.5t5.5 -7.5q28 -8 43 -7q0 -1 12 -31q18 -47 40 -57q15 -7 36 -13q61 -11 125 -11l24 1q30 0 63 1l87 2
q27 0 53 25q5 11 12 30q15 29 15 42v4l-2 8t-1 11v111q-28 47 -90 48l-232 3q-8 0 -57 -4l-58 -5q-5 0 -11 4t-8 4q-41 14 -69 45q-8 9 -19 43q-8 8 -17 23q-11 60 -11 80q0 15 20 115q5 6 15 20q16 30 51 47q19 6 57 19q18 7 118 12q39 2 102 2q92 0 139 -11q9 -5 23 -11
q49 -7 94 -53.5t45 -95.5q0 -16 -1 -19q-3 -7 -21.5 -18.5t-24.5 -11.5q-39 0 -41 29q1 10 -2 34q-5 15 -39 59q-8 10 -34 25q-6 4 -43 8q-3 0 -10.5 4.5t-11.5 4.5t-10.5 -4t-9.5 -5q-12 -4 -40 -4q-6 0 -10 1l-8 2h-5q-47 0 -111 -17q-24 -6 -45 -29q11 -6 53 -6h76h69
q40 -1 50 -1q10 10 9 23h12q2 -12 8 -23l21 -14q2 -3 29 -32q8 -8 14 -27q7 -22 8 -26q10 -16 20 -27q-2 -5 -9 -5q-20 0 -42 40l-28 48q-20 17 -158 17q-53 0 -143 -10q-3 0 -11.5 -3t-12.5 -3h-10l-4 8q15 12 20 26q-3 3 -7 5q-25 0 -42 -38q-7 -16 -7 -57q0 -30 4 -41
q11 -30 28 -44q32 -26 119 -30l65 -3q49 -2 104 -3q64 -1 145 -19q17 -4 42 -25q22 -19 34 -36q34 -48 34 -120zM661 254q0 -75 -49 -82q0 3 5 22t5 22q0 44 -35 70q-58 11 -122 11h-81q-6 0 -17.5 3t-17.5 3h-7q-6 -1 -13 -1q-11 -2 -21 -2q-2 0 -9.5 2.5t-10.5 2.5
q-25 1 -73 9q-16 4 -27 13q-64 50 -89 92q-30 50 -30 123q0 5 5 18q-2 -47 6.5 -63l20.5 -38q47 -123 177 -139l309 -7q4 0 7.5 3.5t7.5 3.5q17 0 51 -24q8 -32 8 -42zM295 -43h-12v5h12v-5zM187 -5h-11q-8 -2 -45 46q-5 3 -18 16q-21 44 -20 48v17q6 -12 37 -56q1 -4 2 -14
zM210 -21l-15 4v6l15 -4v-6z" />
    <glyph glyph-name="t" unicode="t" 
d="M672 517q-3 0 -5.5 -5t-6.5 -6q-27 -6 -59 -6q-8 1 -25 7q0 1 13 9q23 6 45 4zM759 581q0 -46 -50 -46q-4 0 -20 16t-30 16q-31 0 -63.5 -17.5t-39.5 -17.5q-5 0 -6.5 1t-3.5 2h-3q-11 0 -31 -23q-3 -4 -3 -21q0 -3 2 -8t2 -8q2 -28 2 -103v-74q0 -47 7 -114q2 -9 -1 -23
q-3 -18 -3 -23q0 -24 7 -73.5t7 -73.5q0 -17 -16 -46q-5 -9 -17 -15q-1 -1 -18 -1q-20 0 -33 13t-13 33q0 12 9 32.5t10 29.5q5 40 5 47l-9 270q0 3 -16 130q4 13 3 37q-5 9 -19.5 20.5t-23.5 11.5q-1 -2 -16 -8q-1 -1 -18 -1q-11 0 -32.5 4.5t-31.5 4.5q-8 0 -37.5 -10.5
t-35.5 -10.5q-13 0 -30 17t-17 30q0 8 7 24t12 16q29 1 110 5q49 2 71 2q15 0 45 -3t45 -3q5 0 17.5 3t18.5 3h93h63q29 -1 25 -1q17 -2 60 -12q16 -4 16 -32zM391 300l-13 3q4 0 2 6l-3 18q-1 5 0 8t8 8l-8 8q1 76 -8 124q-4 18 -26 21l-111 11q12 0 34.5 5.5t32.5 5.5
q56 2 55 2q4 0 6 -2.5t6 -2.5q3 0 6 1t5 1v11q2 -7 8 -14.5t6 -11.5v-202zM155 535q-4 10 -13 15v19q0 -4 7 -15.5t6 -18.5zM392 287l-4 -8l-4 2l4 7zM393 260q-3 -22 -3 -51q0 3 -3 33q-5 0 -4 7v18q1 0 10 -7zM392 183h-5v13h5v-13zM392 153h-5v17h5v-17zM392 127h-5v14h5
v-14zM402 -47q-8 18 -8 19q0 8 8 40v-59z" />
    <glyph glyph-name="u" unicode="u" 
d="M686 623h-7v13h7v-13zM691 362q3 -71 2 -108q0 -13 -3 -59q-2 -36 -2 -58q0 -2 -8 -18q-5 75 -8 200l-1.5 2.5t-3.5 4.5v168q7 0 14 7v10q0 14 -14 37h13q7 -10 7 -126q0 -11 2 -30q2 -23 2 -30zM848 119q-3 -114 -72 -162q-57 -40 -106 -40q-5 0 -17.5 2t-17.5 2
q-10 0 -33.5 -5.5t-32.5 -5.5l-197 7q-5 0 -22 -7t-22 -7q-6 0 -11 2h-7q-4 1 -5 1q-32 0 -77 16q-17 6 -43 28q-34 29 -49 57q-12 23 -22.5 57t-10.5 44q0 9 7 34t7 36l-35 340q0 18 4.5 55t4.5 55q0 8 -2 23t-2 23q0 20 24 39q11 9 24 9h26q10 1 17 10q11 -2 21 -25
t10 -36v-175q0 2 6 -104l7 -140q2 -46 7 -110q1 -8 -1 -37q-1 -21 8.5 -38l19.5 -34q10 -13 54 -26q40 -12 61 -12q115 0 158 3l87 6q53 4 74 14q34 15 43 57q2 11 -5 42q-1 6 5 47q15 94 15 79l-18 452q-1 15 2 24q4 14 21 28q27 -18 40 -18q3 0 14 11q22 -18 28 -62
q1 -7 4 -71q-1 5 -1 -29q0 -13 3 -37.5t3 -36.5zM588 -137h-102v6h102v-6zM457 -137h-59v6h59v-6zM336 -138h-13v7h13v-7zM276 -123h-24v6h24v-6zM230 -109h-17v6h17v-6z" />
    <glyph glyph-name="v" unicode="v" 
d="M630 445h-6v11h6v-11zM615 402h-7v22h7v-22zM599 348h-7v22h7v-22zM583 305h-6v10h6v-10zM902 710q0 -68 -36 -155l-41 -66q-1 -16 -6 -39l-28 -67q-31 -72 -66 -245q-5 -23 -18 -56l-23 -54q0 -1 -2 -23q-3 -4 -17 -35q-14 -66 -41.5 -90.5t-92.5 -24.5q-10 0 -69 16
q-7 2 -14.5 24t-21.5 23q4 12 4 29q0 23 -15 66l-34 97q-9 30 -60 140l-66 137q-20 70 -61 188q-7 19 -56 93q-13 19 -13 46q0 43 37 43q14 0 39.5 -7t31.5 -15q32 -40 58 -113q12 -36 38 -108l109 -293q30 -57 55 -122q22 -55 65 -55q8 0 12 1q-3 -4 -8 -24v-34q2 2 19 11
q0 3 3.5 12.5t3.5 18.5q0 -1 -4 13q-5 11 -5 18q-3 68 16 113q11 5 29 24q1 1 49 149q6 7 17 31q20 88 39 137q0 1 2 23q1 5 47 191q17 26 32 52h16q4 0 18.5 -12t17.5 -14q8 0 27 -2q13 -4 13 -42zM99 633h-7v26h7v-26zM414 -116l-4 -12q0 4 -8 6.5t-10 5.5
q-52 106 -106 235l-82 202q-2 4 0 20q-2 5 -15 26q-1 4 -4.5 15.5t-6.5 19.5l-21 40q-51 137 -51 157v29q18 -17 21 -25q18 -55 22 -78q6 -6 10 -11q10 -41 33 -106q16 -25 30 -61q0 -12 1 -21q26 -45 45 -98q17 -46 62 -152q0 -5 3 -19l66 -153q5 -5 15 -20z" />
    <glyph glyph-name="w" unicode="w" 
d="M901 611q8 -30 -2 -110q-5 -34 -15 -112q-32 -267 -71 -498q-3 -20 -28 -36t-46 -16q-35 0 -56.5 24.5t-24.5 59.5t-44 121q-24 50 -61 84q10 23 7 42q4 5 10 14l8 9v18q0 31 -18 59q5 38 -216 159l169 -144q18 -15 14 -22l-20 -39q0 -3 -2 -19q-3 -8 -10 -24
q19 -31 19 -45q0 -19 -88 -252q-17 -45 -67 -45q-34 0 -45 9q-22 18 -39 84q-7 32 -26 108q-10 45 -39 160l-55 208q-37 148 -37 201q0 20 16 39.5t36 19.5q27 0 50.5 -18t33.5 -44q7 -18 33 -130l28 -114q16 -66 16 -116q0 -16 -1 -45q0 -10 16 -52q19 -49 36 -49
q12 0 19 51q7 46 4 64q-2 13 -2 23q0 71 47 152q7 11 25 19.5t32 8.5q75 0 112 -45q30 -37 43 -117q1 -11 3 -38q0 -23 25 -65q10 -15 34 -57q0 18 3 72l2 26l-43 -1q3 -34 24 -171l22 82q18 66 18 82v18q-32 41 -32 58t24 121q6 42 20 150q4 35 18 120q6 29 43 29
q9 0 36 -12l20 2q32 0 32 -35q0 -9 -10 -26zM557 111v-4q36 -32 46 -115q4 -38 3 -127q-35 133 -48 156q-19 33 -19 43q0 13 18 47z" />
    <glyph glyph-name="x" unicode="x" 
d="M268 97q-6 2 -7 2l20 -30q3 8 15 37l48 119l-41 6q1 -20 6 -80l1 -10q6 -63 2 -92q-7 -49 -54 -82l32 -27q-46 12 -66 12q-25 0 -41 16t-16 41t21 50t45 35l10 -10h35l-34 -15l28 -28l39 87l-136 -75l37 -19l27 32l-21 11l-7 3q8 12 75 106l55 78q18 25 28 47
q0 22 -27 49q-16 41 -54 92l-64 86q-10 10 -39 43q-18 20 -18 34q0 12 13 25t25 13q15 0 62 -19l4 -1l-1 -2q-2 -5 -2.5 -6t-1.5 0q0 -1 8 50q8 -52 11 -57q-1 2 0 9l17 99l-70 -91q-10 -13 -5 -26l20 9q-1 -12 2 -17t8 -2q2 1 8 7l34 34l-34 6l35 -70q23 -45 31.5 -51
l21.5 -15q6 -6 10 -18q2 -6 10 -13l8 -7q12 -10 32 -38q13 -18 32 -40q33 37 39 59t25 49q16 23 33 45l33 51q15 24 38 43h44l-18 11l14 -25q29 17 34 17h22l20 -20q-4 -16 -20 -48q-24 -33 -80 -71q-4 -35 -72 -94q-2 -4 -11 -20q1 0 2 3l-3 -3q-7 -7 -7 -24.5t-4.5 -24
t-19.5 -20.5q-6 2 -15 4q-44 8 -44 -58q18 6 54 21q4 2 13 0q16 -3 76 -20l-70 73l-24 -35q10 -6 16 -13q1 0 2 -5l1 -7q102 -101 136 -182q44 -14 65 -49q1 -3 1 -16q7 -10 7 -24q0 -20 -18 -36.5t-39 -16.5t-38.5 15t-19.5 36.5t-14 38.5l-24 31q-37 51 -94 114
q-5 7 -8 23q-5 5 -19 17h-10q-40 -28 -40 -44v-28q-11 0 -20 1q-9 -8 -16 -12t-18 -9q-18 -11 -15 -35q1 -7 1 -12q-6 -21 -62 -86l5 39q2 16 2 22l-31 -20q8 -3 28 -14l13 -7l30 -16q-4 24 -7 49q-8 37 -20 44l-3 1zM635 -174q0 45 10 78l25 -25q11 -11 15 -22v-31h-50z
" />
    <glyph glyph-name="y" unicode="y" 
d="M667 438l8 7v-51q0 -11 -13 -23q-3 -31 -52 -126l-60 -102q-44 -78 -44 -101q-2 -14 -7 -25q7 -18 7 -39q0 -13 -7 -37l-11 -37l21 16h-5q-3 -1 -11 -1q-7 1 -36 6l11 -26q2 -5 11 -26v1l-10.5 -3.5t-15.5 -3.5q-21 0 -36 18t-15 39q0 10 5 30t5 30q0 57 -12 76
q-10 27 -36 81l-25 42q-22 46 -60 112l-29 51q-20 34 -35 49v57q26 16 42 16q11 0 27 -9.5t20 -19.5t19 -35q12 -18 15 -39q9 -16 55 -92q33 -54 41 -95l4 -2l29 -14l1 -1l3 20q1 4 3 20l-41 -9l15 -46l29 26l-20 9l9 17q5 11 16 33q17 19 33 68l3 9l-11 -13l15 8
q4 16 15 25q6 17 18 47q7 19 30 37q-2 6 -3 19l13 12q2 8 9 23q17 12 29 12q35 0 35 -32q0 -6 -1 -8z" />
    <glyph glyph-name="z" unicode="z" 
d="M390 529v42h46v-42h-46zM403 464v50h42v-50h-42zM432 390v46h43v-46h-43zM400 269l38 -5l-8 49q-28 0 -34 -7l-2 -1q0 -1 -2 -3q1 0 2.5 -1t1.5 -2q4 4 5 7h-7l19 -31q7 15 13 26l22.5 21.5l23.5 22.5q39 39 44 49l18 31.5t25 31.5q7 23 10 52l16 8l-13 41q-2 -13 4 -17
t13 -4q3 0 7 1q3 17 22 30l13 9q9 23 26 40l1 2l-3 -3l2 1q14 7 14 22l-22 -22q0 6 -54 6l47 14q-14 2 -87 8v-51q-51 -20 -59 -20q-24 0 -50 30q-17 0 -46 13l-5 -41q-11 27 -41 35q-12 3 -48 3q-78 0 -132 -17q-25 -8 -33 -8q-18 0 -47.5 18.5t-29.5 35.5v49
q28 -7 106 -14q14 -1 39 -5q6 1 17 5q19 9 19 19t-16 20q-6 3 -114 10q23 -24 65 -64q18 -16 43 -55l35 85l-20 -13h81l-15 36q-10 -12 -37 -41q-18 -19 -36 -19q-17 0 -44 50q36 0 55 -3q25 11 32 11q6 0 41 -8q14 8 22 8q8 -1 27 -7q8 0 52 5l51 6q7 0 42 -4q14 8 21 8
q10 0 29 -5l30 -6l77 -3q44 -2 73 -21q7 -5 15 -28.5t8 -34.5q0 -43 -56 -101l-50.5 -50t-47.5 -58q-31 -52 -70 -97l-80 -90q-86 -100 -126 -168q-9 -16 -35 -56q-13 -18 -95 -79h66l-12 4l3 -2v1q24 33 -42 82l1 -12l4 -51q21 -9 27 -9q7 0 5 14l10 -2q57 -11 134 -24
l-10 -11q0 -23 -1 -38q36 -11 41 -11q10 0 17 9l5 5q4 6 10 12l11 -26q30 -6 59 -13q-26 -41 -47 -41q-16 0 -65 3l-66 4h-56q-26 -3 -53 -15q-16 16 -29 40l-40 -7q-22 -18 -33 -18q-21 0 -61 8q-13 65 -13 71t13 58q9 5 22 20q9 20 31 20q5 0 11 -1q21 -3 28 12
q8 17 -65 91v-81q0 -25 -35 -106q70 56 76 56q3 0 3 -5l6 15q-3 -7 -35 16l-7 5l52 58q29 32 44 62q3 7 16 15q4 14 7 21q32 3 44 23q7 12 10 44q27 40 53 74q10 13 46 52q21 8 26 8q20 0 49 -23q-24 -43 -40 -43h-3zM679 -121q3 34 27 61l12 -12q17 -17 33 -49h-72z
M663 -129l-19 40l40 17l17 -38zM627 -124q-10 -12 -20 -22q-32 11 -39 13q-6 -1 -19 -4l14 -40l45 22q-9 -1 -30 -4q3 5 14 31l-15 27l-29 -29q16 -8 22 -8q5 0 21 8q1 0 9 3.5t15 7.5v6l14 -27q4 -10 4 -16q0 -15 -14.5 -25.5t-29.5 -10.5q-20 0 -80 10q-1 5 -4 44l-22 -24
h-6l6 -51q45 46 41 59q-5 20 -28 17q-3 -1 -13 -3q-4 0 -19 2q-11 0 -37 2v53h288l-16 37q-21 -21 -72 -78zM37 -185l-3 33l-13 -14h-38v96l43 -17q14 -35 14 -100zM535 616q-66 -35 -91 -91q-11 -25 -84 -156h154q8 10 22 26l39 37l54 -62q15 108 20 173q4 54 4 155
q-110 -73 -118 -82zM497 -40q-144 0 -157 1l-10 -117l47 -6l24 -21q29 0 41 4h55v139z" />
    <glyph glyph-name="braceleft" unicode="{" 
d="M1176 314q-20 11 -25 11t-12.5 -5.5t-12.5 -5.5q-2 0 -8 2t-10 2q-8 0 -15 -7q-1 4 1.5 13t2.5 12q0 8 -12 15q4 8 23.5 14t23.5 20q5 -2 11.5 -11.5t12.5 -9.5q3 0 20 14v-64zM996 354h-24q0 9 8 17q6 -4 16 -17zM954 355l-6 -3l-3 6l6 3zM830 803q-33 -48 -59 -80
q-146 -178 -202 -265q-7 -7 -38 -32t-31 -35v-21q6 -6 12 -6q4 0 8 5t8 5l27 -14q16 4 13 25q24 -4 84 -15q-3 -5 -28 -12q4 -10 15 -10q24 0 20 1v-4q-1 -4 -1 -8q-3 -8 -1 -13q42 -17 57 -17t26 11q4 -12 47 -17q-6 -12 -19 -12q-16 0 -63 3l-63 4q-81 0 -102 -10
q-7 9 -12 21t-13 22l-5 -4t-11 -6q-2 -2 -32 -6q-2 -1 -12 -9t-15 -8q-24 0 -42 5q-2 7 -7 29q-4 16 -4 25q0 6 5.5 23t5.5 23q9 5 19 19q7 11 16 11q2 0 19 -14q13 6 13 19q0 5 -8 9t-17 9q67 93 98 115q1 3 3 13q32 0 44 18q10 14 11 47h22q-1 14 7 49q16 25 60 74
q7 3 15 5q17 0 27 -8q-9 -20 -18 -20q-4 0 -5 1.5t-5 1.5q-15 0 -32 -39q19 -21 28 -21q6 0 20 14q2 10 10 25q18 19 78 74h27zM901 356q-7 -11 -19 -24l-33 11q-4 -1 -24 -5l-3.5 -2.5t-6.5 -5.5v-14q21 -12 36 -12q11 0 38 13l2.5 -4t2.5 -9q0 -8 -12 -14q-7 -4 -13 -4
q-21 0 -63 7v29q-1 21 -24 21q-4 0 -7 -4t-9 -4t-17.5 2t-17.5 2v17h170zM723 339q-7 -1 -8 -1q-5 -2 -9 -2q-1 16 -14 19h4q8 0 17 1h10v-17zM989 11q-22 -74 -94 -129q-1 1 -7.5 7l-11.5 11l5 38q3 -3 6.5 -5t7.5 -5q6 5 7.5 11.5t2.5 15.5q6 6 19 25q4 6 13 36l7 -5
q4 -2 8 -5q11 6 33 21zM957 50q0 -4 -9 -15t-10 -15q-18 21 -28 21q-3 0 -15 -5q-8 -5 -50 -7q-12 0 -23.5 -1l-11.5 -1q-4 0 -17 7q-2 -2 -4 -5q1 -2 5 -9t4 -12v-20q-6 0 -11 2h-8q-5 1 -6 1q-12 0 -19 -7l-5 10t-10 8q1 0 -5 -1q-1 -2 -5 -2q-5 0 -17 7t-17 7
q-14 0 -51 -3l-52 -4q-7 0 -18 3q-15 4 -19 4t-9.5 -3.5t-8.5 -3.5l-9 9l59 12q4 0 13 -2t13 -2t14.5 5.5t14.5 5.5q8 0 26 -7q13 19 13 28q0 14 -18 14q-14 -2 -23 -2q-29 0 -73 4q5 0 15.5 4.5t14.5 4.5q5 0 13.5 -3.5t13.5 -3.5q19 0 57.5 2t57.5 2q43 0 96 -3
q24 -1 75 -6q9 -6 12 -6q4 0 9.5 3.5t9.5 3.5q8 0 16 -8v-11zM816 -83q0 -4 -6 -17q-19 -26 -41 -52q-26 -11 -27 -12q-13 -7 -20 -22q-3 3 -3 7q0 5 6 13q4 0 8 4q13 34 23 54q20 41 50 39q4 4 4 27q0 -7 3 -20.5t3 -20.5zM326 325l-4 -14h-16q-7 6 -1 12q-4 10 -17 10
q-7 -1 -21 -1q-8 8 -8 13q38 8 56 15q7 -21 11 -35zM13 500q0 -24 -5.5 -71t-5.5 -71l1 199q1 -7 5.5 -26.5t4.5 -30.5zM686 -121h-7v23h7v-23zM464 72l-8 -10q-8 8 -15 10h23zM525 71q-15 -1 -15 -19v-25q-25 -7 -49 -7q-16 0 -33 1q-12 0 -23 1l-11 1q-14 0 -23 -10
q-1 0 -6 2t-7 2v20q8 6 27 6l11.5 2.5t14.5 2.5q10 0 35 -7t34 -7q12 0 12 15q0 13 -6 23q-1 -1 39 -1zM53 322q-2 -1 -9 -8q-12 12 -12 14q0 9 12 22l9 -9v-19zM13 330q0 -13 -5 -37l-2 -11q-4 -18 -4 -26v95q0 -2 5.5 -9.5t5.5 -11.5zM16 25q0 -1 -4 -7t-4 -11
q0 -86 6 -195q-8 -8 -13 -8v429q-5 -19 13 -34q-10 -10 -10 -18q0 -77 8 -131q4 -26 4 -25zM759 29q-19 19 -32 19q-4 0 -7 -2l-3 -2q-4 -7 -4 -11q0 -5 4 -9q33 -10 42 5zM706 43q-10 8 -18 8q0 -9 8 -17q2 1 10 9z" />
    <glyph glyph-name="bar" unicode="|" 
d="M1176 314q-20 11 -25 11t-12.5 -5.5t-12.5 -5.5q-2 0 -8 2t-10 2q-8 0 -15 -7q-1 4 1.5 13t2.5 12q0 8 -12 15q4 8 23.5 14t23.5 20q5 -2 11.5 -11.5t12.5 -9.5q3 0 20 14v-64zM996 354h-24q0 9 8 17q6 -4 16 -17zM954 355l-6 -3l-3 6l6 3zM830 803q-33 -48 -59 -80
q-146 -178 -202 -265q-7 -7 -38 -32t-31 -35v-21q6 -6 12 -6q4 0 8 5t8 5l27 -14q16 4 13 25q24 -4 84 -15q-3 -5 -28 -12q4 -10 15 -10q24 0 20 1v-4q-1 -4 -1 -8q-3 -8 -1 -13q42 -17 57 -17t26 11q4 -12 47 -17q-6 -12 -19 -12q-16 0 -63 3l-63 4q-81 0 -102 -10
q-7 9 -12 21t-13 22l-5 -4t-11 -6q-2 -2 -32 -6q-2 -1 -12 -9t-15 -8q-24 0 -42 5q-2 7 -7 29q-4 16 -4 25q0 6 5.5 23t5.5 23q9 5 19 19q7 11 16 11q2 0 19 -14q13 6 13 19q0 5 -8 9t-17 9q67 93 98 115q1 3 3 13q32 0 44 18q10 14 11 47h22q-1 14 7 49q16 25 60 74
q7 3 15 5q17 0 27 -8q-9 -20 -18 -20q-4 0 -5 1.5t-5 1.5q-15 0 -32 -39q19 -21 28 -21q6 0 20 14q2 10 10 25q18 19 78 74h27zM901 356q-7 -11 -19 -24l-33 11q-4 -1 -24 -5l-3.5 -2.5t-6.5 -5.5v-14q21 -12 36 -12q11 0 38 13l2.5 -4t2.5 -9q0 -8 -12 -14q-7 -4 -13 -4
q-21 0 -63 7v29q-1 21 -24 21q-4 0 -7 -4t-9 -4t-17.5 2t-17.5 2v17h170zM723 339q-7 -1 -8 -1q-5 -2 -9 -2q-1 16 -14 19h4q8 0 17 1h10v-17zM989 11q-22 -74 -94 -129q-1 1 -7.5 7l-11.5 11l5 38q3 -3 6.5 -5t7.5 -5q6 5 7.5 11.5t2.5 15.5q6 6 19 25q4 6 13 36l7 -5
q4 -2 8 -5q11 6 33 21zM957 50q0 -4 -9 -15t-10 -15q-18 21 -28 21q-3 0 -15 -5q-8 -5 -50 -7q-12 0 -23.5 -1l-11.5 -1q-4 0 -17 7q-2 -2 -4 -5q1 -2 5 -9t4 -12v-20q-6 0 -11 2h-8q-5 1 -6 1q-12 0 -19 -7l-5 10t-10 8q1 0 -5 -1q-1 -2 -5 -2q-5 0 -17 7t-17 7
q-14 0 -51 -3l-52 -4q-7 0 -18 3q-15 4 -19 4t-9.5 -3.5t-8.5 -3.5l-9 9l59 12q4 0 13 -2t13 -2t14.5 5.5t14.5 5.5q8 0 26 -7q13 19 13 28q0 14 -18 14q-14 -2 -23 -2q-29 0 -73 4q5 0 15.5 4.5t14.5 4.5q5 0 13.5 -3.5t13.5 -3.5q19 0 57.5 2t57.5 2q43 0 96 -3
q24 -1 75 -6q9 -6 12 -6q4 0 9.5 3.5t9.5 3.5q8 0 16 -8v-11zM816 -83q0 -4 -6 -17q-19 -26 -41 -52q-26 -11 -27 -12q-13 -7 -20 -22q-3 3 -3 7q0 5 6 13q4 0 8 4q13 34 23 54q20 41 50 39q4 4 4 27q0 -7 3 -20.5t3 -20.5zM326 325l-4 -14h-16q-7 6 -1 12q-4 10 -17 10
q-7 -1 -21 -1q-8 8 -8 13q38 8 56 15q7 -21 11 -35zM13 500q0 -24 -5.5 -71t-5.5 -71l1 199q1 -7 5.5 -26.5t4.5 -30.5zM686 -121h-7v23h7v-23zM464 72l-8 -10q-8 8 -15 10h23zM525 71q-15 -1 -15 -19v-25q-25 -7 -49 -7q-16 0 -33 1q-12 0 -23 1l-11 1q-14 0 -23 -10
q-1 0 -6 2t-7 2v20q8 6 27 6l11.5 2.5t14.5 2.5q10 0 35 -7t34 -7q12 0 12 15q0 13 -6 23q-1 -1 39 -1zM53 322q-2 -1 -9 -8q-12 12 -12 14q0 9 12 22l9 -9v-19zM13 330q0 -13 -5 -37l-2 -11q-4 -18 -4 -26v95q0 -2 5.5 -9.5t5.5 -11.5zM16 25q0 -1 -4 -7t-4 -11
q0 -86 6 -195q-8 -8 -13 -8v429q-5 -19 13 -34q-10 -10 -10 -18q0 -77 8 -131q4 -26 4 -25zM759 29q-19 19 -32 19q-4 0 -7 -2l-3 -2q-4 -7 -4 -11q0 -5 4 -9q33 -10 42 5zM706 43q-10 8 -18 8q0 -9 8 -17q2 1 10 9z" />
    <glyph glyph-name="braceright" unicode="}" 
d="M1176 314q-20 11 -25 11t-12.5 -5.5t-12.5 -5.5q-2 0 -8 2t-10 2q-8 0 -15 -7q-1 4 1.5 13t2.5 12q0 8 -12 15q4 8 23.5 14t23.5 20q5 -2 11.5 -11.5t12.5 -9.5q3 0 20 14v-64zM996 354h-24q0 9 8 17q6 -4 16 -17zM954 355l-6 -3l-3 6l6 3zM830 803q-33 -48 -59 -80
q-146 -178 -202 -265q-7 -7 -38 -32t-31 -35v-21q6 -6 12 -6q4 0 8 5t8 5l27 -14q16 4 13 25q24 -4 84 -15q-3 -5 -28 -12q4 -10 15 -10q24 0 20 1v-4q-1 -4 -1 -8q-3 -8 -1 -13q42 -17 57 -17t26 11q4 -12 47 -17q-6 -12 -19 -12q-16 0 -63 3l-63 4q-81 0 -102 -10
q-7 9 -12 21t-13 22l-5 -4t-11 -6q-2 -2 -32 -6q-2 -1 -12 -9t-15 -8q-24 0 -42 5q-2 7 -7 29q-4 16 -4 25q0 6 5.5 23t5.5 23q9 5 19 19q7 11 16 11q2 0 19 -14q13 6 13 19q0 5 -8 9t-17 9q67 93 98 115q1 3 3 13q32 0 44 18q10 14 11 47h22q-1 14 7 49q16 25 60 74
q7 3 15 5q17 0 27 -8q-9 -20 -18 -20q-4 0 -5 1.5t-5 1.5q-15 0 -32 -39q19 -21 28 -21q6 0 20 14q2 10 10 25q18 19 78 74h27zM901 356q-7 -11 -19 -24l-33 11q-4 -1 -24 -5l-3.5 -2.5t-6.5 -5.5v-14q21 -12 36 -12q11 0 38 13l2.5 -4t2.5 -9q0 -8 -12 -14q-7 -4 -13 -4
q-21 0 -63 7v29q-1 21 -24 21q-4 0 -7 -4t-9 -4t-17.5 2t-17.5 2v17h170zM723 339q-7 -1 -8 -1q-5 -2 -9 -2q-1 16 -14 19h4q8 0 17 1h10v-17zM989 11q-22 -74 -94 -129q-1 1 -7.5 7l-11.5 11l5 38q3 -3 6.5 -5t7.5 -5q6 5 7.5 11.5t2.5 15.5q6 6 19 25q4 6 13 36l7 -5
q4 -2 8 -5q11 6 33 21zM957 50q0 -4 -9 -15t-10 -15q-18 21 -28 21q-3 0 -15 -5q-8 -5 -50 -7q-12 0 -23.5 -1l-11.5 -1q-4 0 -17 7q-2 -2 -4 -5q1 -2 5 -9t4 -12v-20q-6 0 -11 2h-8q-5 1 -6 1q-12 0 -19 -7l-5 10t-10 8q1 0 -5 -1q-1 -2 -5 -2q-5 0 -17 7t-17 7
q-14 0 -51 -3l-52 -4q-7 0 -18 3q-15 4 -19 4t-9.5 -3.5t-8.5 -3.5l-9 9l59 12q4 0 13 -2t13 -2t14.5 5.5t14.5 5.5q8 0 26 -7q13 19 13 28q0 14 -18 14q-14 -2 -23 -2q-29 0 -73 4q5 0 15.5 4.5t14.5 4.5q5 0 13.5 -3.5t13.5 -3.5q19 0 57.5 2t57.5 2q43 0 96 -3
q24 -1 75 -6q9 -6 12 -6q4 0 9.5 3.5t9.5 3.5q8 0 16 -8v-11zM816 -83q0 -4 -6 -17q-19 -26 -41 -52q-26 -11 -27 -12q-13 -7 -20 -22q-3 3 -3 7q0 5 6 13q4 0 8 4q13 34 23 54q20 41 50 39q4 4 4 27q0 -7 3 -20.5t3 -20.5zM326 325l-4 -14h-16q-7 6 -1 12q-4 10 -17 10
q-7 -1 -21 -1q-8 8 -8 13q38 8 56 15q7 -21 11 -35zM13 500q0 -24 -5.5 -71t-5.5 -71l1 199q1 -7 5.5 -26.5t4.5 -30.5zM686 -121h-7v23h7v-23zM464 72l-8 -10q-8 8 -15 10h23zM525 71q-15 -1 -15 -19v-25q-25 -7 -49 -7q-16 0 -33 1q-12 0 -23 1l-11 1q-14 0 -23 -10
q-1 0 -6 2t-7 2v20q8 6 27 6l11.5 2.5t14.5 2.5q10 0 35 -7t34 -7q12 0 12 15q0 13 -6 23q-1 -1 39 -1zM53 322q-2 -1 -9 -8q-12 12 -12 14q0 9 12 22l9 -9v-19zM13 330q0 -13 -5 -37l-2 -11q-4 -18 -4 -26v95q0 -2 5.5 -9.5t5.5 -11.5zM16 25q0 -1 -4 -7t-4 -11
q0 -86 6 -195q-8 -8 -13 -8v429q-5 -19 13 -34q-10 -10 -10 -18q0 -77 8 -131q4 -26 4 -25zM759 29q-19 19 -32 19q-4 0 -7 -2l-3 -2q-4 -7 -4 -11q0 -5 4 -9q33 -10 42 5zM706 43q-10 8 -18 8q0 -9 8 -17q2 1 10 9z" />
    <glyph glyph-name="asciitilde" unicode="~" 
d="M1176 314q-20 11 -25 11t-12.5 -5.5t-12.5 -5.5q-2 0 -8 2t-10 2q-8 0 -15 -7q-1 4 1.5 13t2.5 12q0 8 -12 15q4 8 23.5 14t23.5 20q5 -2 11.5 -11.5t12.5 -9.5q3 0 20 14v-64zM996 354h-24q0 9 8 17q6 -4 16 -17zM954 355l-6 -3l-3 6l6 3zM830 803q-33 -48 -59 -80
q-146 -178 -202 -265q-7 -7 -38 -32t-31 -35v-21q6 -6 12 -6q4 0 8 5t8 5l27 -14q16 4 13 25q24 -4 84 -15q-3 -5 -28 -12q4 -10 15 -10q24 0 20 1v-4q-1 -4 -1 -8q-3 -8 -1 -13q42 -17 57 -17t26 11q4 -12 47 -17q-6 -12 -19 -12q-16 0 -63 3l-63 4q-81 0 -102 -10
q-7 9 -12 21t-13 22l-5 -4t-11 -6q-2 -2 -32 -6q-2 -1 -12 -9t-15 -8q-24 0 -42 5q-2 7 -7 29q-4 16 -4 25q0 6 5.5 23t5.5 23q9 5 19 19q7 11 16 11q2 0 19 -14q13 6 13 19q0 5 -8 9t-17 9q67 93 98 115q1 3 3 13q32 0 44 18q10 14 11 47h22q-1 14 7 49q16 25 60 74
q7 3 15 5q17 0 27 -8q-9 -20 -18 -20q-4 0 -5 1.5t-5 1.5q-15 0 -32 -39q19 -21 28 -21q6 0 20 14q2 10 10 25q18 19 78 74h27zM901 356q-7 -11 -19 -24l-33 11q-4 -1 -24 -5l-3.5 -2.5t-6.5 -5.5v-14q21 -12 36 -12q11 0 38 13l2.5 -4t2.5 -9q0 -8 -12 -14q-7 -4 -13 -4
q-21 0 -63 7v29q-1 21 -24 21q-4 0 -7 -4t-9 -4t-17.5 2t-17.5 2v17h170zM723 339q-7 -1 -8 -1q-5 -2 -9 -2q-1 16 -14 19h4q8 0 17 1h10v-17zM989 11q-22 -74 -94 -129q-1 1 -7.5 7l-11.5 11l5 38q3 -3 6.5 -5t7.5 -5q6 5 7.5 11.5t2.5 15.5q6 6 19 25q4 6 13 36l7 -5
q4 -2 8 -5q11 6 33 21zM957 50q0 -4 -9 -15t-10 -15q-18 21 -28 21q-3 0 -15 -5q-8 -5 -50 -7q-12 0 -23.5 -1l-11.5 -1q-4 0 -17 7q-2 -2 -4 -5q1 -2 5 -9t4 -12v-20q-6 0 -11 2h-8q-5 1 -6 1q-12 0 -19 -7l-5 10t-10 8q1 0 -5 -1q-1 -2 -5 -2q-5 0 -17 7t-17 7
q-14 0 -51 -3l-52 -4q-7 0 -18 3q-15 4 -19 4t-9.5 -3.5t-8.5 -3.5l-9 9l59 12q4 0 13 -2t13 -2t14.5 5.5t14.5 5.5q8 0 26 -7q13 19 13 28q0 14 -18 14q-14 -2 -23 -2q-29 0 -73 4q5 0 15.5 4.5t14.5 4.5q5 0 13.5 -3.5t13.5 -3.5q19 0 57.5 2t57.5 2q43 0 96 -3
q24 -1 75 -6q9 -6 12 -6q4 0 9.5 3.5t9.5 3.5q8 0 16 -8v-11zM816 -83q0 -4 -6 -17q-19 -26 -41 -52q-26 -11 -27 -12q-13 -7 -20 -22q-3 3 -3 7q0 5 6 13q4 0 8 4q13 34 23 54q20 41 50 39q4 4 4 27q0 -7 3 -20.5t3 -20.5zM326 325l-4 -14h-16q-7 6 -1 12q-4 10 -17 10
q-7 -1 -21 -1q-8 8 -8 13q38 8 56 15q7 -21 11 -35zM13 500q0 -24 -5.5 -71t-5.5 -71l1 199q1 -7 5.5 -26.5t4.5 -30.5zM686 -121h-7v23h7v-23zM464 72l-8 -10q-8 8 -15 10h23zM525 71q-15 -1 -15 -19v-25q-25 -7 -49 -7q-16 0 -33 1q-12 0 -23 1l-11 1q-14 0 -23 -10
q-1 0 -6 2t-7 2v20q8 6 27 6l11.5 2.5t14.5 2.5q10 0 35 -7t34 -7q12 0 12 15q0 13 -6 23q-1 -1 39 -1zM53 322q-2 -1 -9 -8q-12 12 -12 14q0 9 12 22l9 -9v-19zM13 330q0 -13 -5 -37l-2 -11q-4 -18 -4 -26v95q0 -2 5.5 -9.5t5.5 -11.5zM16 25q0 -1 -4 -7t-4 -11
q0 -86 6 -195q-8 -8 -13 -8v429q-5 -19 13 -34q-10 -10 -10 -18q0 -77 8 -131q4 -26 4 -25zM759 29q-19 19 -32 19q-4 0 -7 -2l-3 -2q-4 -7 -4 -11q0 -5 4 -9q33 -10 42 5zM706 43q-10 8 -18 8q0 -9 8 -17q2 1 10 9z" />
  </font>
</defs>
</svg>
